<svg width="48" height="52" viewBox="0 0 48 52" fill="none" xmlns="http://www.w3.org/2000/svg">
<path d="M31.9121 11.2096L34.2621 39.5449C35.4882 48.2635 45.2969 42.7625 45.2969 42.7625L47.0338 44.2156C45.5144 46.7088 41.4485 52 38.0768 52H30.7882C27.3831 52 24.2726 50.2051 23.3809 40.7505C19.9253 43.7202 15.1516 47.5397 13.9295 48.3673C12.9677 49.0186 9.43387 50.9761 6.77736 50.028C2.99693 48.6788 -1.74638 40.6914 0.646941 28.9581C2.99694 17.4372 10.7621 7.57692 27.3143 0C27.5186 0.415246 27.723 0.726623 27.9273 1.14172C23.2954 4.60147 13.48 12.9948 11.273 18.8902C9.06606 24.7856 11.6817 32.1757 12.6013 34.5629C13.5208 36.9501 16.5696 41.6088 18.8339 39.8564C20.3112 38.713 21.7438 37.5203 23.0241 36.3461C22.3369 27.5271 21.994 21.6229 21.6947 19.6168L31.9121 11.2096Z" fill="white"/>
</svg>
