<svg width="154" height="36" viewBox="0 0 154 36" fill="none" xmlns="http://www.w3.org/2000/svg">
<path d="M22.443 7.76048L24.0957 27.3773C24.958 33.4132 31.8562 29.6048 31.8562 29.6048L33.0777 30.6108C32.0092 32.3369 29.1498 36 26.7785 36H21.6526C19.2579 36 17.0703 34.7573 16.4432 28.2119C14.013 30.2678 10.6558 32.9121 9.7963 33.485C9.11986 33.936 6.63461 35.2912 4.76635 34.6348C2.10767 33.7007 -1.22818 28.1709 0.454978 20.0479C2.10767 12.0719 7.56875 5.24556 19.2095 0C19.3532 0.287478 19.4969 0.503047 19.6406 0.79042C16.3831 3.18563 9.48013 8.99641 7.92803 13.0778C6.37594 17.1593 8.21546 22.2755 8.86217 23.9281C9.50887 25.5808 11.653 28.8061 13.2454 27.5929C14.2844 26.8013 15.2919 25.9756 16.1923 25.1627C15.709 19.0572 15.4678 14.9697 15.2574 13.5808L22.443 7.76048Z" fill="#2C424C"/>
<path d="M45.4229 7.85597L39.6934 28.5296H43.7099L44.9504 23.9223H52.1566L53.397 28.5296H57.4136L51.684 7.85597H45.4229ZM45.8659 20.3783L48.3763 11.1047H48.7307L51.241 20.3783H45.8659Z" fill="#2C424C"/>
<path d="M59.1713 7.85597V28.5296H62.9516V11.9907H63.306L67.5884 28.5296H73.3179L77.6003 11.9907H77.9547V28.5296H81.735V7.85597H75.0013L70.6304 24.4539H70.276L65.905 7.85597H59.1713Z" fill="#2C424C"/>
<path d="M89.2331 7.85597L83.5036 28.5296H87.5202L88.7606 23.9223H95.9668L97.2072 28.5296H101.224L95.4943 7.85597H89.2331ZM89.6761 20.3783L92.1865 11.1047H92.5409L95.0513 20.3783H89.6761Z" fill="#2C424C"/>
<path d="M102.982 7.85597V28.5296H106.88V11.5182H107.234L111.96 28.5296H118.871V7.85597H114.972V24.8674H114.618L109.892 7.85597H102.982Z" fill="#2C424C"/>
<path d="M126.381 7.85597L120.651 28.5296H124.668L125.908 23.9223H133.115L134.355 28.5296H138.372L132.642 7.85597H126.381ZM126.824 20.3783L129.334 11.1047H129.689L132.199 20.3783H126.824Z" fill="#2C424C"/>
<path d="M136.893 7.85597V11.4H143.154V28.5296H147.053V11.4H153.314V7.85597H136.893Z" fill="#2C424C"/>
</svg>
