<svg width="40" height="40" viewBox="0 0 40 40" fill="none" xmlns="http://www.w3.org/2000/svg">
<path fill-rule="evenodd" clip-rule="evenodd" d="M15.5491 36.632L27.484 39.8345C30.034 40.5313 32.7324 38.9598 33.4144 36.3948L36.6168 24.4598L39.8192 12.5247C40.5457 9.94498 39.0186 7.27627 36.3944 6.57944L24.4595 3.377L12.5246 0.174554C9.94486 -0.537101 7.27618 0.989985 6.57936 3.61421L3.37696 15.5493L0.17455 27.4843C-0.537097 30.0641 0.989972 32.7328 3.61417 33.4296L15.5491 36.632ZM26.483 25.7725L25.2838 11.6048L20.0702 15.8084C20.1684 16.4533 20.2758 17.9041 20.4332 20.0299C20.5205 21.2103 20.6233 22.5988 20.7485 24.1731C20.0953 24.7601 19.3642 25.3565 18.6104 25.9282C17.455 26.8044 15.8993 24.4751 15.4301 23.2814C14.9608 22.0878 13.6262 18.3928 14.7523 15.4451C15.8784 12.4974 20.887 8.30073 23.2505 6.57086C23.1984 6.46716 23.1463 6.37641 23.0942 6.28566C23.042 6.19477 22.9899 6.10389 22.9377 6C14.4916 9.78846 10.5293 14.7186 9.33012 20.479C8.10888 26.3457 10.5293 30.3394 12.4583 31.014C13.8138 31.4881 15.617 30.5093 16.1078 30.1836C16.7314 29.7698 19.1673 27.8601 20.9306 26.3753C21.3856 31.1025 22.9728 32 24.7103 32H28.4295C30.15 32 32.2247 29.3544 33 28.1078L32.1137 27.3812C32.1137 27.3812 27.1086 30.1317 26.483 25.7725Z" fill="#AA998A"/>
</svg>
