<svg xmlns="http://www.w3.org/2000/svg" width="24" height="24" fill="none" viewBox="0 0 24 24"><path fill="currentColor" fill-rule="evenodd" d="M3.25 5A2.75 2.75 0 0 1 6 2.25h12A2.75 2.75 0 0 1 20.75 5v14A2.75 2.75 0 0 1 18 21.75H6A2.75 2.75 0 0 1 3.25 19V5ZM6 3.75c-.69 0-1.25.56-1.25 1.25v14c0 .69.56 1.25 1.25 1.25h12c.69 0 1.25-.56 1.25-1.25V5c0-.69-.56-1.25-1.25-1.25H6Z" clip-rule="evenodd"/><path fill="currentColor" fill-rule="evenodd" d="M14.53 6.97a.75.75 0 0 1 0 1.06l-2.5 2.5a.75.75 0 0 1-1.06 0l-1.5-1.5a.75.75 0 0 1 1.06-1.06l.97.97 1.97-1.97a.75.75 0 0 1 1.06 0ZM7.25 14a.75.75 0 0 1 .75-.75h8a.75.75 0 0 1 0 1.5H8a.75.75 0 0 1-.75-.75Zm0 3a.75.75 0 0 1 .75-.75h8a.75.75 0 0 1 0 1.5H8a.75.75 0 0 1-.75-.75Z" clip-rule="evenodd"/></svg>