<svg xmlns="http://www.w3.org/2000/svg" width="24" height="24" fill="none" viewBox="0 0 24 24"><path fill="currentColor" fill-rule="evenodd" d="M6 2.25A2.75 2.75 0 0 0 3.25 5v14A2.75 2.75 0 0 0 6 21.75h12A2.75 2.75 0 0 0 20.75 19V5A2.75 2.75 0 0 0 18 2.25H6Zm8.53 4.72a.75.75 0 0 1 0 1.06l-2.5 2.5a.75.75 0 0 1-1.06 0l-1.5-1.5a.75.75 0 0 1 1.06-1.06l.97.97 1.97-1.97a.75.75 0 0 1 1.06 0ZM7.25 14a.75.75 0 0 1 .75-.75h8a.75.75 0 0 1 0 1.5H8a.75.75 0 0 1-.75-.75ZM8 16.25a.75.75 0 0 0 0 1.5h8a.75.75 0 0 0 0-1.5H8Z" clip-rule="evenodd"/></svg>