<svg xmlns="http://www.w3.org/2000/svg" width="24" height="24" fill="none" viewBox="0 0 24 24"><path fill="currentColor" fill-rule="evenodd" d="M12 2.25a.75.75 0 0 1 .75.75v9a.75.75 0 0 1-1.5 0V3a.75.75 0 0 1 .75-.75Z" clip-rule="evenodd"/><path fill="currentColor" fill-rule="evenodd" d="M8.47 8.47a.75.75 0 0 1 1.06 0L12 10.94l2.47-2.47a.75.75 0 1 1 1.06 1.06l-3 3a.75.75 0 0 1-1.06 0l-3-3a.75.75 0 0 1 0-1.06Z" clip-rule="evenodd"/><path fill="currentColor" fill-rule="evenodd" d="M4.81 7.035A2.75 2.75 0 0 1 7.387 5.25H9a.75.75 0 0 1 0 1.5H7.386a1.25 1.25 0 0 0-1.17.811L3.83 13.922c-.053.141-.08.29-.08.441V18c0 .69.56 1.25 1.25 1.25h14c.69 0 1.25-.56 1.25-1.25v-3.637c0-.15-.027-.3-.08-.439l-2.385-6.363a1.25 1.25 0 0 0-1.171-.811H15a.75.75 0 0 1 0-1.5h1.614a2.75 2.75 0 0 1 2.575 1.785l2.386 6.363c.116.308.175.636.175.965V18A2.75 2.75 0 0 1 19 20.75H5A2.75 2.75 0 0 1 2.25 18v-3.637c0-.33.06-.656.174-.965l2.387-6.363Z" clip-rule="evenodd"/><path fill="currentColor" fill-rule="evenodd" d="M2.284 14a.75.75 0 0 1 .75-.75h4.348c.663 0 1.27.374 1.565.968l.446.893c.044.086.13.139.225.139h4.764c.095 0 .18-.053.223-.138l.447-.894a1.753 1.753 0 0 1 1.566-.968h4.348a.75.75 0 0 1 0 1.5h-4.348a.251.251 0 0 0-.224.139l-.447.893a1.749 1.749 0 0 1-1.565.968H9.618a1.751 1.751 0 0 1-1.565-.967l-.448-.895a.25.25 0 0 0-.223-.138H3.034a.75.75 0 0 1-.75-.75Z" clip-rule="evenodd"/></svg>