<svg xmlns="http://www.w3.org/2000/svg" width="24" height="24" fill="none" viewBox="0 0 24 24"><path fill="currentColor" fill-rule="evenodd" d="M15.04 5.25a.79.79 0 0 0-.79.79c0 .41.415.698.823.711a2.25 2.25 0 0 1 1.518 3.84l-3 3a2.244 2.244 0 0 1-1.58.659h-.021a2.243 2.243 0 0 1-1.581-.659l-3-3a2.25 2.25 0 0 1 1.518-3.84c.409-.013.823-.302.823-.71a.79.79 0 0 0-.79-.791H7.386a2.75 2.75 0 0 0-2.575 1.785l-2.334 6.222h4.905a1.75 1.75 0 0 1 1.565.968l.446.893c.044.086.13.139.225.139h4.764c.095 0 .18-.053.223-.138l.447-.894a1.752 1.752 0 0 1 1.566-.968h4.905l-2.334-6.222a2.75 2.75 0 0 0-2.575-1.785H15.04Zm6.71 9.507h-5.132a.251.251 0 0 0-.224.139l-.447.893a1.75 1.75 0 0 1-1.565.968H9.618a1.751 1.751 0 0 1-1.565-.967l-.448-.895a.25.25 0 0 0-.223-.138H2.25V18A2.75 2.75 0 0 0 5 20.75h14A2.75 2.75 0 0 0 21.75 18v-3.243Z" clip-rule="evenodd"/><path fill="currentColor" fill-rule="evenodd" d="M12 2.25a.75.75 0 0 1 .75.75v9a.75.75 0 0 1-1.5 0V3a.75.75 0 0 1 .75-.75Z" clip-rule="evenodd"/><path fill="currentColor" fill-rule="evenodd" d="M8.47 8.47a.75.75 0 0 1 1.06 0L12 10.94l2.47-2.47a.75.75 0 1 1 1.06 1.06l-3 3a.75.75 0 0 1-1.06 0l-3-3a.75.75 0 0 1 0-1.06Z" clip-rule="evenodd"/></svg>