<svg xmlns="http://www.w3.org/2000/svg" width="24" height="24" fill="none" viewBox="0 0 24 24"><path fill="currentColor" fill-rule="evenodd" d="M2 20a2 2 0 0 0 2 2h16a2 2 0 0 0 2-2V4a2 2 0 0 0-2-2H4a2 2 0 0 0-2 2v16ZM9.13 4.93a.75.75 0 0 0-1.06-1.06l-3.6 3.6a.75.75 0 0 0 0 1.06l3.6 3.6a.75.75 0 0 0 1.06-1.06L6.81 8.75H19a.75.75 0 0 0 0-1.5H6.81l2.32-2.32Zm6.8 6.94a.75.75 0 1 0-1.06 1.06l2.32 2.32H5a.75.75 0 0 0 0 1.5h12.19l-2.32 2.32a.75.75 0 1 0 1.06 1.06l3.6-3.6a.75.75 0 0 0 0-1.06l-3.6-3.6Z" clip-rule="evenodd"/></svg>