<svg xmlns="http://www.w3.org/2000/svg" width="24" height="24" fill="none" viewBox="0 0 24 24"><path fill="currentColor" fill-rule="evenodd" d="M9.13 3.87a.75.75 0 0 1 0 1.06L6.06 8l3.07 3.07a.75.75 0 0 1-1.06 1.06l-3.6-3.6a.75.75 0 0 1 0-1.06l3.6-3.6a.75.75 0 0 1 1.06 0Z" clip-rule="evenodd"/><path fill="currentColor" fill-rule="evenodd" d="M4.25 8A.75.75 0 0 1 5 7.25h14a.75.75 0 0 1 0 1.5H5A.75.75 0 0 1 4.25 8Zm10.62 3.87a.75.75 0 0 1 1.06 0l3.6 3.6a.75.75 0 0 1 0 1.06l-3.6 3.6a.75.75 0 0 1-1.06-1.06L17.94 16l-3.07-3.07a.75.75 0 0 1 0-1.06Z" clip-rule="evenodd"/><path fill="currentColor" fill-rule="evenodd" d="M4.25 16a.75.75 0 0 1 .75-.75h14a.75.75 0 0 1 0 1.5H5a.75.75 0 0 1-.75-.75Z" clip-rule="evenodd"/></svg>