<svg xmlns="http://www.w3.org/2000/svg" width="24" height="24" fill="none" viewBox="0 0 24 24"><path fill="currentColor" fill-rule="evenodd" d="M2 20a2 2 0 0 0 2 2h16a2 2 0 0 0 2-2V4a2 2 0 0 0-2-2H4a2 2 0 0 0-2 2v16Zm9.706-15.207a5.304 5.304 0 0 1 7.5 7.5l-.006.007-2.192 2.192a.75.75 0 0 1-1.06-1.06l2.188-2.189a3.804 3.804 0 0 0-5.379-5.379l-2.188 2.188a.75.75 0 1 1-1.061-1.06l2.198-2.199Zm3.492 4.009a.75.75 0 0 1 0 1.06l-5.336 5.336a.75.75 0 0 1-1.06-1.06l5.336-5.336a.75.75 0 0 1 1.06 0Zm-7.146 1.767a.75.75 0 1 0-1.06-1.061L4.8 11.7l-.007.006a5.304 5.304 0 0 0 7.5 7.5l2.2-2.198a.75.75 0 0 0-1.062-1.06l-2.188 2.188a3.804 3.804 0 0 1-5.379-5.379l2.188-2.188Z" clip-rule="evenodd"/></svg>