<svg xmlns="http://www.w3.org/2000/svg" width="24" height="24" fill="none" viewBox="0 0 24 24"><path fill="currentColor" fill-rule="evenodd" d="M11.707 4.793a5.304 5.304 0 0 1 7.5 7.5l-.007.007-2.192 2.192a.75.75 0 0 1-1.06-1.06l2.188-2.189a3.804 3.804 0 0 0-5.379-5.379L10.57 8.053a.75.75 0 0 1-1.061-1.061l2.199-2.199Z" clip-rule="evenodd"/><path fill="currentColor" fill-rule="evenodd" d="M15.198 8.802a.75.75 0 0 1 0 1.06l-5.336 5.336a.75.75 0 0 1-1.06-1.06l5.336-5.336a.75.75 0 0 1 1.06 0Z" clip-rule="evenodd"/><path fill="currentColor" fill-rule="evenodd" d="M8.053 9.508a.75.75 0 0 1 0 1.06l-2.189 2.19a3.804 3.804 0 0 0 5.38 5.378l2.188-2.188a.75.75 0 1 1 1.06 1.06l-2.198 2.199a5.304 5.304 0 0 1-7.5-7.5L4.8 11.7l2.192-2.192a.75.75 0 0 1 1.06 0Z" clip-rule="evenodd"/></svg>