<svg xmlns="http://www.w3.org/2000/svg" width="24" height="24" fill="none" viewBox="0 0 24 24"><path fill="currentColor" fill-rule="evenodd" d="M5 2.25A2.75 2.75 0 0 0 2.25 5v9.25h5.132c.663 0 1.269.374 1.565.968l.446.893c.044.086.13.139.225.139h4.764c.095 0 .18-.053.223-.138l.447-.894a1.752 1.752 0 0 1 1.566-.968h5.132V5A2.75 2.75 0 0 0 19 2.25H5Zm16.75 13.5h-5.132a.251.251 0 0 0-.224.139l-.447.893a1.749 1.749 0 0 1-1.565.968H9.618a1.751 1.751 0 0 1-1.565-.967l-.448-.895a.25.25 0 0 0-.223-.138H2.25V19A2.75 2.75 0 0 0 5 21.75h14A2.75 2.75 0 0 0 21.75 19v-3.25ZM6.25 7A.75.75 0 0 1 7 6.25h10a.75.75 0 0 1 0 1.5H7A.75.75 0 0 1 6.25 7Zm0 4a.75.75 0 0 1 .75-.75h10a.75.75 0 0 1 0 1.5H7a.75.75 0 0 1-.75-.75Z" clip-rule="evenodd"/></svg>