<svg xmlns="http://www.w3.org/2000/svg" width="24" height="24" fill="none" viewBox="0 0 24 24"><path fill="currentColor" fill-rule="evenodd" d="M3 3.75a.25.25 0 0 0-.25.25v2c0 .138.112.25.25.25h18a.25.25 0 0 0 .25-.25V4a.25.25 0 0 0-.25-.25H3ZM1.25 4c0-.966.784-1.75 1.75-1.75h18c.966 0 1.75.784 1.75 1.75v2A1.75 1.75 0 0 1 21 7.75H3A1.75 1.75 0 0 1 1.25 6V4Z" clip-rule="evenodd"/><path fill="currentColor" fill-rule="evenodd" d="M3.333 6.25a.75.75 0 0 1 .75.75v12c0 .69.56 1.25 1.25 1.25h13.334c.69 0 1.25-.56 1.25-1.25V7a.75.75 0 0 1 1.5 0v12a2.75 2.75 0 0 1-2.75 2.75H5.333A2.75 2.75 0 0 1 2.583 19V7a.75.75 0 0 1 .75-.75Z" clip-rule="evenodd"/><path fill="currentColor" fill-rule="evenodd" d="M9 11.75a.25.25 0 0 0-.25.25v1c0 .138.112.25.25.25h6a.25.25 0 0 0 .25-.25v-1a.25.25 0 0 0-.25-.25H9ZM7.25 12c0-.966.784-1.75 1.75-1.75h6c.966 0 1.75.784 1.75 1.75v1A1.75 1.75 0 0 1 15 14.75H9A1.75 1.75 0 0 1 7.25 13v-1Z" clip-rule="evenodd"/></svg>