<svg xmlns="http://www.w3.org/2000/svg" width="24" height="24" fill="none" viewBox="0 0 24 24"><path fill="currentColor" fill-rule="evenodd" d="M5 9.013a2.75 2.75 0 0 0-2.75 2.75v1.327h15.9v-1.327a2.75 2.75 0 0 0-2.75-2.75H5Zm13.15 5.577H2.25v3.91A2.75 2.75 0 0 0 5 21.25h10.4a2.75 2.75 0 0 0 2.75-2.75v-3.91Z" clip-rule="evenodd"/><path fill="currentColor" fill-rule="evenodd" d="M4.526 7.54A4.12 4.12 0 0 1 5 7.513h10.4a4.25 4.25 0 0 1 4.25 4.25v2.918c1.471-.392 2.407-1.894 2.004-3.388L19.9 4.783a2.758 2.758 0 0 0-3.363-1.94L6.494 5.517A2.75 2.75 0 0 0 4.526 7.54Z" clip-rule="evenodd"/></svg>