<svg xmlns="http://www.w3.org/2000/svg" width="24" height="24" fill="none" viewBox="0 0 24 24"><path fill="currentColor" fill-rule="evenodd" d="M18.452 5.175a1.258 1.258 0 0 0-1.53-.883L6.88 6.968A1.249 1.249 0 0 0 5.995 8.5l.287 1.068a.75.75 0 0 1-1.448.39l-.287-1.066a2.749 2.749 0 0 1 1.947-3.374l10.043-2.676A2.758 2.758 0 0 1 19.9 4.783l1.754 6.51a2.751 2.751 0 0 1-1.947 3.373l-2.114.563a.75.75 0 1 1-.386-1.45l2.114-.563a1.251 1.251 0 0 0 .885-1.533l-1.754-6.508Z" clip-rule="evenodd"/><path fill="currentColor" fill-rule="evenodd" d="M2.25 11.763A2.75 2.75 0 0 1 5 9.013h10.4a2.75 2.75 0 0 1 2.75 2.75V18.5a2.75 2.75 0 0 1-2.75 2.75H5a2.75 2.75 0 0 1-2.75-2.75v-6.737ZM5 10.513c-.69 0-1.25.56-1.25 1.25V18.5c0 .69.56 1.25 1.25 1.25h10.4c.69 0 1.25-.56 1.25-1.25v-6.737c0-.69-.56-1.25-1.25-1.25H5Z" clip-rule="evenodd"/><path fill="currentColor" fill-rule="evenodd" d="M2.25 13.84a.75.75 0 0 1 .75-.75h14.4a.75.75 0 0 1 0 1.5H3a.75.75 0 0 1-.75-.75Z" clip-rule="evenodd"/></svg>