<svg xmlns="http://www.w3.org/2000/svg" width="24" height="24" fill="none" viewBox="0 0 24 24"><path fill="currentColor" stroke="currentColor" stroke-linecap="round" stroke-linejoin="round" stroke-width="1.5" d="M8.68 10.36H5.32c-.93 0-1.68-.75-1.68-1.68V5.32c0-.93.75-1.68 1.68-1.68h3.36c.93 0 1.68.75 1.68 1.68v3.36c0 .93-.75 1.68-1.68 1.68Zm10 0h-3.36c-.93 0-1.68-.75-1.68-1.68V5.32c0-.93.75-1.68 1.68-1.68h3.36c.93 0 1.68.75 1.68 1.68v3.36c0 .93-.75 1.68-1.68 1.68Zm-10 10H5.32c-.93 0-1.68-.75-1.68-1.68v-3.36c0-.93.75-1.68 1.68-1.68h3.36c.93 0 1.68.75 1.68 1.68v3.36c0 .93-.75 1.68-1.68 1.68Zm10 0h-3.36c-.93 0-1.68-.75-1.68-1.68v-3.36c0-.93.75-1.68 1.68-1.68h3.36c.93 0 1.68.75 1.68 1.68v3.36c0 .93-.75 1.68-1.68 1.68Z"/></svg>