<svg xmlns="http://www.w3.org/2000/svg" width="24" height="24" fill="none" viewBox="0 0 24 24"><path fill="currentColor" fill-rule="evenodd" d="M11.25 5a.75.75 0 0 1 .75-.75h4a.75.75 0 0 1 0 1.5h-4a.75.75 0 0 1-.75-.75Z" clip-rule="evenodd"/><path fill="currentColor" fill-rule="evenodd" d="M17 3.75a.25.25 0 0 0-.25.25v2c0 .138.112.25.25.25h3a.25.25 0 0 0 .25-.25V4a.25.25 0 0 0-.25-.25h-3ZM15.25 4c0-.966.784-1.75 1.75-1.75h3c.966 0 1.75.784 1.75 1.75v2A1.75 1.75 0 0 1 20 7.75h-3A1.75 1.75 0 0 1 15.25 6V4Zm-4 8a.75.75 0 0 1 .75-.75h4a.75.75 0 0 1 0 1.5h-4a.75.75 0 0 1-.75-.75Z" clip-rule="evenodd"/><path fill="currentColor" fill-rule="evenodd" d="M17 10.75a.25.25 0 0 0-.25.25v2c0 .138.112.25.25.25h3a.25.25 0 0 0 .25-.25v-2a.25.25 0 0 0-.25-.25h-3Zm-1.75.25c0-.966.784-1.75 1.75-1.75h3c.966 0 1.75.784 1.75 1.75v2A1.75 1.75 0 0 1 20 14.75h-3A1.75 1.75 0 0 1 15.25 13v-2Zm-8-6A.75.75 0 0 1 8 4.25h4a.75.75 0 0 1 0 1.5H8A.75.75 0 0 1 7.25 5Z" clip-rule="evenodd"/><path fill="currentColor" fill-rule="evenodd" d="M4 2.75c-.69 0-1.25.56-1.25 1.25v2c0 .69.56 1.25 1.25 1.25h2c.69 0 1.25-.56 1.25-1.25V4c0-.69-.56-1.25-1.25-1.25H4ZM1.25 4A2.75 2.75 0 0 1 4 1.25h2A2.75 2.75 0 0 1 8.75 4v2A2.75 2.75 0 0 1 6 8.75H4A2.75 2.75 0 0 1 1.25 6V4ZM17 17.75a.25.25 0 0 0-.25.25v2c0 .138.112.25.25.25h3a.25.25 0 0 0 .25-.25v-2a.25.25 0 0 0-.25-.25h-3Zm-1.75.25c0-.966.784-1.75 1.75-1.75h3c.966 0 1.75.784 1.75 1.75v2A1.75 1.75 0 0 1 20 21.75h-3A1.75 1.75 0 0 1 15.25 20v-2Z" clip-rule="evenodd"/><path fill="currentColor" fill-rule="evenodd" d="M12 4.25a.75.75 0 0 1 .75.75v13c0 .138.112.25.25.25h3a.75.75 0 0 1 0 1.5h-3A1.75 1.75 0 0 1 11.25 18V5a.75.75 0 0 1 .75-.75Z" clip-rule="evenodd"/></svg>