<svg xmlns="http://www.w3.org/2000/svg" width="24" height="24" fill="none" viewBox="0 0 24 24"><path fill="currentColor" fill-rule="evenodd" d="M5.32 4.39a.927.927 0 0 0-.93.93v3.36c0 .516.414.93.93.93h3.36c.516 0 .93-.414.93-.93V5.32a.927.927 0 0 0-.93-.93H5.32Zm-2.43.93a2.427 2.427 0 0 1 2.43-2.43h3.36a2.427 2.427 0 0 1 2.43 2.43v3.36a2.427 2.427 0 0 1-2.43 2.43H5.32a2.427 2.427 0 0 1-2.43-2.43V5.32Zm12.43-.93a.927.927 0 0 0-.93.93v3.36c0 .516.414.93.93.93h3.36c.516 0 .93-.414.93-.93V5.32a.927.927 0 0 0-.93-.93h-3.36Zm-2.43.93a2.427 2.427 0 0 1 2.43-2.43h3.36a2.427 2.427 0 0 1 2.43 2.43v3.36a2.427 2.427 0 0 1-2.43 2.43h-3.36a2.427 2.427 0 0 1-2.43-2.43V5.32Zm-7.57 9.07a.927.927 0 0 0-.93.93v3.36c0 .516.414.93.93.93h3.36c.516 0 .93-.414.93-.93v-3.36a.927.927 0 0 0-.93-.93H5.32Zm-2.43.93a2.427 2.427 0 0 1 2.43-2.43h3.36a2.427 2.427 0 0 1 2.43 2.43v3.36a2.427 2.427 0 0 1-2.43 2.43H5.32a2.427 2.427 0 0 1-2.43-2.43v-3.36Zm12.43-.93a.927.927 0 0 0-.93.93v3.36c0 .516.414.93.93.93h3.36c.516 0 .93-.414.93-.93v-3.36a.927.927 0 0 0-.93-.93h-3.36Zm-2.43.93a2.427 2.427 0 0 1 2.43-2.43h3.36a2.427 2.427 0 0 1 2.43 2.43v3.36a2.427 2.427 0 0 1-2.43 2.43h-3.36a2.427 2.427 0 0 1-2.43-2.43v-3.36Z" clip-rule="evenodd"/></svg>