<svg xmlns="http://www.w3.org/2000/svg" width="24" height="24" fill="none" viewBox="0 0 24 24"><path fill="currentColor" fill-rule="evenodd" d="M11.82 3.094c.347.761.44 1.766.43 3.285-.01 1.529-.01 6.354-.006 10.894l4.909-8.394a2.75 2.75 0 0 0-1.012-3.778l-2.888-1.646a2.738 2.738 0 0 0-1.434-.36Z" clip-rule="evenodd"/><path fill="currentColor" d="m12.73 19.398 7.635-4.352a2.75 2.75 0 0 0 1.012-3.778l-1.654-2.829a2.744 2.744 0 0 0-.69-.786c-.047.68-.254 1.293-.47 1.773l-5.833 9.972Z"/><path fill="currentColor" fill-rule="evenodd" d="M2.246 17.502a4.252 4.252 0 0 0 8.503 0V4.997A2.75 2.75 0 0 0 8 2.247H4.996a2.75 2.75 0 0 0-2.75 2.75v12.505Zm4.252 1a1 1 0 1 0 0-2 1 1 0 0 0 0 2Z" clip-rule="evenodd"/></svg>