<svg xmlns="http://www.w3.org/2000/svg" width="24" height="24" fill="none" viewBox="0 0 24 24"><path fill="currentColor" fill-rule="evenodd" d="M18.428 9.196a1.251 1.251 0 0 0-1.472-.556.75.75 0 0 1-.47-1.424 2.751 2.751 0 0 1 3.237 1.223l1.654 2.829a2.75 2.75 0 0 1-1.012 3.778l-10.056 5.732a7.435 7.435 0 0 1-3.686.976l.001-1.5a5.936 5.936 0 0 0 2.942-.779l10.056-5.732a1.25 1.25 0 0 0 .46-1.718l-1.654-2.829Z" clip-rule="evenodd"/><path fill="currentColor" fill-rule="evenodd" d="M4.997 3.746c-.69 0-1.25.56-1.25 1.251v12.505a2.751 2.751 0 1 0 5.502 0V4.997c0-.69-.56-1.25-1.25-1.25H4.996Zm1.5 18.008a4.252 4.252 0 0 1-4.25-4.252V4.997a2.75 2.75 0 0 1 2.75-2.75h3.001a2.75 2.75 0 0 1 2.751 2.75v12.505a4.251 4.251 0 0 1-4.251 4.252Z" clip-rule="evenodd"/><path fill="currentColor" fill-rule="evenodd" d="M9.516 4.456a2.75 2.75 0 0 1 3.737-1.001L16.14 5.1a2.75 2.75 0 0 1 1.013 3.778L11.2 19.058a5.445 5.445 0 0 1-4.703 2.696l.001-1.5c1.402 0 2.7-.743 3.407-1.954l5.953-10.178a1.25 1.25 0 0 0-.46-1.718L12.51 4.758a1.25 1.25 0 0 0-1.699.455l-.165.281a.75.75 0 1 1-1.294-.757l.164-.281Z" clip-rule="evenodd"/><path fill="currentColor" d="M7.498 17.502a1 1 0 1 1-2 0 1 1 0 0 1 2 0Z"/></svg>