<svg xmlns="http://www.w3.org/2000/svg" width="24" height="24" fill="none" viewBox="0 0 24 24"><path fill="currentColor" fill-rule="evenodd" d="M12 3.75A8.25 8.25 0 0 0 3.75 12 8.25 8.25 0 0 0 12 20.25 8.25 8.25 0 0 0 20.25 12 8.25 8.25 0 0 0 12 3.75ZM2.25 12A9.75 9.75 0 0 1 12 2.25 9.75 9.75 0 0 1 21.75 12 9.75 9.75 0 0 1 12 21.75 9.75 9.75 0 0 1 2.25 12Z" clip-rule="evenodd"/><path fill="currentColor" fill-rule="evenodd" d="M16.53 9.47a.75.75 0 0 1 0 1.06l-5 5a.75.75 0 0 1-1.06 0l-3-3a.75.75 0 1 1 1.06-1.06L11 13.94l4.47-4.47a.75.75 0 0 1 1.06 0Z" clip-rule="evenodd"/></svg>