<svg xmlns="http://www.w3.org/2000/svg" width="24" height="24" fill="none" viewBox="0 0 24 24"><path fill="currentColor" fill-rule="evenodd" d="M6.248 8.998a2.75 2.75 0 0 1 2.75-2.75h10.006a2.75 2.75 0 0 1 2.75 2.75v10.006a2.75 2.75 0 0 1-2.75 2.75H8.998a2.75 2.75 0 0 1-2.75-2.75V8.998Zm2.75-1.25c-.69 0-1.25.56-1.25 1.25v10.006c0 .69.56 1.25 1.25 1.25h10.006c.69 0 1.25-.56 1.25-1.25V8.998c0-.69-.56-1.25-1.25-1.25H8.998Z" clip-rule="evenodd"/><path fill="currentColor" fill-rule="evenodd" d="M4.997 3.746c-.69 0-1.25.56-1.25 1.251v10.004c0 .691.56 1.251 1.25 1.251h2.001a.75.75 0 0 1 0 1.5h-2a2.75 2.75 0 0 1-2.752-2.75V4.996a2.75 2.75 0 0 1 2.751-2.75h10.004a2.75 2.75 0 0 1 2.751 2.75v2a.75.75 0 0 1-1.5 0v-2c0-.69-.56-1.25-1.25-1.25H4.996Z" clip-rule="evenodd"/></svg>