<svg xmlns="http://www.w3.org/2000/svg" width="24" height="24" fill="none" viewBox="0 0 24 24"><path fill="currentColor" fill-rule="evenodd" d="M4.748 17.741V8.998a4.25 4.25 0 0 1 4.25-4.25h8.743a2.751 2.751 0 0 0-2.74-2.502H4.997a2.75 2.75 0 0 0-2.75 2.751v10.004a2.751 2.751 0 0 0 2.501 2.74Z" clip-rule="evenodd"/><path fill="currentColor" fill-rule="evenodd" d="M6.248 8.998a2.75 2.75 0 0 1 2.75-2.75h10.006a2.75 2.75 0 0 1 2.75 2.75v10.006a2.75 2.75 0 0 1-2.75 2.75H8.998a2.75 2.75 0 0 1-2.75-2.75V8.998Z" clip-rule="evenodd"/></svg>