<svg xmlns="http://www.w3.org/2000/svg" width="24" height="24" fill="none" viewBox="0 0 24 24"><path fill="currentColor" fill-rule="evenodd" d="M8.248 2.996a.75.75 0 1 0-1.5 0v.75h-.752a3.75 3.75 0 0 0-3.75 3.75V8.75h19.508V7.497a3.75 3.75 0 0 0-3.75-3.75h-.752v-.75a.75.75 0 0 0-1.5 0v.75H8.248v-.75ZM2.246 18.004v-7.755h19.508v7.755a3.75 3.75 0 0 1-3.75 3.75H5.996a3.75 3.75 0 0 1-3.75-3.75Zm5.768-5.025a1 1 0 1 1-2 0 1 1 0 0 1 2 0Zm0 4a1 1 0 1 1-2 0 1 1 0 0 1 2 0Zm4-3a1 1 0 1 0 0-2 1 1 0 0 0 0 2Zm1 3a1 1 0 1 1-2 0 1 1 0 0 1 2 0Zm4-3a1 1 0 1 0 0-2 1 1 0 0 0 0 2Z" clip-rule="evenodd"/></svg>