<svg xmlns="http://www.w3.org/2000/svg" width="24" height="24" fill="none" viewBox="0 0 24 24"><path fill="currentColor" fill-rule="evenodd" d="M7.498 2.246a.75.75 0 0 1 .75.75v3.001a.75.75 0 0 1-1.5 0v-3a.75.75 0 0 1 .75-.75Zm9.004 0a.75.75 0 0 1 .75.75v3.001a.75.75 0 0 1-1.5 0v-3a.75.75 0 0 1 .75-.75ZM2.246 9.499a.75.75 0 0 1 .75-.75h18.008a.75.75 0 1 1 0 1.5H2.996a.75.75 0 0 1-.75-.75Z" clip-rule="evenodd"/><path fill="currentColor" fill-rule="evenodd" d="M2.246 7.497a3.75 3.75 0 0 1 3.75-3.75h12.008a3.75 3.75 0 0 1 3.75 3.75v10.507a3.75 3.75 0 0 1-3.75 3.75H5.996a3.75 3.75 0 0 1-3.75-3.75V7.497Zm3.75-2.25a2.25 2.25 0 0 0-2.25 2.25v10.507a2.25 2.25 0 0 0 2.25 2.25h12.008a2.25 2.25 0 0 0 2.25-2.25V7.497a2.25 2.25 0 0 0-2.25-2.25H5.996Z" clip-rule="evenodd"/><path fill="currentColor" d="M8.014 12.979a1 1 0 1 1-2 0 1 1 0 0 1 2 0Zm0 4a1 1 0 1 1-2 0 1 1 0 0 1 2 0Zm5-4a1 1 0 1 1-2 0 1 1 0 0 1 2 0Zm0 4a1 1 0 1 1-2 0 1 1 0 0 1 2 0Zm5-4a1 1 0 1 1-2 0 1 1 0 0 1 2 0Z"/></svg>