<svg xmlns="http://www.w3.org/2000/svg" width="24" height="24" fill="none" viewBox="0 0 24 24"><path fill="currentColor" fill-rule="evenodd" d="M9.886 2.25a2.75 2.75 0 0 0-2.575 1.785L6.48 6.25H4a.75.75 0 0 0 0 1.5h.27l.845 11.453a2.751 2.751 0 0 0 2.743 2.547h8.28a2.75 2.75 0 0 0 2.743-2.555l.817-11.445H20a.75.75 0 0 0 0-1.5h-2.48l-.83-2.215a2.75 2.75 0 0 0-2.576-1.785H9.886Zm6.032 4-.633-1.689a1.25 1.25 0 0 0-1.171-.811H9.886a1.25 1.25 0 0 0-1.17.811L8.081 6.25h7.836Zm-6.6 4.696a.75.75 0 1 0-1.496.108l.43 6a.75.75 0 1 0 1.496-.108l-.43-6Zm6.166-.694a.75.75 0 0 1 .694.802l-.43 6a.75.75 0 1 1-1.496-.108l.43-6a.75.75 0 0 1 .802-.694ZM12 10.25a.75.75 0 0 1 .75.75v6a.75.75 0 0 1-1.5 0v-6a.75.75 0 0 1 .75-.75Z" clip-rule="evenodd"/></svg>