<svg xmlns="http://www.w3.org/2000/svg" width="24" height="24" fill="none" viewBox="0 0 24 24"><path fill="currentColor" fill-rule="evenodd" d="M4.416 6.49a.75.75 0 0 1 .55-.24H19a.75.75 0 0 1 .748.803l-.867 12.142a2.75 2.75 0 0 1-2.743 2.555h-8.28a2.751 2.751 0 0 1-2.743-2.547L4.218 7.055a.75.75 0 0 1 .198-.565Zm11.722 13.76c.655 0 1.2-.507 1.247-1.161l.81-11.339H5.773l.838 11.341a1.251 1.251 0 0 0 1.247 1.159h8.28Z" clip-rule="evenodd"/><path fill="currentColor" fill-rule="evenodd" d="M12 10.25a.75.75 0 0 1 .75.75v6a.75.75 0 0 1-1.5 0v-6a.75.75 0 0 1 .75-.75ZM3.25 7A.75.75 0 0 1 4 6.25h16a.75.75 0 0 1 0 1.5H4A.75.75 0 0 1 3.25 7Z" clip-rule="evenodd"/><path fill="currentColor" fill-rule="evenodd" d="M7.31 4.035A2.75 2.75 0 0 1 9.887 2.25h4.228a2.75 2.75 0 0 1 2.575 1.785l1.013 2.702a.75.75 0 1 1-1.404.526l-1.013-2.702a1.25 1.25 0 0 0-1.171-.811H9.886a1.25 1.25 0 0 0-1.17.811L7.701 7.263a.75.75 0 0 1-1.404-.526L7.31 4.035Zm8.174 6.217a.75.75 0 0 1 .694.802l-.43 6a.75.75 0 1 1-1.496-.108l.43-6a.75.75 0 0 1 .802-.694Zm-6.968 0a.75.75 0 0 1 .802.694l.43 6a.75.75 0 1 1-1.496.108l-.43-6a.75.75 0 0 1 .694-.802Z" clip-rule="evenodd"/></svg>