<svg xmlns="http://www.w3.org/2000/svg" width="24" height="24" fill="none" viewBox="0 0 24 24"><path fill="currentColor" fill-rule="evenodd" d="m5.967 17.972-.004.004a.75.75 0 1 0 .004-.004Zm2.114-1.06a2.25 2.25 0 0 0-3.178.003l-.006.005a2.25 2.25 0 1 0 3.188-.005l-.004-.003Zm8.89 1.06-.003.004a.75.75 0 1 0 .003-.004Zm2.115-1.06a2.25 2.25 0 0 0-3.179.003l-.005.005a2.25 2.25 0 1 0 3.188-.005l-.004-.003Z" clip-rule="evenodd"/><path fill="currentColor" fill-rule="evenodd" d="M1.246 14.75v2.752c0 .967.784 1.75 1.75 1.75h2.001v-1.75H8v1.75h8.002v-1.75h2.997v1.75h2.005a1.75 1.75 0 0 0 1.75-1.75V13.75h-4.251c-.69 0-1.25-.56-1.25-1.25V9a.75.75 0 0 1 .75-.75h3.708l-.509-1.272a2.75 2.75 0 0 0-2.554-1.73h-2.897v8.754a.75.75 0 0 1-.75.75H1.246ZM14.25 3.248V13.25H1.246V4.997c0-.967.784-1.75 1.75-1.75h11.255Zm8.06 6.502h-3.558v2.501h4.001v-.865c0-.35-.067-.696-.197-1.021l-.246-.615Z" clip-rule="evenodd"/></svg>