<svg xmlns="http://www.w3.org/2000/svg" width="24" height="24" fill="none" viewBox="0 0 24 24"><path fill="currentColor" fill-rule="evenodd" d="M7.418 18.503a.75.75 0 0 1 .75-.75h7.834a.75.75 0 0 1 0 1.5H8.168a.75.75 0 0 1-.75-.75Zm6.833-12.506a.75.75 0 0 1 .75-.75h3.647a2.75 2.75 0 0 1 2.554 1.73l1.355 3.387c.13.325.197.671.197 1.021v6.117a1.75 1.75 0 0 1-1.75 1.75h-2.005a.75.75 0 0 1 0-1.5h2.005a.25.25 0 0 0 .25-.25v-6.117c0-.159-.03-.316-.09-.464L19.81 7.534a1.25 1.25 0 0 0-1.16-.787H15a.75.75 0 0 1-.75-.75Z" clip-rule="evenodd"/><path fill="currentColor" fill-rule="evenodd" d="M17.253 8.999a.75.75 0 0 1 .75-.75h3.2a.75.75 0 0 1 0 1.5h-2.45v2.501h3.251a.75.75 0 0 1 0 1.5h-3.501c-.69 0-1.25-.56-1.25-1.25V9ZM5.967 17.972l-.004.004a.75.75 0 1 0 1.061 0 .75.75 0 0 0-1.057-.004Zm2.114-1.06a2.25 2.25 0 0 0-3.178.003l-.006.005a2.25 2.25 0 1 0 3.188-.005l-.004-.004Zm8.89 1.06-.003.004a.75.75 0 1 0 1.061 0 .75.75 0 0 0-1.058-.004Zm2.115-1.06a2.25 2.25 0 0 0-3.179.003l-.005.005a2.25 2.25 0 1 0 3.188-.005l-.004-.004Z" clip-rule="evenodd"/><path fill="currentColor" fill-rule="evenodd" d="M2.996 4.747a.25.25 0 0 0-.25.25v12.505c0 .139.112.25.25.25h2.001a.75.75 0 0 1 0 1.5h-2a1.75 1.75 0 0 1-1.751-1.75V4.997c0-.967.784-1.75 1.75-1.75h11.005c.967 0 1.75.783 1.75 1.75v9.004a.75.75 0 0 1-1.5 0V4.997a.25.25 0 0 0-.25-.25H2.996Z" clip-rule="evenodd"/><path fill="currentColor" fill-rule="evenodd" d="M1.246 14a.75.75 0 0 1 .75-.75H15a.75.75 0 0 1 0 1.5H1.996a.75.75 0 0 1-.75-.75Z" clip-rule="evenodd"/></svg>