<svg xmlns="http://www.w3.org/2000/svg" width="24" height="24" fill="none" viewBox="0 0 24 24"><path fill="currentColor" fill-rule="evenodd" d="M4.25 5A2.75 2.75 0 0 1 7 2.25h7.172c.73 0 1.429.29 1.944.806l2.828 2.828a2.75 2.75 0 0 1 .806 1.944V19A2.75 2.75 0 0 1 17 21.75H7A2.75 2.75 0 0 1 4.25 19V5ZM7 3.75c-.69 0-1.25.56-1.25 1.25v14c0 .69.56 1.25 1.25 1.25h10c.69 0 1.25-.56 1.25-1.25V7.828c0-.33-.132-.65-.366-.884l-2.828-2.828a1.25 1.25 0 0 0-.884-.366H7Z" clip-rule="evenodd"/><path fill="currentColor" fill-rule="evenodd" d="M7.25 12.23a.75.75 0 0 1 .75-.75h8a.75.75 0 0 1 0 1.5H8a.75.75 0 0 1-.75-.75Zm0 3a.75.75 0 0 1 .75-.75h8a.75.75 0 0 1 0 1.5H8a.75.75 0 0 1-.75-.75Zm0 2.77a.75.75 0 0 1 .75-.75h5a.75.75 0 0 1 0 1.5H8a.75.75 0 0 1-.75-.75Zm1.5-11.25v1.5h1.5v-1.5h-1.5Zm-1.5-.001c0-.828.67-1.499 1.499-1.499h1.502c.828 0 1.499.67 1.499 1.499v1.502c0 .828-.67 1.499-1.499 1.499H8.749c-.828 0-1.499-.67-1.499-1.499V6.749Z" clip-rule="evenodd"/></svg>