<svg xmlns="http://www.w3.org/2000/svg" width="24" height="24" fill="none" viewBox="0 0 24 24"><path fill="currentColor" fill-rule="evenodd" d="M7 2.25A2.75 2.75 0 0 0 4.25 5v14A2.75 2.75 0 0 0 7 21.75h10A2.75 2.75 0 0 0 19.75 19V7.828c0-.73-.29-1.429-.806-1.944l-2.828-2.828a2.75 2.75 0 0 0-1.944-.806H7Zm1.749 3c-.828 0-1.499.67-1.499 1.499v1.502c0 .828.67 1.499 1.499 1.499h1.502c.828 0 1.499-.67 1.499-1.499V6.749c0-.828-.67-1.499-1.499-1.499H8.749ZM8 11.48a.75.75 0 0 0 0 1.5h8a.75.75 0 0 0 0-1.5H8Zm0 3a.75.75 0 0 0 0 1.5h8a.75.75 0 0 0 0-1.5H8ZM7.25 18a.75.75 0 0 1 .75-.75h5a.75.75 0 0 1 0 1.5H8a.75.75 0 0 1-.75-.75Z" clip-rule="evenodd"/></svg>