<svg xmlns="http://www.w3.org/2000/svg" width="24" height="24" fill="none" viewBox="0 0 24 24"><path fill="currentColor" d="M6.968 10.157a.75.75 0 0 1 1.06 0l1.221 1.22v-8.38a.75.75 0 1 1 1.5 0v8.38l1.22-1.22a.75.75 0 0 1 1.062 1.06l-2.502 2.502a.75.75 0 0 1-1.06 0l-2.501-2.501a.75.75 0 0 1 0-1.06Z"/><path fill="currentColor" fill-rule="evenodd" d="M12.25 6.248V8.45a2.25 2.25 0 0 1 1.842 3.827L11.59 14.78a2.25 2.25 0 0 1-3.182 0l-2.5-2.502a2.25 2.25 0 0 1 1.841-3.827V6.248H5.998a2.75 2.75 0 0 0-2.751 2.75v6.003a2.75 2.75 0 0 0 2.75 2.751h8.004a2.75 2.75 0 0 0 2.75-2.75V8.998a2.75 2.75 0 0 0-2.75-2.751h-1.752Z" clip-rule="evenodd"/><path fill="currentColor" fill-rule="evenodd" d="M7.26 19.252A2.751 2.751 0 0 0 10 21.754h8.003a2.75 2.75 0 0 0 2.75-2.751V12a2.751 2.751 0 0 0-2.501-2.74v5.741A4.25 4.25 0 0 1 14 19.252H7.26Z" clip-rule="evenodd"/></svg>