<svg xmlns="http://www.w3.org/2000/svg" width="24" height="24" fill="none" viewBox="0 0 24 24"><path fill="currentColor" fill-rule="evenodd" d="M12 2.25a.75.75 0 0 1 .75.75v14a.75.75 0 0 1-1.5 0V3a.75.75 0 0 1 .75-.75Z" clip-rule="evenodd"/><path fill="currentColor" fill-rule="evenodd" d="M3 16.25a.75.75 0 0 1 .75.75A3.25 3.25 0 0 0 7 20.25h10A3.25 3.25 0 0 0 20.25 17a.75.75 0 0 1 1.5 0A4.75 4.75 0 0 1 17 21.75H7A4.75 4.75 0 0 1 2.25 17a.75.75 0 0 1 .75-.75Z" clip-rule="evenodd"/><path fill="currentColor" fill-rule="evenodd" d="M6.469 11.47a.75.75 0 0 1 1.06 0L12 15.94l4.47-4.47a.75.75 0 0 1 1.061 1.06l-5 5.001a.75.75 0 0 1-1.061 0l-5-5a.75.75 0 0 1 0-1.061Z" clip-rule="evenodd"/></svg>