<svg xmlns="http://www.w3.org/2000/svg" width="24" height="24" fill="none" viewBox="0 0 24 24"><path fill="currentColor" fill-rule="evenodd" d="M15.252 10a.75.75 0 0 1 .75-.75h2A2.75 2.75 0 0 1 20.754 12v7.003a2.75 2.75 0 0 1-2.75 2.75H9.999a2.75 2.75 0 0 1-2.75-2.75v-2a.75.75 0 0 1 1.5 0v2c0 .69.56 1.25 1.25 1.25h8.004c.69 0 1.25-.56 1.25-1.25V12c0-.69-.56-1.25-1.25-1.25h-2.001a.75.75 0 0 1-.75-.75Z" clip-rule="evenodd"/><path fill="currentColor" fill-rule="evenodd" d="M6.968 10.157a.75.75 0 0 1 1.06 0L10 12.127l1.97-1.97a.75.75 0 0 1 1.062 1.06l-2.502 2.502a.75.75 0 0 1-1.06 0l-2.501-2.501a.75.75 0 0 1 0-1.06Z" clip-rule="evenodd"/><path fill="currentColor" fill-rule="evenodd" d="M10 2.246a.75.75 0 0 1 .75.75V13a.75.75 0 1 1-1.5 0V2.996a.75.75 0 0 1 .75-.75Z" clip-rule="evenodd"/><path fill="currentColor" fill-rule="evenodd" d="M5.998 7.748a1.25 1.25 0 0 0-1.251 1.25v6.003c0 .691.56 1.251 1.25 1.251h8.004c.69 0 1.25-.56 1.25-1.25V8.998a1.25 1.25 0 0 0-1.25-1.251h-1a.75.75 0 1 1 0-1.5h1a2.75 2.75 0 0 1 2.75 2.75V15a2.75 2.75 0 0 1-2.75 2.751H5.998a2.75 2.75 0 0 1-2.751-2.75V8.998a2.75 2.75 0 0 1 2.75-2.751h1.001a.75.75 0 1 1 0 1.5h-1Z" clip-rule="evenodd"/></svg>