<svg xmlns="http://www.w3.org/2000/svg" width="24" height="24" fill="none" viewBox="0 0 24 24"><path fill="currentColor" fill-rule="evenodd" d="M16.502 5.823a.25.25 0 0 0-.353 0L5.823 16.15l-.001.002a.245.245 0 0 0-.072.174v1.925h1.925a.245.245 0 0 0 .174-.072l.002-.001L18.178 7.852a.25.25 0 0 0 0-.353l-1.676-1.676Zm-1.413-1.06a1.75 1.75 0 0 1 2.473 0l1.676 1.676a1.75 1.75 0 0 1 0 2.473L8.913 19.236a1.75 1.75 0 0 1-1.238.514H5a.75.75 0 0 1-.75-.75v-2.675a1.745 1.745 0 0 1 .514-1.238L15.09 4.763Z" clip-rule="evenodd"/><path fill="currentColor" fill-rule="evenodd" d="M13.22 6.63a.75.75 0 0 1 1.06 0l3.09 3.09a.75.75 0 0 1-1.06 1.06l-3.09-3.09a.75.75 0 0 1 0-1.06Z" clip-rule="evenodd"/></svg>