<svg xmlns="http://www.w3.org/2000/svg" width="24" height="24" fill="none" viewBox="0 0 24 24"><path fill="currentColor" fill-rule="evenodd" d="M7.5 3.75A3.75 3.75 0 0 0 3.75 7.5v9.004a3.746 3.746 0 0 0 3.746 3.746h9.008a3.746 3.746 0 0 0 3.746-3.745V7.496a3.746 3.746 0 0 0-3.746-3.746H7.5Zm0-1.5h9.004a5.246 5.246 0 0 1 5.246 5.246v9.009a5.246 5.246 0 0 1-5.246 5.245H7.496a5.246 5.246 0 0 1-5.246-5.246V7.5c0-2.9 2.35-5.25 5.25-5.25Z" clip-rule="evenodd"/><path fill="currentColor" fill-rule="evenodd" d="M10.35 12.9a.75.75 0 0 1 .75-.75h5.4a.75.75 0 0 1 0 1.5h-5.4a.75.75 0 0 1-.75-.75Z" clip-rule="evenodd"/><path fill="currentColor" fill-rule="evenodd" d="M12.15 11.055a3.405 3.405 0 0 1 3.405-3.405h.945a.75.75 0 0 1 0 1.5h-.945a1.905 1.905 0 0 0-1.905 1.905V21a.75.75 0 0 1-1.5 0v-9.945Z" clip-rule="evenodd"/></svg>