<svg xmlns="http://www.w3.org/2000/svg" width="24" height="24" fill="none" viewBox="0 0 24 24"><path fill="currentColor" fill-rule="evenodd" d="M17.25 5a.75.75 0 0 1 .75-.75h3a.75.75 0 0 1 0 1.5h-3a.75.75 0 0 1-.75-.75Zm-15 0A.75.75 0 0 1 3 4.25h11a.75.75 0 0 1 0 1.5H3A.75.75 0 0 1 2.25 5Zm7 7a.75.75 0 0 1 .75-.75h11a.75.75 0 0 1 0 1.5H10a.75.75 0 0 1-.75-.75Zm-7 0a.75.75 0 0 1 .75-.75h3a.75.75 0 0 1 0 1.5H3a.75.75 0 0 1-.75-.75Zm15 7a.75.75 0 0 1 .75-.75h3a.75.75 0 0 1 0 1.5h-3a.75.75 0 0 1-.75-.75Zm-15 0a.75.75 0 0 1 .75-.75h11a.75.75 0 0 1 0 1.5H3a.75.75 0 0 1-.75-.75Z" clip-rule="evenodd"/><path fill="currentColor" fill-rule="evenodd" d="M17.944 3.055a2.75 2.75 0 1 0-3.89 3.889 2.75 2.75 0 0 0 3.89-3.889Zm-8 7a2.75 2.75 0 1 0-3.89 3.889 2.75 2.75 0 0 0 3.89-3.889Zm8 7a2.75 2.75 0 1 0-3.89 3.888 2.75 2.75 0 0 0 3.89-3.888Z" clip-rule="evenodd"/></svg>