<svg xmlns="http://www.w3.org/2000/svg" width="24" height="24" fill="none" viewBox="0 0 24 24"><path fill="currentColor" fill-rule="evenodd" d="M17.25 5a.75.75 0 0 1 .75-.75h3a.75.75 0 0 1 0 1.5h-3a.75.75 0 0 1-.75-.75Zm-15 0A.75.75 0 0 1 3 4.25h11a.75.75 0 0 1 0 1.5H3A.75.75 0 0 1 2.25 5Zm7 7a.75.75 0 0 1 .75-.75h11a.75.75 0 0 1 0 1.5H10a.75.75 0 0 1-.75-.75Zm-7 0a.75.75 0 0 1 .75-.75h3a.75.75 0 0 1 0 1.5H3a.75.75 0 0 1-.75-.75Zm15 7a.75.75 0 0 1 .75-.75h3a.75.75 0 0 1 0 1.5h-3a.75.75 0 0 1-.75-.75Zm-15 0a.75.75 0 0 1 .75-.75h11a.75.75 0 0 1 0 1.5H3a.75.75 0 0 1-.75-.75Z" clip-rule="evenodd"/><path fill="currentColor" fill-rule="evenodd" d="M16.884 4.116a1.25 1.25 0 1 0-1.768 1.768 1.25 1.25 0 0 0 1.768-1.768Zm1.06-1.061a2.75 2.75 0 1 0-3.89 3.89 2.75 2.75 0 0 0 3.89-3.89Zm-9.06 8.061a1.25 1.25 0 1 0-1.768 1.768 1.25 1.25 0 0 0 1.768-1.768Zm1.06-1.061a2.75 2.75 0 1 0-3.89 3.889 2.75 2.75 0 0 0 3.89-3.888v-.001Zm6.94 8.061a1.25 1.25 0 1 0-1.768 1.768 1.25 1.25 0 0 0 1.768-1.768Zm1.06-1.061a2.75 2.75 0 1 0-3.89 3.889 2.75 2.75 0 0 0 3.89-3.889Z" clip-rule="evenodd"/></svg>