<svg xmlns="http://www.w3.org/2000/svg" width="24" height="24" fill="none" viewBox="0 0 24 24"><path fill="currentColor" fill-rule="evenodd" d="M5 3.25A2.75 2.75 0 0 0 2.25 6v12.853c0 .997.768 1.813 1.745 1.891l2.859-9.533A2.75 2.75 0 0 1 9.488 9.25H19.75V9A2.75 2.75 0 0 0 17 6.25h-4.465a.251.251 0 0 1-.208-.111L10.921 4.03a1.75 1.75 0 0 0-1.456-.78H5Zm16.78 7.5H9.487a1.25 1.25 0 0 0-1.198.891L5.56 20.75h12.009a2.75 2.75 0 0 0 2.639-1.976l1.76-6a2.726 2.726 0 0 0-.188-2.024Z" clip-rule="evenodd"/></svg>