<svg xmlns="http://www.w3.org/2000/svg" width="24" height="24" fill="none" viewBox="0 0 24 24"><path fill="currentColor" fill-rule="evenodd" d="M2.25 6A2.75 2.75 0 0 1 5 3.25h4.465a1.75 1.75 0 0 1 1.456.78l1.406 2.109a.251.251 0 0 0 .208.111H17A2.75 2.75 0 0 1 19.75 9v.282a2.75 2.75 0 0 1 2.218 3.492l-1.761 6a2.75 2.75 0 0 1-2.639 1.976H4.147a1.896 1.896 0 0 1-1.897-1.897V6Zm3.758 13.25h11.56a1.25 1.25 0 0 0 1.2-.898l1.76-6a1.25 1.25 0 0 0-1.199-1.602H9.488a1.25 1.25 0 0 0-1.198.891L6.008 19.25Zm12.242-10V9c0-.69-.56-1.25-1.25-1.25h-4.465a1.75 1.75 0 0 1-1.456-.779L9.673 4.862a.25.25 0 0 0-.208-.112H5c-.69 0-1.25.56-1.25 1.25v12.853a.396.396 0 0 0 .776.115l2.328-7.757A2.75 2.75 0 0 1 9.488 9.25h8.762Z" clip-rule="evenodd"/></svg>