<svg xmlns="http://www.w3.org/2000/svg" width="24" height="24" fill="none" viewBox="0 0 24 24"><path fill="currentColor" d="M12 19.75c.948 0 1.883-.2 2.775-.546a.75.75 0 0 0 .428-.97L5.408 8.351a.75.75 0 0 0-1.057.083 15.884 15.884 0 0 0-1.893 2.742 1.74 1.74 0 0 0 0 1.649c.992 1.834 2.404 3.55 4.041 4.815 1.633 1.261 3.538 2.11 5.5 2.11Z"/><path fill="currentColor" fill-rule="evenodd" d="M4.47 4.47a.75.75 0 0 0 0 1.06l14 14a.75.75 0 1 0 1.06-1.06l-14-14a.75.75 0 0 0-1.06 0Z" clip-rule="evenodd"/><path fill="currentColor" d="M12 4.25c1.963 0 3.868.849 5.5 2.11 1.637 1.266 3.05 2.983 4.042 4.817a1.738 1.738 0 0 1 0 1.648c-.992 1.833-2.404 3.548-4.04 4.813-.327.254-1.051-.134-1.051-.134l-2.686-2.686a.75.75 0 0 0 .992-.06 3.9 3.9 0 0 0-5.515-5.516.75.75 0 0 0-.063.99L6.363 7.415s-.194-.799.134-1.052C8.13 5.1 10.036 4.25 12 4.25Z"/></svg>