<svg xmlns="http://www.w3.org/2000/svg" width="24" height="24" fill="none" viewBox="0 0 24 24"><path stroke="currentColor" stroke-linecap="round" stroke-linejoin="round" stroke-width="1.5" d="M12 19c.842 0 1.685-.178 2.504-.495M3.118 12.468C5.01 15.967 8.505 19 12 19M4.921 8.921a15.135 15.135 0 0 0-1.803 2.612.987.987 0 0 0 0 .935M19 19 5 5m9.227 9.227a3.15 3.15 0 0 0-4.455-4.455"/><path stroke="currentColor" stroke-linecap="round" stroke-linejoin="round" stroke-width="1.5" d="M6.956 6.956C8.503 5.759 10.252 5 12 5c3.495 0 6.99 3.033 8.882 6.533a.987.987 0 0 1 0 .935c-.946 1.749-2.292 3.381-3.838 4.577"/></svg>