<svg xmlns="http://www.w3.org/2000/svg" width="24" height="24" fill="none" viewBox="0 0 24 24"><path fill="currentColor" fill-rule="evenodd" d="M6.24 2.61a3.63 3.63 0 0 0-3.63 3.63v11.52c0 .477.092.933.26 1.35l5.04-5.041a1.709 1.709 0 0 1 2.42 0l.71.71 3.59-3.59a1.709 1.709 0 0 1 2.42 0l4.34 4.34V6.24a3.63 3.63 0 0 0-3.63-3.63H6.24Zm15.15 15.04-5.402-5.4a.209.209 0 0 0-.296-.002l-3.591 3.592 5.55 5.55h.11a3.63 3.63 0 0 0 3.63-3.63v-.11Zm-5.86 3.74-5.017-5.017-.003-.003-.003-.003-1.239-1.238a.209.209 0 0 0-.296 0l-5.248 5.248A3.618 3.618 0 0 0 6.24 21.39h9.29ZM9.904 8.335a1.11 1.11 0 1 0-1.57 1.57 1.11 1.11 0 0 0 1.57-1.57Z" clip-rule="evenodd"/></svg>