<svg xmlns="http://www.w3.org/2000/svg" width="24" height="24" fill="none" viewBox="0 0 24 24"><path fill="currentColor" fill-rule="evenodd" d="M6.24 4.11a2.13 2.13 0 0 0-2.13 2.13v11.52a2.13 2.13 0 0 0 2.13 2.13h11.52a2.13 2.13 0 0 0 2.13-2.13V6.24a2.13 2.13 0 0 0-2.13-2.13H6.24ZM2.61 6.24a3.63 3.63 0 0 1 3.63-3.63h11.52a3.63 3.63 0 0 1 3.63 3.63v11.52a3.63 3.63 0 0 1-3.63 3.63H6.24a3.63 3.63 0 0 1-3.63-3.63V6.24Z" clip-rule="evenodd"/><path fill="currentColor" fill-rule="evenodd" d="M14.63 11.189a1.709 1.709 0 0 1 2.419 0l4.121 4.12a.75.75 0 1 1-1.06 1.061l-4.122-4.121a.209.209 0 0 0-.296 0L11.57 16.37a.75.75 0 1 1-1.06-1.06l4.12-4.121Z" clip-rule="evenodd"/><path fill="currentColor" fill-rule="evenodd" d="M7.91 14.069a1.709 1.709 0 0 1 2.419 0l6.041 6.04a.75.75 0 0 1-1.06 1.061l-6.042-6.04a.209.209 0 0 0-.296 0l-4.654 4.653a.75.75 0 1 1-1.06-1.06l4.653-4.653Zm.425-5.734a1.11 1.11 0 1 1 1.57 1.57 1.11 1.11 0 0 1-1.57-1.57Z" clip-rule="evenodd"/></svg>