<svg xmlns="http://www.w3.org/2000/svg" width="24" height="24" fill="none" viewBox="0 0 24 24"><path fill="currentColor" fill-rule="evenodd" d="M6 7.75c-.69 0-1.25.56-1.25 1.25v10c0 .69.56 1.25 1.25 1.25h8c.69 0 1.25-.56 1.25-1.25V9c0-.69-.56-1.25-1.25-1.25H6ZM3.25 9A2.75 2.75 0 0 1 6 6.25h8A2.75 2.75 0 0 1 16.75 9v10A2.75 2.75 0 0 1 14 21.75H6A2.75 2.75 0 0 1 3.25 19V9Z" clip-rule="evenodd"/><path fill="currentColor" fill-rule="evenodd" d="M7.25 5A2.75 2.75 0 0 1 10 2.25h8A2.75 2.75 0 0 1 20.75 5v10A2.75 2.75 0 0 1 18 17.75h-2a.75.75 0 0 1 0-1.5h2c.69 0 1.25-.56 1.25-1.25V5c0-.69-.56-1.25-1.25-1.25h-8c-.69 0-1.25.56-1.25 1.25v2a.75.75 0 0 1-1.5 0V5Z" clip-rule="evenodd"/><path fill="currentColor" fill-rule="evenodd" d="M7.25 12a.75.75 0 0 1 .75-.75h4a.75.75 0 0 1 0 1.5H8a.75.75 0 0 1-.75-.75Zm0 4a.75.75 0 0 1 .75-.75h4a.75.75 0 0 1 0 1.5H8a.75.75 0 0 1-.75-.75Z" clip-rule="evenodd"/></svg>