<svg xmlns="http://www.w3.org/2000/svg" width="24" height="24" fill="none" viewBox="0 0 24 24"><path fill="currentColor" fill-rule="evenodd" d="M12 3.75A8.25 8.25 0 0 0 3.75 12 8.25 8.25 0 0 0 12 20.25 8.25 8.25 0 0 0 20.25 12 8.25 8.25 0 0 0 12 3.75ZM2.25 12A9.75 9.75 0 0 1 12 2.25 9.75 9.75 0 0 1 21.75 12 9.75 9.75 0 0 1 12 21.75 9.75 9.75 0 0 1 2.25 12Z" clip-rule="evenodd"/><path fill="currentColor" fill-rule="evenodd" d="M10.5 11.75a.75.75 0 0 1 .75-.75h1a.75.75 0 0 1 .75.75v5a.75.75 0 0 1-1.5 0V12.5h-.25a.75.75 0 0 1-.75-.75Zm.5-3.747a1 1 0 1 1 2-.005 1 1 0 0 1-2 .005Z" clip-rule="evenodd"/></svg>