<svg xmlns="http://www.w3.org/2000/svg" width="24" height="24" fill="none" viewBox="0 0 24 24"><path fill="currentColor" fill-rule="evenodd" d="M6 6.25A2.75 2.75 0 0 0 3.25 9v10A2.75 2.75 0 0 0 6 21.75h8A2.75 2.75 0 0 0 16.75 19V8.999A2.75 2.75 0 0 0 14 6.249H7.25v.001H6Zm1.261-1.501h6.74a4.25 4.25 0 0 1 4.25 4.25v8.74A2.75 2.75 0 0 0 20.75 15V5A2.75 2.75 0 0 0 18 2.25h-8a2.75 2.75 0 0 0-2.739 2.499ZM7.25 12a.75.75 0 0 1 .75-.75h4a.75.75 0 0 1 0 1.5H8a.75.75 0 0 1-.75-.75Zm0 4a.75.75 0 0 1 .75-.75h4a.75.75 0 0 1 0 1.5H8a.75.75 0 0 1-.75-.75Z" clip-rule="evenodd"/></svg>