<svg xmlns="http://www.w3.org/2000/svg" width="24" height="24" fill="none" viewBox="0 0 24 24"><path fill="currentColor" fill-rule="evenodd" d="M4 8.75a.25.25 0 0 0-.25.25v6c0 .138.112.25.25.25h16a.25.25 0 0 0 .25-.25V9a.25.25 0 0 0-.25-.25H4ZM2.25 9c0-.966.784-1.75 1.75-1.75h16c.966 0 1.75.784 1.75 1.75v6A1.75 1.75 0 0 1 20 16.75H4A1.75 1.75 0 0 1 2.25 15V9ZM8 17.25a.75.75 0 0 1 .75.75c0 .69.56 1.25 1.25 1.25h1a.75.75 0 0 1 0 1.5h-1a2.742 2.742 0 0 1-2-.862 2.742 2.742 0 0 1-2 .862H5a.75.75 0 0 1 0-1.5h1c.69 0 1.25-.56 1.25-1.25a.75.75 0 0 1 .75-.75Z" clip-rule="evenodd"/><path fill="currentColor" fill-rule="evenodd" d="M8 5.25a.75.75 0 0 1 .75.75v12a.75.75 0 0 1-1.5 0V6A.75.75 0 0 1 8 5.25Z" clip-rule="evenodd"/><path fill="currentColor" fill-rule="evenodd" d="M4.25 4A.75.75 0 0 1 5 3.25h1c.788 0 1.499.331 2 .862a2.742 2.742 0 0 1 2-.862h1a.75.75 0 0 1 0 1.5h-1c-.69 0-1.25.56-1.25 1.25a.75.75 0 0 1-1.5 0c0-.69-.56-1.25-1.25-1.25H5A.75.75 0 0 1 4.25 4Z" clip-rule="evenodd"/></svg>