<svg xmlns="http://www.w3.org/2000/svg" width="24" height="24" fill="none" viewBox="0 0 24 24"><path fill="currentColor" fill-rule="evenodd" d="M6 3.75c-.69 0-1.25.56-1.25 1.25v14c0 .69.56 1.25 1.25 1.25h12c.69 0 1.25-.56 1.25-1.25V5c0-.69-.56-1.25-1.25-1.25H6ZM3.25 5A2.75 2.75 0 0 1 6 2.25h12A2.75 2.75 0 0 1 20.75 5v14A2.75 2.75 0 0 1 18 21.75H6A2.75 2.75 0 0 1 3.25 19V5Z" clip-rule="evenodd"/><path fill="currentColor" fill-rule="evenodd" d="M16 2.25a.75.75 0 0 1 .75.75v18a.75.75 0 0 1-1.5 0V3a.75.75 0 0 1 .75-.75Zm-8 0a.75.75 0 0 1 .75.75v4.786l.915-.457a.75.75 0 0 1 .67 0l.915.457V3a.75.75 0 0 1 1.5 0v6a.75.75 0 0 1-1.085.67L10 8.84l-1.665.832A.75.75 0 0 1 7.25 9V3A.75.75 0 0 1 8 2.25Z" clip-rule="evenodd"/></svg>