<svg xmlns="http://www.w3.org/2000/svg" width="24" height="24" fill="none" viewBox="0 0 24 24"><path fill="currentColor" fill-rule="evenodd" d="M13.299 20.849c0 .414-.49.905-.905.905H7.998a5.752 5.752 0 0 1-5.752-5.752V7.998a5.752 5.752 0 0 1 5.752-5.752h8.004a5.752 5.752 0 0 1 5.752 5.752v3.908a.75.75 0 0 1-.75.75l-.02.021-2.82-.88a2.221 2.221 0 0 0-1.324 0l-3.587 1.12a2.22 2.22 0 0 0-1.558 2.12v1.352c0 1.666.59 3.232 1.604 4.46Zm-3.03-12.405a.75.75 0 0 0-1.003-1.115L7.917 8.544 7.5 8.167a.75.75 0 0 0-1.004 1.115l.92.828a.75.75 0 0 0 1.003 0l1.85-1.666ZM13 8.249a.75.75 0 1 0 0 1.5h4.002a.75.75 0 0 0 0-1.5H13Zm-2.675 4.137a.75.75 0 0 1-.055 1.06l-1.85 1.666a.75.75 0 0 1-1.005 0l-.92-.828A.75.75 0 1 1 7.5 13.169l.417.377 1.35-1.215a.75.75 0 0 1 1.058.056Z" clip-rule="evenodd"/><path fill="currentColor" fill-rule="evenodd" d="m17.987 13.325 2.626.82c.679.213 1.14.841 1.14 1.552v.99a5.127 5.127 0 0 1-3.326 4.8l-.508.191c-.268.1-.565.1-.834 0l-.508-.19a5.127 5.127 0 0 1-3.326-4.8v-.991c0-.711.462-1.34 1.14-1.551l2.626-.821c.316-.099.655-.099.97 0Z" clip-rule="evenodd"/></svg>