<svg xmlns="http://www.w3.org/2000/svg" width="24" height="24" fill="none" viewBox="0 0 24 24"><path fill="currentColor" fill-rule="evenodd" d="M13.125 2.663a1.739 1.739 0 0 0-2.25 0 10.527 10.527 0 0 1-6.034 2.51c-.92.072-1.591.852-1.591 1.739v4.33c0 4.715 3.39 9.096 8.024 10.407.472.133.98.133 1.453 0 4.632-1.312 8.023-5.691 8.023-10.406v-4.33c0-.887-.671-1.668-1.591-1.74a10.52 10.52 0 0 1-6.034-2.51Zm2.724 8.21a.75.75 0 0 0-1.06-1.061l-3.618 3.617-1.959-1.958a.75.75 0 0 0-1.06 1.06l2.489 2.49a.75.75 0 0 0 1.06 0l4.148-4.149Z" clip-rule="evenodd"/></svg>