<svg xmlns="http://www.w3.org/2000/svg" width="24" height="24" fill="none" viewBox="0 0 24 24"><path fill="currentColor" fill-rule="evenodd" d="M12.25 8.999a.75.75 0 0 1 .75-.75h4.002a.75.75 0 0 1 0 1.5H13a.75.75 0 0 1-.75-.75Z" clip-rule="evenodd"/><path fill="currentColor" fill-rule="evenodd" d="M7.998 3.746a4.252 4.252 0 0 0-4.252 4.252v8.004a4.252 4.252 0 0 0 4.252 4.252h4.396a.75.75 0 0 1 0 1.5H7.998a5.752 5.752 0 0 1-5.752-5.752V7.998a5.752 5.752 0 0 1 5.752-5.752h8.004a5.752 5.752 0 0 1 5.752 5.752v3.908a.75.75 0 0 1-1.5 0V7.998a4.252 4.252 0 0 0-4.252-4.252H7.998Z" clip-rule="evenodd"/><path fill="currentColor" fill-rule="evenodd" d="M10.325 7.384a.75.75 0 0 1-.055 1.06L8.42 10.11a.75.75 0 0 1-1.005 0l-.92-.828A.75.75 0 1 1 7.5 8.167l.417.377 1.35-1.215a.75.75 0 0 1 1.058.055Zm0 5.002a.75.75 0 0 1-.055 1.06l-1.85 1.666a.75.75 0 0 1-1.005 0l-.92-.828A.75.75 0 0 1 7.5 13.169l.417.377 1.35-1.215a.75.75 0 0 1 1.058.055Zm7.662.939 2.626.82c.679.213 1.14.841 1.14 1.552v.99a5.127 5.127 0 0 1-3.326 4.8l-.508.191c-.268.1-.565.1-.834 0l-.508-.19a5.127 5.127 0 0 1-3.326-4.8v-.991c0-.711.462-1.34 1.14-1.551l2.626-.821c.316-.099.655-.099.97 0Zm-.447 1.432a.124.124 0 0 0-.075 0l-2.626.82a.125.125 0 0 0-.088.12v.99c0 1.512.938 2.865 2.353 3.396l.398.15.398-.15a3.627 3.627 0 0 0 2.354-3.396v-.99a.125.125 0 0 0-.088-.12l-2.626-.82Z" clip-rule="evenodd"/></svg>