<svg xmlns="http://www.w3.org/2000/svg" width="24" height="24" fill="none" viewBox="0 0 24 24"><path fill="currentColor" fill-rule="evenodd" d="M10.875 2.664a1.739 1.739 0 0 1 2.25 0 10.52 10.52 0 0 0 6.034 2.51c.92.071 1.591.852 1.591 1.739v4.33c0 4.715-3.39 9.094-8.023 10.406a2.683 2.683 0 0 1-1.453 0C6.64 20.338 3.25 15.957 3.25 11.242v-4.33c0-.887.672-1.667 1.591-1.739a10.527 10.527 0 0 0 6.034-2.51Zm1.274 1.139a.24.24 0 0 0-.297-.001 12.027 12.027 0 0 1-6.893 2.867.239.239 0 0 0-.209.243v4.33c0 4.02 2.921 7.828 6.932 8.963.206.059.431.059.637 0 4.01-1.136 6.931-4.943 6.931-8.962v-4.33a.238.238 0 0 0-.208-.244 12.026 12.026 0 0 1-6.893-2.866Z" clip-rule="evenodd"/><path fill="currentColor" fill-rule="evenodd" d="M15.85 9.812a.75.75 0 0 1 0 1.06L11.7 15.02a.75.75 0 0 1-1.06 0l-2.49-2.489a.75.75 0 0 1 1.061-1.06l1.959 1.958 3.618-3.617a.75.75 0 0 1 1.06 0Z" clip-rule="evenodd"/></svg>