<svg xmlns="http://www.w3.org/2000/svg" width="24" height="24" fill="none" viewBox="0 0 24 24"><path fill="currentColor" fill-rule="evenodd" d="M14.521 2.985a2.749 2.749 0 0 0-3.02.587L8.56 6.515a2.75 2.75 0 0 0-.586 3.02l.659 1.552-5.666 5.667a.75.75 0 0 0-.22.53v3.182c0 .414.336.75.75.75h3.182a.75.75 0 0 0 .53-.22l1.326-1.326a.75.75 0 0 0 .22-.53v-1.018h.332l.332.001a.75.75 0 0 0 .75-.75v-.664h1.018a.75.75 0 0 0 .53-.22l1.144-1.143 1.606.682a2.749 2.749 0 0 0 3.02-.587l2.942-2.943a2.752 2.752 0 0 0 .587-3.02l-1.501-3.535a2.75 2.75 0 0 0-1.457-1.456l-3.536-1.502Zm-.143 7.592a1.25 1.25 0 1 0 0-2.5 1.25 1.25 0 0 0 0 2.5Z" clip-rule="evenodd"/></svg>