<svg xmlns="http://www.w3.org/2000/svg" width="24" height="24" fill="none" viewBox="0 0 24 24"><path fill="currentColor" fill-rule="evenodd" d="M11.502 3.572a2.749 2.749 0 0 1 3.02-.587l3.535 1.502a2.75 2.75 0 0 1 1.457 1.456l1.501 3.536a2.752 2.752 0 0 1-.587 3.02l-2.942 2.942a2.749 2.749 0 0 1-3.02.587l-1.606-.682-1.144 1.143a.75.75 0 0 1-.53.22h-1.018v.664a.75.75 0 0 1-.75.75l-.664-.001v1.018a.75.75 0 0 1-.22.53l-1.326 1.326a.75.75 0 0 1-.53.22H3.496a.75.75 0 0 1-.75-.75v-3.182a.75.75 0 0 1 .22-.53l5.666-5.667-.66-1.553a2.75 2.75 0 0 1 .587-3.02l2.943-2.942Zm-2.834 13.05h-.664a.75.75 0 0 0-.75.75v1.457l-.887.887H4.246v-2.121l5.804-5.805a.75.75 0 0 0 .16-.823l-.857-2.02a1.25 1.25 0 0 1 .266-1.372l2.943-2.943a1.249 1.249 0 0 1 1.373-.267l3.535 1.502c.3.128.537.365.662.661l1.502 3.537a1.25 1.25 0 0 1-.266 1.373l-2.943 2.943a1.25 1.25 0 0 1-1.373.267l-2.072-.88a.75.75 0 0 0-.823.16l-1.282 1.281H9.418a.75.75 0 0 0-.75.75v.663Z" clip-rule="evenodd"/><circle cx="14.377" cy="9.327" r="1.25" fill="currentColor"/></svg>