<svg xmlns="http://www.w3.org/2000/svg" width="24" height="24" fill="none" viewBox="0 0 24 24"><path fill="currentColor" fill-rule="evenodd" d="M4.25 5A2.75 2.75 0 0 1 7 2.25h7.172c.73 0 1.429.29 1.944.806l2.828 2.828a2.75 2.75 0 0 1 .806 1.944V19A2.75 2.75 0 0 1 17 21.75H7A2.75 2.75 0 0 1 4.25 19V5ZM7 3.75c-.69 0-1.25.56-1.25 1.25v14c0 .69.56 1.25 1.25 1.25h10c.69 0 1.25-.56 1.25-1.25V7.828c0-.33-.132-.65-.366-.884l-2.828-2.828a1.25 1.25 0 0 0-.884-.366H7Z" clip-rule="evenodd"/><path fill="currentColor" fill-rule="evenodd" d="M14 2.25a.75.75 0 0 1 .75.75v4c0 .138.112.25.25.25h4a.75.75 0 0 1 0 1.5h-4A1.75 1.75 0 0 1 13.25 7V3a.75.75 0 0 1 .75-.75Zm-3.5 8.87a.75.75 0 0 1 .75-.75H16a.75.75 0 0 1 0 1.5h-4.75a.75.75 0 0 1-.75-.75Zm0 2.88a.75.75 0 0 1 .75-.75H16a.75.75 0 0 1 0 1.5h-4.75a.75.75 0 0 1-.75-.75Zm0 2.88a.75.75 0 0 1 .75-.75H16a.75.75 0 0 1 0 1.5h-4.75a.75.75 0 0 1-.75-.75Zm-3.25-5.755a.875.875 0 1 1 1.75 0 .875.875 0 0 1-1.75 0Zm0 2.875A.875.875 0 1 1 9 14a.875.875 0 0 1-1.75 0Zm0 2.875a.875.875 0 1 1 1.75 0 .875.875 0 0 1-1.75 0Z" clip-rule="evenodd"/></svg>