<svg xmlns="http://www.w3.org/2000/svg" width="24" height="24" fill="none" viewBox="0 0 24 24"><path fill="currentColor" fill-rule="evenodd" d="M13.25 2.25H7A2.75 2.75 0 0 0 4.25 5v14A2.75 2.75 0 0 0 7 21.75h10A2.75 2.75 0 0 0 19.75 19V8.75H15A1.75 1.75 0 0 1 13.25 7V2.25Zm6.439 5H15a.25.25 0 0 1-.25-.25V2.312c.514.11.99.367 1.366.744l2.828 2.828c.377.377.634.852.745 1.366ZM10.5 11.12a.75.75 0 0 1 .75-.75H16a.75.75 0 0 1 0 1.5h-4.75a.75.75 0 0 1-.75-.75Zm.75 2.13a.75.75 0 0 0 0 1.5H16a.75.75 0 0 0 0-1.5h-4.75Zm-.75 3.63a.75.75 0 0 1 .75-.75H16a.75.75 0 0 1 0 1.5h-4.75a.75.75 0 0 1-.75-.75Zm-2.375-6.63a.875.875 0 1 0 0 1.75.875.875 0 0 0 0-1.75ZM7.25 14A.875.875 0 1 1 9 14a.875.875 0 0 1-1.75 0Zm.875 2a.875.875 0 1 0 0 1.75.875.875 0 0 0 0-1.75Z" clip-rule="evenodd"/></svg>