<svg xmlns="http://www.w3.org/2000/svg" width="24" height="24" fill="none" viewBox="0 0 24 24"><path fill="currentColor" fill-rule="evenodd" d="M12 15.933a.75.75 0 0 1 .75.75V19.5a.75.75 0 0 1-1.5 0v-2.817a.75.75 0 0 1 .75-.75Zm-2.786-1.147a.75.75 0 0 1 0 1.061L7.23 17.83a.75.75 0 0 1-1.06-1.06l1.983-1.984a.75.75 0 0 1 1.06 0ZM3.75 12a.75.75 0 0 1 .75-.75h2.817a.75.75 0 0 1 0 1.5H4.5a.75.75 0 0 1-.75-.75Zm2.42-5.83a.75.75 0 0 1 1.06 0l1.984 1.983a.75.75 0 1 1-1.061 1.06L6.17 7.23a.75.75 0 0 1 0-1.06ZM12 3.75a.75.75 0 0 1 .75.75V7a.75.75 0 0 1-1.5 0V4.5a.75.75 0 0 1 .75-.75Zm5.83 2.42a.75.75 0 0 1 0 1.06l-1.325 1.325a.75.75 0 1 1-1.06-1.06L16.77 6.17a.75.75 0 0 1 1.06 0ZM17.5 12a.75.75 0 0 1 .75-.75h1.25a.75.75 0 0 1 0 1.5h-1.25a.75.75 0 0 1-.75-.75Zm-1.172 4.328a.75.75 0 0 1 1.06 0l.442.442a.75.75 0 0 1-1.06 1.06l-.442-.441a.75.75 0 0 1 0-1.061Z" clip-rule="evenodd"/></svg>