<svg xmlns="http://www.w3.org/2000/svg" width="24" height="24" fill="none" viewBox="0 0 24 24"><path fill="currentColor" fill-rule="evenodd" d="M2 20a2 2 0 0 0 2 2h16a2 2 0 0 0 2-2V4a2 2 0 0 0-2-2H4a2 2 0 0 0-2 2v16ZM12 3.75a.75.75 0 0 1 .75.75V7a.75.75 0 0 1-1.5 0V4.5a.75.75 0 0 1 .75-.75ZM7.23 6.17a.75.75 0 0 0-1.06 1.06l1.983 1.984a.75.75 0 0 0 1.06-1.061L7.23 6.17ZM3.75 12a.75.75 0 0 1 .75-.75h2.817a.75.75 0 0 1 0 1.5H4.5a.75.75 0 0 1-.75-.75Zm5.464 3.847a.75.75 0 0 0-1.061-1.06L6.17 16.77a.75.75 0 1 0 1.06 1.06l1.984-1.983Zm3.536.836a.75.75 0 0 0-1.5 0V19.5a.75.75 0 0 0 1.5 0v-2.817Zm5.08-9.453a.75.75 0 0 0-1.06-1.06l-1.325 1.325a.75.75 0 0 0 1.06 1.06L17.83 7.23ZM17.5 12a.75.75 0 0 1 .75-.75h1.25a.75.75 0 0 1 0 1.5h-1.25a.75.75 0 0 1-.75-.75Zm-.111 4.328a.75.75 0 1 0-1.061 1.06l.442.442a.75.75 0 0 0 1.06-1.06l-.441-.442Z" clip-rule="evenodd"/></svg>