<svg xmlns="http://www.w3.org/2000/svg" width="24" height="24" fill="none" viewBox="0 0 24 24"><path fill="currentColor" fill-rule="evenodd" d="M12 7.75a2.25 2.25 0 1 0 0 4.5 2.25 2.25 0 0 0 0-4.5ZM8.25 10a3.75 3.75 0 1 1 7.5 0 3.75 3.75 0 0 1-7.5 0Z" clip-rule="evenodd"/><path fill="currentColor" fill-rule="evenodd" d="m11.205 21.307.232.2c.527.446.646.406 1.126 0 .054-.046.133-.113.232-.2a31.296 31.296 0 0 0 3.28-3.357c1.762-2.108 3.675-5.038 3.675-7.95a7.75 7.75 0 0 0-15.5 0c0 2.912 1.913 5.842 3.675 7.95a31.297 31.297 0 0 0 3.28 3.357ZM12 3.75A6.25 6.25 0 0 0 5.75 10c0 2.338 1.587 4.908 3.325 6.988A29.786 29.786 0 0 0 12 20.008c.16-.145.357-.323.578-.533a29.784 29.784 0 0 0 2.347-2.487c1.738-2.08 3.325-4.65 3.325-6.988A6.25 6.25 0 0 0 12 3.75Z" clip-rule="evenodd"/></svg>