<svg xmlns="http://www.w3.org/2000/svg" width="24" height="24" fill="none" viewBox="0 0 24 24"><path fill="currentColor" fill-rule="evenodd" d="M7 8.267A2.732 2.732 0 0 0 4.267 11v8A2.732 2.732 0 0 0 7 21.733h10A2.732 2.732 0 0 0 19.733 19v-8A2.732 2.732 0 0 0 17 8.267H7Zm5 7.983a1.25 1.25 0 1 0 0-2.5 1.25 1.25 0 0 0 0 2.5Z" clip-rule="evenodd"/><path fill="currentColor" fill-rule="evenodd" d="M7.298 7a4.702 4.702 0 0 1 9.404 0v2a.702.702 0 0 1-1.404 0V7a3.299 3.299 0 0 0-6.596 0v2a.702.702 0 1 1-1.404 0V7Z" clip-rule="evenodd"/></svg>