<svg xmlns="http://www.w3.org/2000/svg" width="24" height="24" fill="none" viewBox="0 0 24 24"><path fill="currentColor" fill-rule="evenodd" d="M7 9.733c-.7 0-1.267.567-1.267 1.267v8c0 .7.567 1.267 1.267 1.267h10c.7 0 1.267-.567 1.267-1.267v-8c0-.7-.567-1.267-1.267-1.267H7ZM4.267 11A2.732 2.732 0 0 1 7 8.267h10A2.732 2.732 0 0 1 19.733 11v8A2.732 2.732 0 0 1 17 21.733H7A2.732 2.732 0 0 1 4.267 19v-8Z" clip-rule="evenodd"/><path fill="currentColor" fill-rule="evenodd" d="M7.298 7a4.702 4.702 0 0 1 9.404 0v2a.702.702 0 0 1-1.404 0V7a3.299 3.299 0 0 0-6.596 0v2a.702.702 0 1 1-1.404 0V7Z" clip-rule="evenodd"/><circle cx="12" cy="15" r="1.25" fill="currentColor"/></svg>