<svg xmlns="http://www.w3.org/2000/svg" width="24" height="24" fill="none" viewBox="0 0 24 24"><path fill="currentColor" fill-rule="evenodd" d="M5.248 5.998a3.751 3.751 0 0 1 3.75-3.752h9.005a3.751 3.751 0 0 1 3.75 3.752v12.005a3.751 3.751 0 0 1-3.75 3.75H8.999a3.751 3.751 0 0 1-3.751-3.75V15a.75.75 0 0 1 1.5 0v3.002a2.251 2.251 0 0 0 2.25 2.25h9.005a2.251 2.251 0 0 0 2.25-2.25V5.998a2.251 2.251 0 0 0-2.25-2.252H8.999a2.251 2.251 0 0 0-2.251 2.252v3a.75.75 0 0 1-1.5 0v-3Z" clip-rule="evenodd"/><path fill="currentColor" fill-rule="evenodd" d="M11.47 8.468a.75.75 0 0 1 1.06 0l3.002 3.002a.75.75 0 0 1 0 1.06l-3.002 3.002a.75.75 0 1 1-1.06-1.061L13.94 12l-2.47-2.47a.75.75 0 0 1 0-1.062Z" clip-rule="evenodd"/><path fill="currentColor" fill-rule="evenodd" d="M2.246 12a.75.75 0 0 1 .75-.75h12.005a.75.75 0 1 1 0 1.5H2.996a.75.75 0 0 1-.75-.75Z" clip-rule="evenodd"/></svg>