<svg xmlns="http://www.w3.org/2000/svg" width="24" height="24" fill="none" viewBox="0 0 24 24"><path fill="currentColor" fill-rule="evenodd" d="M8.999 2.246a3.751 3.751 0 0 0-3.751 3.752v3c0 .415.335.75.75.75v.002h3.88a2.25 2.25 0 0 1 3.713-2.342l3 3 .014.013a2.243 2.243 0 0 1 .476 2.44c-.11.266-.273.514-.489.73l-3.001 3.001a2.25 2.25 0 0 1-3.712-2.342H5.998v.001a.75.75 0 0 0-.75.75v3.002a3.751 3.751 0 0 0 3.75 3.75h9.005a3.751 3.751 0 0 0 3.75-3.75V5.998a3.751 3.751 0 0 0-3.75-3.752H8.999Z" clip-rule="evenodd"/><path fill="currentColor" fill-rule="evenodd" d="M11.47 8.468a.75.75 0 0 1 1.06 0l3.002 3.002a.75.75 0 0 1 0 1.06l-3.002 3.002a.75.75 0 1 1-1.06-1.061L13.94 12l-2.47-2.47a.75.75 0 0 1 0-1.062Z" clip-rule="evenodd"/><path fill="currentColor" fill-rule="evenodd" d="M2.246 12a.75.75 0 0 1 .75-.75h12.005a.75.75 0 1 1 0 1.5H2.996a.75.75 0 0 1-.75-.75Z" clip-rule="evenodd"/></svg>