<svg xmlns="http://www.w3.org/2000/svg" width="24" height="24" fill="none" viewBox="0 0 24 24"><path fill="currentColor" fill-rule="evenodd" d="M4.636 4.295A2.387 2.387 0 0 0 2.25 6.682v10.636a2.387 2.387 0 0 0 2.387 2.386h14.727a2.386 2.386 0 0 0 2.386-2.386V6.682a2.387 2.387 0 0 0-2.387-2.387H4.636Zm0 1.5a.887.887 0 0 0-.886.887v10.636c0 .49.397.887.885.886h14.729c.49 0 .886-.396.886-.886V6.682a.887.887 0 0 0-.887-.887H4.636Z" clip-rule="evenodd"/><path fill="currentColor" fill-rule="evenodd" d="M21.487 5.626a.75.75 0 0 1-.175 1.046l-7.739 5.519a2.751 2.751 0 0 1-3.196-.003L2.683 6.685a.75.75 0 1 1 .872-1.22l7.694 5.503a1.25 1.25 0 0 0 1.454.001L20.44 5.45a.75.75 0 0 1 1.046.176Z" clip-rule="evenodd"/></svg>