<svg xmlns="http://www.w3.org/2000/svg" width="24" height="24" fill="none" viewBox="0 0 24 24"><path fill="currentColor" fill-rule="evenodd" d="M14.25 3.354c-.04.01-.08.023-.119.036h-.001L9.75 4.85v15.787c.153-.046.312-.105.48-.177l4.02-2.01V3.354Zm1.5 15.095 3.468 1.734a1.75 1.75 0 0 0 2.532-1.565V6.613a1.75 1.75 0 0 0-1.197-1.66L15.869 3.39a2.747 2.747 0 0 0-.119-.036v15.094Zm-7.5 2.183V4.85L4.553 3.62A1.75 1.75 0 0 0 2.25 5.28v11.339c0 .664.375 1.269.967 1.565L7.77 20.46c.169.07.328.127.48.172Z" clip-rule="evenodd"/></svg>