<svg xmlns="http://www.w3.org/2000/svg" width="24" height="24" fill="none" viewBox="0 0 24 24"><path fill="currentColor" fill-rule="evenodd" d="M15.87 3.391a2.755 2.755 0 0 0-1.739-.001h-.001L9.395 4.968a1.248 1.248 0 0 1-.79 0l-4.052-1.35A1.75 1.75 0 0 0 2.25 5.28v11.339c0 .664.375 1.269.967 1.565L7.77 20.46c.926.385 1.556.39 2.46 0l4.212-2.106a1.248 1.248 0 0 1 1.118 0l3.658 1.829a1.75 1.75 0 0 0 2.532-1.565V6.613a1.75 1.75 0 0 0-1.197-1.66L15.869 3.39Zm-1.267 1.423L9.869 6.392a2.748 2.748 0 0 1-1.74 0l-4.05-1.35a.25.25 0 0 0-.329.237v11.339a.25.25 0 0 0 .139.224l4.552 2.276c.352.176.767.177 1.118 0l4.211-2.106a2.748 2.748 0 0 1 2.46 0l3.658 1.83a.25.25 0 0 0 .362-.224V6.613a.25.25 0 0 0-.17-.237l-4.685-1.561a1.259 1.259 0 0 0-.792-.001Z" clip-rule="evenodd"/><path fill="currentColor" fill-rule="evenodd" d="M15 3.26a.75.75 0 0 1 .75.75v13.47a.75.75 0 0 1-1.5 0V4.01a.75.75 0 0 1 .75-.75ZM9 5.03a.75.75 0 0 1 .75.75V20a.75.75 0 0 1-1.5 0V5.78A.75.75 0 0 1 9 5.03Z" clip-rule="evenodd"/></svg>