<svg xmlns="http://www.w3.org/2000/svg" width="24" height="24" fill="none" viewBox="0 0 24 24"><path fill="currentColor" fill-rule="evenodd" d="M3.9 3.75A1.15 1.15 0 0 0 2.75 4.9V14c0 .636.514 1.15 1.15 1.15H12a.75.75 0 0 1 0 1.5H3.9A2.65 2.65 0 0 1 1.25 14V4.9A2.65 2.65 0 0 1 3.9 2.25h15.2a2.65 2.65 0 0 1 2.65 2.65V10a.75.75 0 0 1-1.5 0V4.9a1.15 1.15 0 0 0-1.15-1.15H3.9Z" clip-rule="evenodd"/><path fill="currentColor" fill-rule="evenodd" d="M15.747 12.314c.742-.297 1.716-.464 2.753-.464 1.037 0 2.01.167 2.753.463.369.148.718.342.987.597.27.256.51.624.51 1.09v5.6c0 .465-.24.834-.51 1.09-.27.254-.618.449-.987.596-.742.297-1.715.464-2.753.464s-2.011-.167-2.753-.464c-.37-.147-.718-.342-.987-.596-.27-.256-.51-.623-.51-1.09V14c0-.466.24-.834.51-1.09.27-.254.618-.449.987-.596Zm5.503 1.729a.415.415 0 0 0-.04-.043c-.086-.081-.25-.188-.514-.294-.525-.21-1.3-.356-2.196-.356-.895 0-1.67.147-2.196.356-.264.106-.428.213-.513.294a.427.427 0 0 0-.041.044v5.512c.008.01.02.025.04.044.086.08.25.188.514.293.525.21 1.3.357 2.196.357.895 0 1.671-.147 2.196-.357.264-.105.428-.212.513-.293a.429.429 0 0 0 .041-.044v-5.513Z" clip-rule="evenodd"/><path fill="currentColor" fill-rule="evenodd" d="M15.75 13.955a.75.75 0 0 0-1.5.045c0 .466.24.834.51 1.09.269.254.618.449.987.596.742.297 1.716.464 2.753.464 1.037 0 2.011-.167 2.753-.464.369-.147.718-.342.987-.596.27-.256.509-.624.509-1.09a.75.75 0 0 0-1.499-.045.423.423 0 0 1-.042.045c-.085.08-.248.188-.512.293-.525.21-1.3.357-2.196.357-.896 0-1.672-.147-2.196-.357-.265-.105-.429-.212-.514-.293a.386.386 0 0 1-.041-.045Z" clip-rule="evenodd"/><path fill="currentColor" fill-rule="evenodd" d="M15.75 16.755a.75.75 0 0 0-1.499.045c0 .466.24.834.51 1.09.269.254.618.449.987.596.742.297 1.716.464 2.753.464 1.037 0 2.011-.167 2.753-.464.37-.147.718-.342.987-.596.27-.256.51-.624.51-1.09a.75.75 0 0 0-1.499-.045.404.404 0 0 1-.041.045c-.086.08-.25.188-.514.293-.524.21-1.3.357-2.196.357-.896 0-1.672-.147-2.196-.357-.265-.105-.428-.212-.514-.293a.404.404 0 0 1-.041-.045ZM13.71 7.44a3.124 3.124 0 1 0-4.42 4.42 3.126 3.126 0 0 0 4.42 0 3.127 3.127 0 0 0 0-4.42Zm-1.062 1.061a1.624 1.624 0 1 0-2.297 2.297A1.624 1.624 0 0 0 12.648 8.5ZM4.25 13a.75.75 0 0 1 .75-.75h1a.75.75 0 0 1 0 1.5H5a.75.75 0 0 1-.75-.75Zm12-7a.75.75 0 0 1 .75-.75h1a.75.75 0 0 1 0 1.5h-1a.75.75 0 0 1-.75-.75Z" clip-rule="evenodd"/></svg>