<svg xmlns="http://www.w3.org/2000/svg" width="24" height="24" fill="none" viewBox="0 0 24 24"><path fill="currentColor" fill-rule="evenodd" d="M21.75 12.552a3.906 3.906 0 0 0-.497-.239c-.742-.296-1.716-.463-2.753-.463-1.037 0-2.01.167-2.753.464-.369.147-.717.342-.986.596-.271.256-.51.624-.511 1.09v2.65H3.9A2.65 2.65 0 0 1 1.25 14V4.9A2.65 2.65 0 0 1 3.9 2.25h15.2a2.65 2.65 0 0 1 2.65 2.65v7.652ZM17 5.25a.75.75 0 0 0 0 1.5h1a.75.75 0 0 0 0-1.5h-1ZM9.29 7.44a3.124 3.124 0 1 1 4.42 4.42 3.126 3.126 0 0 1-4.42 0 3.127 3.127 0 0 1 0-4.42Zm11.96 8.248v1.07a.414.414 0 0 1-.04.042c-.085.08-.248.188-.513.293-.524.21-1.3.357-2.196.357-.896 0-1.672-.147-2.196-.357-.265-.105-.428-.212-.514-.293a.402.402 0 0 1-.041-.044v-1.069c.742.296 1.715.463 2.751.463 1.036 0 2.008-.166 2.749-.462Zm-2.749 3.262c-1.036 0-2.01-.166-2.751-.463v1.07c.008.01.02.024.04.043.086.08.25.188.514.293.525.21 1.3.357 2.196.357.895 0 1.671-.147 2.196-.357.264-.105.428-.212.513-.293a.438.438 0 0 0 .041-.044v-1.068c-.742.296-1.714.462-2.749.462ZM21.209 14c-.085-.081-.248-.188-.513-.294-.525-.21-1.3-.356-2.196-.356-.895 0-1.67.147-2.196.357-.264.105-.428.212-.513.293.085.08.25.188.514.293.524.21 1.3.357 2.196.357.895 0 1.671-.147 2.196-.356.264-.106.427-.214.512-.294ZM4.25 13a.75.75 0 0 1 .75-.75h1a.75.75 0 0 1 0 1.5H5a.75.75 0 0 1-.75-.75Z" clip-rule="evenodd"/></svg>