<svg xmlns="http://www.w3.org/2000/svg" width="24" height="24" fill="none" viewBox="0 0 24 24"><path fill="currentColor" d="M3.943 11.42A2.75 2.75 0 0 1 6.64 9.21h6.304l1.06 1.5H6.64a1.25 1.25 0 0 0-1.226 1.005l-1.2 6A1.25 1.25 0 0 0 5.44 19.21h13.12a1.25 1.25 0 0 0 1.226-1.495l-1.2-6a1.25 1.25 0 0 0-.676-.878L18.926 9.7c.57.395.987 1.002 1.131 1.722l1.2 6a2.75 2.75 0 0 1-2.698 3.289H5.44a2.75 2.75 0 0 1-2.696-3.29l1.2-6Z"/><path fill="currentColor" fill-rule="evenodd" d="M13.185 14.306a.75.75 0 0 1-.291 1.02l-8.48 4.71a.75.75 0 0 1-.728-1.312l8.48-4.71a.75.75 0 0 1 1.02.292Z" clip-rule="evenodd"/><path fill="currentColor" fill-rule="evenodd" d="M4.904 9.903a.75.75 0 0 1 1.033-.24l14.46 9.03a.75.75 0 1 1-.794 1.273l-14.46-9.03a.75.75 0 0 1-.24-1.033ZM16.01 3.772a3.25 3.25 0 0 0-3.25 3.25h-1.5a4.75 4.75 0 0 1 9.5 0h-1.5a3.25 3.25 0 0 0-3.25-3.25Z" clip-rule="evenodd"/><path fill="currentColor" fill-rule="evenodd" d="M12.01 6.272a.75.75 0 0 1 .75.75c0 .648.372 1.416.986 2.207.595.765 1.335 1.449 1.9 1.92a.605.605 0 0 0 .729.001c.565-.472 1.305-1.155 1.9-1.92.615-.792.986-1.56.986-2.208a.75.75 0 0 1 1.5 0c0 1.158-.626 2.259-1.302 3.128-.691.89-1.529 1.656-2.135 2.162l-.02.015a2.105 2.105 0 0 1-2.608-.016c-.606-.506-1.443-1.272-2.134-2.162-.675-.869-1.301-1.969-1.301-3.127a.75.75 0 0 1 .75-.75Z" clip-rule="evenodd"/><path fill="currentColor" d="M17.01 6.91a1 1 0 1 1-2 0 1 1 0 0 1 2 0Z"/></svg>