<svg xmlns="http://www.w3.org/2000/svg" width="24" height="24" fill="none" viewBox="0 0 24 24"><path fill="currentColor" fill-rule="evenodd" d="M4.347 10.442c-.193.29-.332.62-.404.979l-1.2 6a2.728 2.728 0 0 0 .209 1.712l8.105-4.503-6.71-4.188Zm-.379 9.843c.423.268.926.425 1.472.425h13.12c.564 0 1.083-.167 1.514-.453l-7.562-4.719-8.544 4.747Zm17.093-1.18a2.732 2.732 0 0 0 .196-1.684l-1.143-5.715a17.263 17.263 0 0 1-1.887 1.804 3.605 3.605 0 0 1-4.492-.047c-.646-.54-1.573-1.384-2.358-2.394a8.811 8.811 0 0 1-1.131-1.859H6.64a2.75 2.75 0 0 0-1.08.22l15.501 9.675Z" clip-rule="evenodd"/><path fill="currentColor" fill-rule="evenodd" d="M16.01 2.272a4.75 4.75 0 0 0-4.75 4.75c0 1.158.627 2.258 1.302 3.127.691.89 1.528 1.656 2.134 2.162l.019.015a2.105 2.105 0 0 0 2.59.001l.019-.015c.606-.506 1.444-1.272 2.135-2.162.676-.87 1.302-1.97 1.302-3.128a4.75 4.75 0 0 0-4.75-4.75Zm0 5.639a1 1 0 1 0 0-2 1 1 0 0 0 0 2Z" clip-rule="evenodd"/></svg>