<svg xmlns="http://www.w3.org/2000/svg" width="24" height="24" fill="none" viewBox="0 0 24 24"><path fill="currentColor" fill-rule="evenodd" d="M5.08 9.94A6.923 6.923 0 0 1 12 3.02a6.9 6.9 0 0 1 4.89 2.028 6.86 6.86 0 0 1 2.03 4.892v4.402a2.291 2.291 0 0 1-.24 4.568H5.32a2.29 2.29 0 0 1-.24-4.568V9.94Z" clip-rule="evenodd"/><path fill="currentColor" fill-rule="evenodd" d="M12 2a.75.75 0 0 1 .75.75v1.03a.75.75 0 0 1-1.5 0V2.75A.75.75 0 0 1 12 2Zm3.11 18.41H8.893A3.826 3.826 0 0 0 12 22c1.28 0 2.414-.625 3.11-1.59Z" clip-rule="evenodd"/></svg>