<svg xmlns="http://www.w3.org/2000/svg" width="24" height="24" fill="none" viewBox="0 0 24 24"><path fill="currentColor" fill-rule="evenodd" d="M12 4.52a5.423 5.423 0 0 0-5.42 5.42v5.14a.75.75 0 0 1-.75.75h-.51a.79.79 0 0 0 0 1.58h13.36a.79.79 0 0 0 0-1.58h-.51a.75.75 0 0 1-.75-.75V9.94a5.36 5.36 0 0 0-1.588-3.827l-.002-.003A5.395 5.395 0 0 0 12 4.52ZM5.08 9.94A6.923 6.923 0 0 1 12 3.02a6.9 6.9 0 0 1 4.89 2.028 6.86 6.86 0 0 1 2.03 4.892v4.402a2.291 2.291 0 0 1-.24 4.568H5.32a2.29 2.29 0 0 1-.24-4.568V9.94Z" clip-rule="evenodd"/><path fill="currentColor" fill-rule="evenodd" d="M12 2a.75.75 0 0 1 .75.75v1.03a.75.75 0 0 1-1.5 0V2.75A.75.75 0 0 1 12 2ZM8.17 18.17a.75.75 0 0 1 .75-.75h6.16a.75.75 0 0 1 .75.75A3.825 3.825 0 0 1 12 22a3.831 3.831 0 0 1-3.83-3.83Zm1.624.75a2.333 2.333 0 0 0 4.414 0H9.794Z" clip-rule="evenodd"/></svg>