<svg xmlns="http://www.w3.org/2000/svg" width="24" height="24" fill="none" viewBox="0 0 24 24"><path fill="currentColor" fill-rule="evenodd" d="M20.416 16.09a.75.75 0 0 1 .548.442 3.751 3.751 0 0 1-4.094 5.167.75.75 0 1 1 .257-1.478 2.251 2.251 0 0 0 2.636-2.129.75.75 0 0 1-.535-1.28l.515-.516a.75.75 0 0 1 .673-.206Zm-2.414-.285a2.252 2.252 0 0 0-2.764 2.106.75.75 0 0 1 .537 1.28l-.517.516a.75.75 0 0 1-1.22-.235 3.751 3.751 0 0 1 4.306-5.127.75.75 0 0 1-.342 1.46ZM12 4.747a3.502 3.502 0 1 0 0 7.003 3.502 3.502 0 0 0 0-7.003ZM6.998 8.248a5.002 5.002 0 1 1 10.004 0 5.002 5.002 0 0 1-10.004 0Zm.504 8.004a3.752 3.752 0 0 0-3.752 3.751.75.75 0 1 1-1.5 0c0-2.9 2.352-5.252 5.252-5.252h4.251a.75.75 0 0 1 0 1.5H7.502Z" clip-rule="evenodd"/></svg>