<svg xmlns="http://www.w3.org/2000/svg" width="24" height="24" fill="none" viewBox="0 0 24 24"><path fill="currentColor" fill-rule="evenodd" d="M19.908 16.09a.75.75 0 0 1 .547.442 3.751 3.751 0 0 1-4.094 5.167.75.75 0 0 1 .257-1.478 2.251 2.251 0 0 0 2.636-2.129.75.75 0 0 1-.535-1.28l.516-.516a.75.75 0 0 1 .673-.206Zm-2.415-.285a2.251 2.251 0 0 0-2.764 2.106.75.75 0 0 1 .537 1.28l-.517.516a.75.75 0 0 1-1.22-.235 3.751 3.751 0 0 1 4.307-5.127.75.75 0 0 1-.343 1.46ZM11.998 3a5.002 5.002 0 1 0 0 10.004 5.002 5.002 0 0 0 0-10.004Zm.625 11.505H8.497a5.252 5.252 0 0 0-5.252 5.252c0 .414.336.75.75.75h8.052A5.978 5.978 0 0 1 11.5 18c0-1.304.416-2.511 1.123-3.495Z" clip-rule="evenodd"/></svg>