<svg xmlns="http://www.w3.org/2000/svg" width="24" height="24" fill="none" viewBox="0 0 24 24"><path fill="currentColor" fill-rule="evenodd" d="M3.114 4.997a2.75 2.75 0 0 1 2.75-2.75H18.87a2.75 2.75 0 0 1 2.751 2.75v5.8c0 .413-.323.749-.935.75a6.722 6.722 0 0 0-3.184-.797 6.76 6.76 0 0 0-1.76.232.75.75 0 0 0-.74-.634h-4.753a.75.75 0 1 0 0 1.5h3.561a6.783 6.783 0 0 0-2.358 2.654.747.747 0 0 0-.453-.152h-.75a.75.75 0 1 0 0 1.5h.705a6.767 6.767 0 0 0 .663 4.964c0 .698-.336.94-.75.94H5.865a2.75 2.75 0 0 1-2.751-2.751V4.997Zm4.009 1.35a.875.875 0 1 0 0 1.75.875.875 0 0 0 0-1.75Zm2.376.875a.75.75 0 0 1 .75-.75h6.753a.75.75 0 0 1 0 1.5h-6.753a.75.75 0 0 1-.75-.75Zm-2.376 7.003a.875.875 0 1 0 0 1.75.875.875 0 0 0 0-1.75Zm-.875-3.127a.875.875 0 1 1 1.75 0 .875.875 0 0 1-1.75 0Z" clip-rule="evenodd"/><path fill="currentColor" fill-rule="evenodd" d="M12.25 17.502a5.252 5.252 0 1 1 10.504 0 5.252 5.252 0 0 1-10.504 0Zm7.34-.247a.75.75 0 0 0-1.062-1.06l-1.414 1.414-.638-.637a.75.75 0 0 0-1.06 1.06l1.168 1.168a.75.75 0 0 0 1.06 0l1.945-1.945Z" clip-rule="evenodd"/></svg>