<svg xmlns="http://www.w3.org/2000/svg" width="24" height="24" fill="none" viewBox="0 0 24 24"><path fill="currentColor" fill-rule="evenodd" d="M2.246 4.997a2.75 2.75 0 0 1 2.751-2.75h13.006a2.75 2.75 0 0 1 2.75 2.75V10a.75.75 0 0 1-1.5 0V4.997c0-.69-.56-1.25-1.25-1.25H4.997c-.69 0-1.25.56-1.25 1.25v14.006c0 .69.56 1.25 1.25 1.25H10a.75.75 0 1 1 0 1.5H4.997a2.75 2.75 0 0 1-2.75-2.75V4.997Z" clip-rule="evenodd"/><path fill="currentColor" fill-rule="evenodd" d="M8.499 15.001a.75.75 0 0 1 .75-.75h.75a.75.75 0 0 1 0 1.5h-.75a.75.75 0 0 1-.75-.75Zm0-4.001a.75.75 0 0 1 .75-.75h4.752a.75.75 0 0 1 0 1.5H9.249a.75.75 0 0 1-.75-.75Zm0-3.877a.75.75 0 0 1 .75-.75h6.753a.75.75 0 0 1 0 1.5H9.249a.75.75 0 0 1-.75-.75Zm-3.251 7.878a.875.875 0 1 1 1.75 0 .875.875 0 0 1-1.75 0Zm0-4.001a.875.875 0 1 1 1.75 0 .875.875 0 0 1-1.75 0Zm0-3.877a.875.875 0 1 1 1.75 0 .875.875 0 0 1-1.75 0Zm12.254 6.627a3.752 3.752 0 1 0 0 7.504 3.752 3.752 0 0 0 0-7.504Zm0-1.5a5.252 5.252 0 1 0 0 10.504 5.252 5.252 0 0 0 0-10.504Z" clip-rule="evenodd"/><path fill="currentColor" fill-rule="evenodd" d="M19.59 16.195a.75.75 0 0 1 0 1.06L17.644 19.2a.75.75 0 0 1-1.06 0l-1.17-1.167a.75.75 0 0 1 1.06-1.061l.64.637 1.414-1.414a.75.75 0 0 1 1.06 0Z" clip-rule="evenodd"/></svg>