<svg xmlns="http://www.w3.org/2000/svg" width="24" height="24" fill="none" viewBox="0 0 24 24"><path fill="currentColor" fill-rule="evenodd" d="M11.616 2.356a.75.75 0 0 1 .768 0l8 4.765a.75.75 0 0 1 0 1.288l-8 4.764a.75.75 0 0 1-.768 0l-8-4.764a.75.75 0 0 1 0-1.288l8-4.765Z" clip-rule="evenodd"/><path fill="currentColor" fill-rule="evenodd" d="M3.356 11.616a.75.75 0 0 1 1.028-.26L12 15.892l7.616-4.536a.75.75 0 0 1 .768 1.288l-8 4.765a.75.75 0 0 1-.768 0l-8-4.765a.75.75 0 0 1-.26-1.028Z" clip-rule="evenodd"/><path fill="currentColor" fill-rule="evenodd" d="M3.356 15.851a.75.75 0 0 1 1.028-.26L12 20.127l7.616-4.536a.75.75 0 0 1 .768 1.288l-8 4.765a.75.75 0 0 1-.768 0l-8-4.765a.75.75 0 0 1-.26-1.028Z" clip-rule="evenodd"/></svg>