<svg xmlns="http://www.w3.org/2000/svg" width="24" height="24" fill="none" viewBox="0 0 24 24"><path fill="currentColor" fill-rule="evenodd" d="M6.5 2.25A2.75 2.75 0 0 0 3.75 5v14a2.75 2.75 0 0 0 2.75 2.75h11A2.75 2.75 0 0 0 20.25 19V5a2.75 2.75 0 0 0-2.75-2.75h-11ZM10.25 6a.75.75 0 0 0-1.5 0v.025a1.804 1.804 0 0 0-.136 3.527l1.406.352a.303.303 0 0 1-.073.598h-.392a.775.775 0 0 0-.11 0h-.32c-.106 0-.21-.053-.287-.179a.75.75 0 0 0-1.28.782c.253.415.67.748 1.192.858V12a.75.75 0 0 0 1.5 0v-.023a1.804 1.804 0 0 0 .136-3.527L8.98 8.098a.304.304 0 0 1 .073-.598h.822c.105 0 .209.053.285.178a.75.75 0 1 0 1.28-.784 1.852 1.852 0 0 0-1.19-.855V6Zm3 1.5a.75.75 0 0 1 .75-.75h2a.75.75 0 0 1 0 1.5h-2a.75.75 0 0 1-.75-.75Zm0 3a.75.75 0 0 1 .75-.75h2a.75.75 0 0 1 0 1.5h-2a.75.75 0 0 1-.75-.75ZM8 14.25a.75.75 0 0 0 0 1.5h8a.75.75 0 0 0 0-1.5H8ZM7.25 18a.75.75 0 0 1 .75-.75h8a.75.75 0 0 1 0 1.5H8a.75.75 0 0 1-.75-.75Z" clip-rule="evenodd"/></svg>