<svg xmlns="http://www.w3.org/2000/svg" width="24" height="24" fill="none" viewBox="0 0 24 24"><path fill="currentColor" fill-rule="evenodd" d="M2.246 7.998a.75.75 0 0 1 .75-.75h18.008a.75.75 0 0 1 0 1.5H2.996a.75.75 0 0 1-.75-.75ZM6.248 12a.75.75 0 0 1 .75-.75h2.501a.75.75 0 0 1 0 1.5H6.998a.75.75 0 0 1-.75-.75Zm10.754 1.75a3.252 3.252 0 1 0 0 6.504 3.252 3.252 0 0 0 0-6.504Zm0-1.5a4.752 4.752 0 1 0 0 9.504 4.752 4.752 0 0 0 0-9.504Z" clip-rule="evenodd"/><path fill="currentColor" fill-rule="evenodd" d="M19.09 15.694a.75.75 0 0 1 0 1.061L17.143 18.7a.75.75 0 0 1-1.06 0l-1.169-1.167a.75.75 0 1 1 1.06-1.062l.639.638 1.414-1.415a.75.75 0 0 1 1.061 0ZM5.997 4.747a2.251 2.251 0 0 0-2.25 2.25v8.004a2.251 2.251 0 0 0 2.25 2.252H10a.75.75 0 0 1 0 1.5H5.997A3.751 3.751 0 0 1 2.247 15V6.998a3.751 3.751 0 0 1 3.75-3.751h12.006a3.751 3.751 0 0 1 3.75 3.75v4.308a.75.75 0 0 1-1.5 0V6.998a2.251 2.251 0 0 0-2.25-2.251H5.997Z" clip-rule="evenodd"/></svg>