<svg xmlns="http://www.w3.org/2000/svg" width="24" height="24" fill="none" viewBox="0 0 24 24"><path fill="currentColor" fill-rule="evenodd" d="M6.5 3.75c-.69 0-1.25.56-1.25 1.25v14c0 .69.56 1.25 1.25 1.25h11c.69 0 1.25-.56 1.25-1.25V5c0-.69-.56-1.25-1.25-1.25h-11ZM3.75 5A2.75 2.75 0 0 1 6.5 2.25h11A2.75 2.75 0 0 1 20.25 5v14a2.75 2.75 0 0 1-2.75 2.75h-11A2.75 2.75 0 0 1 3.75 19V5Z" clip-rule="evenodd"/><path fill="currentColor" fill-rule="evenodd" d="M13.25 7.5a.75.75 0 0 1 .75-.75h2a.75.75 0 0 1 0 1.5h-2a.75.75 0 0 1-.75-.75Zm0 3a.75.75 0 0 1 .75-.75h2a.75.75 0 0 1 0 1.5h-2a.75.75 0 0 1-.75-.75Zm-6 4.5a.75.75 0 0 1 .75-.75h8a.75.75 0 0 1 0 1.5H8a.75.75 0 0 1-.75-.75Zm0 3a.75.75 0 0 1 .75-.75h8a.75.75 0 0 1 0 1.5H8a.75.75 0 0 1-.75-.75ZM9.5 5.25a.75.75 0 0 1 .75.75v.75a.75.75 0 0 1-1.5 0V6a.75.75 0 0 1 .75-.75Zm0 5.25a.75.75 0 0 1 .75.75V12a.75.75 0 0 1-1.5 0v-.75a.75.75 0 0 1 .75-.75Z" clip-rule="evenodd"/><path fill="currentColor" fill-rule="evenodd" d="M9.053 7.5a.304.304 0 0 0-.073.598l1.406.352a1.805 1.805 0 0 1-.439 3.552h-.822a1.831 1.831 0 0 1-1.567-.897.75.75 0 0 1 1.28-.782c.077.126.181.179.287.179h.822a.303.303 0 0 0 .073-.598l-1.406-.352A1.805 1.805 0 0 1 9.053 6h.822a1.83 1.83 0 0 1 1.565.894.75.75 0 0 1-1.28.784c-.076-.125-.18-.178-.285-.178h-.822Z" clip-rule="evenodd"/></svg>