<svg xmlns="http://www.w3.org/2000/svg" width="24" height="24" fill="none" viewBox="0 0 24 24"><path fill="currentColor" fill-rule="evenodd" d="M10.82 18.003a.75.75 0 0 1-.75.75H6.067A3.751 3.751 0 0 1 2.317 15V8.748h19.507v2.557c0 .414-.355.75-.996.75h-.004a6.252 6.252 0 0 0-9.995 5.942l-.01.006ZM21.823 7.248H2.317v-.25a3.751 3.751 0 0 1 3.75-3.751h12.006a3.751 3.751 0 0 1 3.751 3.75v.251ZM6.248 12a.75.75 0 0 1 .75-.75h2.5a.75.75 0 0 1 0 1.5h-2.5a.75.75 0 0 1-.75-.75Z" clip-rule="evenodd"/><path fill="currentColor" fill-rule="evenodd" d="M12.25 17.002a4.752 4.752 0 1 1 9.504 0 4.752 4.752 0 0 1-9.504 0Zm6.839-.247a.75.75 0 1 0-1.06-1.06l-1.415 1.414-.639-.638a.75.75 0 1 0-1.06 1.062l1.169 1.167a.75.75 0 0 0 1.06 0l1.945-1.945Z" clip-rule="evenodd"/></svg>