<svg xmlns="http://www.w3.org/2000/svg" width="24" height="24" fill="none" viewBox="0 0 24 24"><path fill="currentColor" fill-rule="evenodd" d="M8.644 3.78a2.75 2.75 0 0 0-3.888 0l-.652.652c-.927.926-1.3 2.25-1.057 3.54.526 2.78 2.127 5.773 4.668 8.313 2.54 2.54 5.533 4.142 8.314 4.668 1.289.243 2.613-.13 3.54-1.057l.65-.65a2.75 2.75 0 0 0 0-3.89l-1.173-1.172a2.25 2.25 0 0 0-3.182 0l-.902.904a.026.026 0 0 1-.006.004 11.915 11.915 0 0 1-3.57-2.478 11.89 11.89 0 0 1-2.476-3.57.029.029 0 0 1 .004-.006l.82-.818c.936-.936.99-2.36.084-3.266L8.644 3.78Z" clip-rule="evenodd"/></svg>