<svg xmlns="http://www.w3.org/2000/svg" width="24" height="24" fill="none" viewBox="0 0 24 24"><path fill="currentColor" fill-rule="evenodd" d="M8.644 3.78a2.75 2.75 0 0 0-3.888 0l-.652.652c-.927.926-1.3 2.25-1.057 3.54.526 2.78 2.127 5.773 4.668 8.313 2.54 2.54 5.533 4.142 8.314 4.668 1.289.243 2.613-.13 3.54-1.057l.65-.65a2.75 2.75 0 0 0 0-3.89l-1.173-1.172a2.25 2.25 0 0 0-3.182 0l-.902.904a.026.026 0 0 1-.006.004 11.915 11.915 0 0 1-3.57-2.478 11.89 11.89 0 0 1-2.476-3.57.029.029 0 0 1 .004-.006l.82-.818c.936-.936.99-2.36.084-3.266L8.644 3.78Zm-1.06 1.06a1.25 1.25 0 0 0-1.768 0l-.652.652c-.555.556-.8 1.37-.643 2.2.462 2.445 1.897 5.175 4.254 7.533 2.358 2.357 5.087 3.792 7.532 4.254.831.157 1.646-.088 2.2-.643l.652-.651a1.25 1.25 0 0 0 0-1.768l-1.173-1.173a.75.75 0 0 0-1.06 0l-.903.904a1.5 1.5 0 0 1-1.661.322 13.408 13.408 0 0 1-4.036-2.796 13.385 13.385 0 0 1-2.794-4.036 1.5 1.5 0 0 1 .322-1.66l.819-.818c.405-.406.351-.88.085-1.146L7.584 4.84Z" clip-rule="evenodd"/></svg>