<svg xmlns="http://www.w3.org/2000/svg" width="24" height="24" fill="none" viewBox="0 0 24 24"><path fill="currentColor" fill-rule="evenodd" d="M11.25 2.247H6.483a3 3 0 0 0-2.76 1.821L2.629 6.631c-.119.278-.21.565-.274.858.344-.155.725-.24 1.127-.24h7.768V2.246ZM2.246 9.805v8.948a3.001 3.001 0 0 0 3.001 3h13.756a2.75 2.75 0 0 0 2.75-2.75v-9.22a1.251 1.251 0 0 0-1.231-1.035H3.482c-.625 0-1.142.458-1.236 1.057Zm19.399-2.318a2.742 2.742 0 0 0-1.123-.239H12.75V2.247h4.767a3 3 0 0 1 2.76 1.823l1.094 2.563c.118.276.21.562.274.854ZM6.248 14.001a.75.75 0 0 1 .75-.75H12a.75.75 0 0 1 .75.75v3.001a.75.75 0 0 1-.75.75H6.998a.75.75 0 0 1-.75-.75v-3.001Z" clip-rule="evenodd"/></svg>