<svg xmlns="http://www.w3.org/2000/svg" width="24" height="24" fill="none" viewBox="0 0 24 24"><path fill="currentColor" fill-rule="evenodd" d="M12 2.246a.75.75 0 0 1 .75.75v5.002a.75.75 0 0 1-1.5 0V2.996a.75.75 0 0 1 .75-.75Z" clip-rule="evenodd"/><path fill="currentColor" fill-rule="evenodd" d="M2.246 10a2.75 2.75 0 0 1 2.751-2.752h14.006A2.75 2.75 0 0 1 21.753 10v7.003a.75.75 0 1 1-1.5 0V9.999c0-.69-.56-1.25-1.25-1.25H4.997c-.69 0-1.25.56-1.25 1.25v7.003a.75.75 0 1 1-1.5 0V9.999Z" clip-rule="evenodd"/><path fill="currentColor" fill-rule="evenodd" d="M6.248 14a.75.75 0 0 1 .75-.75H12a.75.75 0 0 1 .75.75v3.002a.75.75 0 0 1-.75.75H6.998a.75.75 0 0 1-.75-.75v-3.001Zm1.5.75v1.502h3.502v-1.501H7.748Z" clip-rule="evenodd"/><path fill="currentColor" fill-rule="evenodd" d="M6.483 2.246a3 3 0 0 0-2.76 1.822L2.629 6.631A4.736 4.736 0 0 0 2.246 8.5v10.254a3 3 0 0 0 3.001 3h13.756a2.75 2.75 0 0 0 2.75-2.75V8.5a4.732 4.732 0 0 0-.382-1.867l-1.094-2.564a3 3 0 0 0-2.76-1.822H6.483ZM4.008 7.222a3.234 3.234 0 0 0-.262 1.276v10.255a1.5 1.5 0 0 0 1.501 1.5h13.756c.69 0 1.25-.56 1.25-1.25V8.496a3.244 3.244 0 0 0-.256-1.275V7.22l-1.1-2.561v-.002a1.5 1.5 0 0 0-1.38-.91H6.482a1.5 1.5 0 0 0-1.38.91L4.008 7.222Z" clip-rule="evenodd"/></svg>