<svg xmlns="http://www.w3.org/2000/svg" width="24" height="24" fill="none" viewBox="0 0 24 24"><path fill="currentColor" fill-rule="evenodd" d="M12 2.25A9.75 9.75 0 0 0 2.25 12 9.75 9.75 0 0 0 12 21.75 9.75 9.75 0 0 0 21.75 12 9.75 9.75 0 0 0 12 2.25Zm0 4.833a2.75 2.75 0 0 0-2.75 2.75.75.75 0 0 0 1.5 0 1.25 1.25 0 1 1 2.5 0c0 .406-.212.644-.658.945-.554.372-1.342 1.011-1.342 2.222v.25a.75.75 0 0 0 1.5 0V13c0-.423.222-.67.68-.977v-.001c.542-.365 1.32-.995 1.32-2.189A2.75 2.75 0 0 0 12 7.083Zm0 10.167a1 1 0 1 0 0-2 1 1 0 0 0 0 2Z" clip-rule="evenodd"/></svg>