<svg xmlns="http://www.w3.org/2000/svg" width="24" height="24" fill="none" viewBox="0 0 24 24"><path fill="currentColor" fill-rule="evenodd" d="M12 3.75A8.25 8.25 0 0 0 3.75 12 8.25 8.25 0 0 0 12 20.25 8.25 8.25 0 0 0 20.25 12 8.25 8.25 0 0 0 12 3.75ZM2.25 12A9.75 9.75 0 0 1 12 2.25 9.75 9.75 0 0 1 21.75 12 9.75 9.75 0 0 1 12 21.75 9.75 9.75 0 0 1 2.25 12Z" clip-rule="evenodd"/><path fill="currentColor" fill-rule="evenodd" d="M9.25 9.833a2.75 2.75 0 1 1 5.5 0c0 1.194-.778 1.824-1.32 2.189-.458.308-.68.555-.68.978v.25a.75.75 0 0 1-1.5 0V13c0-1.21.788-1.85 1.342-2.222.446-.301.658-.54.658-.945a1.25 1.25 0 1 0-2.5 0 .75.75 0 0 1-1.5 0Z" clip-rule="evenodd"/><path fill="currentColor" d="M13 16.25a1 1 0 1 1-2 0 1 1 0 0 1 2 0Z"/></svg>