<svg xmlns="http://www.w3.org/2000/svg" width="24" height="24" fill="none" viewBox="0 0 24 24"><path fill="currentColor" fill-rule="evenodd" d="M4.5 5a.75.75 0 0 1 .75.75v2.375h2.375a.75.75 0 0 1 0 1.5H4.5a.75.75 0 0 1-.75-.75V5.75A.75.75 0 0 1 4.5 5Z" clip-rule="evenodd"/><path fill="currentColor" fill-rule="evenodd" d="M4.507 8.562A8.245 8.245 0 0 1 20.25 12a.75.75 0 0 1-1.5 0A6.745 6.745 0 0 0 5.87 9.188a.75.75 0 0 1-1.363-.626Zm11.118 6.563a.75.75 0 0 1 .75-.75H19.5a.75.75 0 0 1 .75.75v3.125a.75.75 0 0 1-1.5 0v-2.375h-2.375a.75.75 0 0 1-.75-.75Z" clip-rule="evenodd"/><path fill="currentColor" fill-rule="evenodd" d="M4.5 11.25a.75.75 0 0 1 .75.75 6.745 6.745 0 0 0 12.88 2.812.75.75 0 1 1 1.363.626A8.245 8.245 0 0 1 3.75 12a.75.75 0 0 1 .75-.75Z" clip-rule="evenodd"/></svg>