<svg xmlns="http://www.w3.org/2000/svg" width="24" height="24" fill="none" viewBox="0 0 24 24"><path fill="currentColor" fill-rule="evenodd" d="M2 20a2 2 0 0 0 2 2h16a2 2 0 0 0 2-2V4a2 2 0 0 0-2-2H4a2 2 0 0 0-2 2v16ZM5.171 9.625H4.5a.75.75 0 0 1-.75-.75V5.75a.75.75 0 0 1 1.5 0v1.518A8.228 8.228 0 0 1 12 3.75 8.25 8.25 0 0 1 20.25 12a.75.75 0 0 1-1.5 0A6.75 6.75 0 0 0 12 5.25a6.73 6.73 0 0 0-5.52 2.875h1.145a.75.75 0 0 1 0 1.5H5.171Zm10.454 5.5a.75.75 0 0 1 .75-.75H19.5a.75.75 0 0 1 .75.75v3.125a.75.75 0 0 1-1.5 0v-1.518A8.228 8.228 0 0 1 12 20.25 8.25 8.25 0 0 1 3.75 12a.75.75 0 0 1 1.5 0A6.75 6.75 0 0 0 12 18.75a6.73 6.73 0 0 0 5.52-2.875h-1.145a.75.75 0 0 1-.75-.75Z" clip-rule="evenodd"/></svg>