<svg xmlns="http://www.w3.org/2000/svg" width="24" height="24" fill="none" viewBox="0 0 24 24"><path fill="currentColor" fill-rule="evenodd" d="M2.25 9.912V18.5A2.75 2.75 0 0 0 5 21.25h14a2.75 2.75 0 0 0 2.75-2.75V9.9l-6.688 4.417c-.45.297-.976.455-1.515.455h-3.094a2.75 2.75 0 0 1-1.515-.455L2.25 9.912Zm19.22-1.624A2.75 2.75 0 0 0 19 6.75H5a2.75 2.75 0 0 0-2.474 1.548l7.238 4.767c.204.135.444.207.689.207h3.094c.245 0 .484-.072.689-.207l7.233-4.777Z" clip-rule="evenodd"/><path fill="currentColor" fill-rule="evenodd" d="M7.076 5.5a2.75 2.75 0 0 1 2.75-2.75h4.348a2.75 2.75 0 0 1 2.75 2.75v2a.75.75 0 1 1-1.5 0v-2c0-.69-.56-1.25-1.25-1.25H9.826c-.69 0-1.25.56-1.25 1.25v2a.75.75 0 0 1-1.5 0v-2Z" clip-rule="evenodd"/></svg>