<svg xmlns="http://www.w3.org/2000/svg" width="24" height="24" fill="none" viewBox="0 0 24 24"><path fill="currentColor" fill-rule="evenodd" d="M5 8.25c-.69 0-1.25.56-1.25 1.25v9c0 .69.56 1.25 1.25 1.25h14c.69 0 1.25-.56 1.25-1.25v-9c0-.69-.56-1.25-1.25-1.25H5ZM2.25 9.5A2.75 2.75 0 0 1 5 6.75h14a2.75 2.75 0 0 1 2.75 2.75v9A2.75 2.75 0 0 1 19 21.25H5a2.75 2.75 0 0 1-2.75-2.75v-9Z" clip-rule="evenodd"/><path fill="currentColor" fill-rule="evenodd" d="M7.076 5.5a2.75 2.75 0 0 1 2.75-2.75h4.348a2.75 2.75 0 0 1 2.75 2.75v2a.75.75 0 0 1-1.5 0v-2c0-.69-.56-1.25-1.25-1.25H9.826c-.69 0-1.25.56-1.25 1.25v2a.75.75 0 0 1-1.5 0v-2ZM2.374 9.087a.75.75 0 0 1 1.039-.213l6.351 4.191c.204.135.444.207.689.207h3.094c.245 0 .484-.072.689-.207l6.35-4.191a.75.75 0 1 1 .827 1.252l-6.35 4.19a2.75 2.75 0 0 1-1.516.456h-3.094a2.749 2.749 0 0 1-1.515-.455l-6.351-4.191a.75.75 0 0 1-.213-1.04Z" clip-rule="evenodd"/></svg>