<svg xmlns="http://www.w3.org/2000/svg" width="24" height="24" fill="none" viewBox="0 0 24 24"><path fill="currentColor" fill-rule="evenodd" d="M9.749 21.004a.75.75 0 0 1-.75.75H4.997a2.75 2.75 0 0 1-2.75-2.751V4.997a2.75 2.75 0 0 1 2.75-2.75h8.175c.73 0 1.43.29 1.945.805l2.83 2.83c.516.515.806 1.215.806 1.945v2.172a.75.75 0 0 1-.75.75l-2.502.002a2.75 2.75 0 0 0-2.75 2.75v1.501h-.25a2.75 2.75 0 0 0-2.751 2.75l-.001 3.252ZM5.247 7.998a.75.75 0 0 1 .75-.75H9a.75.75 0 0 1 0 1.5H5.997a.75.75 0 0 1-.75-.75Zm0 3.002a.75.75 0 0 1 .75-.75H12a.75.75 0 1 1 0 1.5H5.997a.75.75 0 0 1-.75-.75Zm0 4.501a2.251 2.251 0 1 1 4.503.002 2.251 2.251 0 0 1-4.503-.002Z" clip-rule="evenodd"/><path fill="currentColor" fill-rule="evenodd" d="M12.75 18.002v2.252h1.501v-2.252H12.75Zm-1.5-.25c0-.69.56-1.25 1.25-1.25h2.501a.75.75 0 0 1 .75.75v3.752a.75.75 0 0 1-.75.75h-2.5a1.25 1.25 0 0 1-1.251-1.25v-2.752Z" clip-rule="evenodd"/><path fill="currentColor" fill-rule="evenodd" d="M15.751 13.75v6.504h1.502V13.75H15.75Zm-1.5-.25c0-.69.56-1.25 1.25-1.25h2.001c.69 0 1.25.56 1.25 1.25v7.504a.75.75 0 0 1-.75.75h-3a.75.75 0 0 1-.75-.75V13.5Z" clip-rule="evenodd"/><path fill="currentColor" fill-rule="evenodd" d="M18.753 16.001v4.253h1.5V16h-1.5Zm-1.5-.25c0-.69.56-1.25 1.25-1.25h2c.691 0 1.25.56 1.25 1.25v4.753c0 .69-.559 1.25-1.25 1.25h-2.5a.75.75 0 0 1-.75-.75v-5.252Z" clip-rule="evenodd"/></svg>