<svg xmlns="http://www.w3.org/2000/svg" width="24" height="24" fill="none" viewBox="0 0 24 24"><path fill="currentColor" fill-rule="evenodd" d="M5.247 11a.75.75 0 0 1 .75-.75H12a.75.75 0 1 1 0 1.5H5.997a.75.75 0 0 1-.75-.75Zm0-3.002a.75.75 0 0 1 .75-.75H9a.75.75 0 0 1 0 1.5H5.997a.75.75 0 0 1-.75-.75Zm2.251 6.752a.751.751 0 1 0 .001 1.503.751.751 0 0 0 0-1.502Zm0-1.5a2.251 2.251 0 1 0 .001 4.503 2.251 2.251 0 0 0-.001-4.502Z" clip-rule="evenodd"/><path fill="currentColor" fill-rule="evenodd" d="M4.997 3.746c-.69 0-1.25.56-1.25 1.251v14.006c0 .69.56 1.25 1.25 1.25H9a.75.75 0 0 1 0 1.5H4.997a2.75 2.75 0 0 1-2.75-2.75V4.997a2.75 2.75 0 0 1 2.75-2.75h8.175c.73 0 1.43.29 1.945.805l2.83 2.83c.516.515.806 1.215.806 1.945v2.172a.75.75 0 0 1-1.5 0V7.827c0-.332-.132-.65-.367-.885l-2.83-2.83a1.25 1.25 0 0 0-.884-.366H4.997Z" clip-rule="evenodd"/><path fill="currentColor" fill-rule="evenodd" d="M12.75 18.002v2.252h1.501v-2.252H12.75Zm-1.5-.25c0-.69.56-1.25 1.25-1.25h2.501a.75.75 0 0 1 .75.75v3.752a.75.75 0 0 1-.75.75h-2.5a1.25 1.25 0 0 1-1.251-1.25v-2.752Z" clip-rule="evenodd"/><path fill="currentColor" fill-rule="evenodd" d="M15.751 13.75v6.504h1.502V13.75H15.75Zm-1.5-.25c0-.69.56-1.25 1.25-1.25h2.001c.69 0 1.25.56 1.25 1.25v7.504a.75.75 0 0 1-.75.75h-3a.75.75 0 0 1-.75-.75V13.5Z" clip-rule="evenodd"/><path fill="currentColor" fill-rule="evenodd" d="M18.753 16.001v4.253h1.5V16h-1.5Zm-1.5-.25c0-.69.56-1.25 1.25-1.25h2c.691 0 1.25.56 1.25 1.25v4.753c0 .69-.559 1.25-1.25 1.25h-2.5a.75.75 0 0 1-.75-.75v-5.252Z" clip-rule="evenodd"/></svg>