<svg xmlns="http://www.w3.org/2000/svg" width="24" height="24" fill="none" viewBox="0 0 24 24"><path fill="currentColor" fill-rule="evenodd" d="M17.5 14.25a.75.75 0 0 1 .75.75v1a.75.75 0 1 1-1.5 0v-1a.75.75 0 0 1 .75-.75Zm0 5a.75.75 0 0 1 .75.75v1a.75.75 0 1 1-1.5 0v-1a.75.75 0 0 1 .75-.75Zm-3.256-3.114a.75.75 0 0 1 1.02-.292l.9.5a.75.75 0 1 1-.728 1.312l-.9-.5a.75.75 0 0 1-.292-1.02Zm4.3 2.5a.75.75 0 0 1 1.02-.292l.9.5a.75.75 0 1 1-.728 1.312l-.9-.5a.75.75 0 0 1-.292-1.02Zm-2.088 0a.75.75 0 0 1-.292 1.02l-.9.5a.75.75 0 0 1-.728-1.312l.9-.5a.75.75 0 0 1 1.02.292Zm4.3-2.5a.75.75 0 0 1-.292 1.02l-.9.5a.75.75 0 0 1-.728-1.312l.9-.5a.75.75 0 0 1 1.02.292Z" clip-rule="evenodd"/><path fill="currentColor" fill-rule="evenodd" d="M18.37 17.13c-.507-.507-1.233-.507-1.74 0-.507.507-.507 1.233 0 1.74.508.507 1.233.507 1.74 0 .507-.507.507-1.233 0-1.74Zm1.06-1.06c-1.093-1.093-2.767-1.093-3.86 0s-1.093 2.767 0 3.86 2.767 1.093 3.86 0 1.093-2.767 0-3.86Zm-6.027-1.18a.75.75 0 0 0-.655-.385H8.497a5.252 5.252 0 0 0-5.252 5.252c0 .414.336.75.75.75h8.503a.997.997 0 0 0 .668-.256 4.977 4.977 0 0 1-.665-2.495c0-1.067.333-2.055.902-2.867ZM6.996 8.002a5.002 5.002 0 1 1 10.004 0 5.002 5.002 0 0 1-10.004 0Z" clip-rule="evenodd"/></svg>