<svg xmlns="http://www.w3.org/2000/svg" width="24" height="24" fill="none" viewBox="0 0 24 24"><path fill="currentColor" fill-rule="evenodd" d="M17.5 14.25a.75.75 0 0 1 .75.75v1a.75.75 0 1 1-1.5 0v-1a.75.75 0 0 1 .75-.75Zm0 5a.75.75 0 0 1 .75.75v1a.75.75 0 1 1-1.5 0v-1a.75.75 0 0 1 .75-.75Zm-3.256-3.114a.75.75 0 0 1 1.02-.292l.9.5a.75.75 0 1 1-.728 1.312l-.9-.5a.75.75 0 0 1-.292-1.02Zm4.3 2.5a.75.75 0 0 1 1.02-.292l.9.5a.75.75 0 1 1-.728 1.312l-.9-.5a.75.75 0 0 1-.292-1.02Zm-2.088 0a.75.75 0 0 1-.292 1.02l-.9.5a.75.75 0 0 1-.728-1.312l.9-.5a.75.75 0 0 1 1.02.292Zm4.3-2.5a.75.75 0 0 1-.292 1.02l-.9.5a.75.75 0 0 1-.728-1.312l.9-.5a.75.75 0 0 1 1.02.292Z" clip-rule="evenodd"/><path fill="currentColor" fill-rule="evenodd" d="M18.37 17.13c-.507-.507-1.233-.507-1.74 0-.507.507-.507 1.233 0 1.74.508.507 1.233.507 1.74 0 .507-.507.507-1.233 0-1.74Zm1.06-1.06c-1.093-1.093-2.767-1.093-3.86 0s-1.093 2.767 0 3.86 2.767 1.093 3.86 0 1.093-2.767 0-3.86ZM11.998 4.5a3.502 3.502 0 1 0 0 7.004 3.502 3.502 0 0 0 0-7.004ZM6.996 8.002a5.002 5.002 0 1 1 10.004 0 5.002 5.002 0 0 1-10.004 0Zm1.501 8.003a3.752 3.752 0 0 0-3.752 3.752.75.75 0 0 1-1.5 0c0-2.9 2.351-5.252 5.252-5.252h4.251a.75.75 0 0 1 0 1.5H8.497Z" clip-rule="evenodd"/></svg>