<svg xmlns="http://www.w3.org/2000/svg" width="24" height="24" fill="none" viewBox="0 0 24 24"><path fill="currentColor" fill-rule="evenodd" d="M2.257 5.02a2.75 2.75 0 0 1 2.75-2.77h11.157c.73 0 1.429.29 1.944.806l2.828 2.828a2.75 2.75 0 0 1 .806 1.944V19a2.75 2.75 0 0 1-2.75 2.75l-13.985-.02A2.75 2.75 0 0 1 2.257 19V5.02Zm1.5-.01v13.979a1.25 1.25 0 0 0 1.25 1.24l13.985.021c.69 0 1.25-.56 1.25-1.25V7.828c0-.33-.132-.65-.366-.884l-2.828-2.828a1.249 1.249 0 0 0-.884-.366H5.007a1.25 1.25 0 0 0-1.25 1.26Z" clip-rule="evenodd"/><path fill="currentColor" fill-rule="evenodd" d="M7.993 2.25a.75.75 0 0 1 .75.75v3.909c0 .138.112.25.25.25h6a.25.25 0 0 0 .25-.25V3a.75.75 0 0 1 1.5 0v3.909a1.75 1.75 0 0 1-1.75 1.75h-6a1.75 1.75 0 0 1-1.75-1.75V3a.75.75 0 0 1 .75-.75Zm.293 10.5a.536.536 0 0 0-.536.536V21a.75.75 0 0 1-1.5 0v-7.714c0-1.124.912-2.036 2.036-2.036h7.429c1.124 0 2.035.912 2.035 2.036V21a.75.75 0 0 1-1.5 0v-7.714a.536.536 0 0 0-.535-.536H8.286Z" clip-rule="evenodd"/></svg>