<svg xmlns="http://www.w3.org/2000/svg" width="24" height="24" fill="none" viewBox="0 0 24 24"><path fill="currentColor" fill-rule="evenodd" d="M7.243 2.25H5.007a2.75 2.75 0 0 0-2.75 2.77V19a2.75 2.75 0 0 0 2.75 2.73l1.243.001v-8.445c0-1.124.912-2.036 2.036-2.036h7.429c1.123 0 2.035.912 2.035 2.036v8.462l1.242.002a2.75 2.75 0 0 0 2.75-2.75V7.828c0-.73-.29-1.429-.806-1.944l-2.828-2.828a2.75 2.75 0 0 0-1.365-.744v4.597a1.75 1.75 0 0 1-1.75 1.75h-6a1.75 1.75 0 0 1-1.75-1.75V2.25Zm8 0h-6.5v4.659c0 .138.112.25.25.25h6a.25.25 0 0 0 .25-.25V2.25Zm1.007 19.496v-8.46a.536.536 0 0 0-.535-.536h-7.43a.536.536 0 0 0-.535.536v8.447l8.5.013Z" clip-rule="evenodd"/></svg>