<svg xmlns="http://www.w3.org/2000/svg" width="24" height="24" fill="none" viewBox="0 0 24 24"><path fill="currentColor" fill-rule="evenodd" d="M14 14.151a.75.75 0 0 1 .75.75v5.66c.009.01.021.024.042.043.085.08.249.188.513.294.525.21 1.301.356 2.197.356.896 0 1.672-.146 2.196-.356.265-.106.428-.213.514-.294a.418.418 0 0 0 .04-.044v-5.659a.75.75 0 0 1 1.5 0v5.703c0 .465-.239.834-.51 1.09-.268.254-.617.449-.986.596-.743.297-1.716.464-2.754.464s-2.012-.167-2.754-.464c-.369-.147-.718-.342-.987-.596-.27-.256-.51-.624-.51-1.09v-5.703a.75.75 0 0 1 .75-.75Z" clip-rule="evenodd"/><path fill="currentColor" fill-rule="evenodd" d="M14.75 17.708a.75.75 0 0 0-1.498.044c0 .466.24.834.51 1.09.269.255.618.45.987.597.742.297 1.716.464 2.754.464s2.012-.167 2.754-.464c.369-.148.718-.342.987-.597.27-.256.51-.624.51-1.09a.75.75 0 0 0-1.499-.044.427.427 0 0 1-.042.044c-.085.081-.249.188-.513.294-.525.21-1.302.357-2.197.357-.896 0-1.672-.147-2.197-.357-.265-.106-.428-.213-.514-.294a.406.406 0 0 1-.041-.044ZM5.247 11a.75.75 0 0 1 .75-.75h1a.75.75 0 0 1 0 1.5h-1a.75.75 0 0 1-.75-.75Zm4.003 0a.75.75 0 0 1 .75-.75h1a.75.75 0 0 1 0 1.5h-1a.75.75 0 0 1-.75-.75Zm-4.003 3a.75.75 0 0 1 .75-.75h1a.75.75 0 1 1 0 1.5h-1a.75.75 0 0 1-.75-.75Zm4.003 0a.75.75 0 0 1 .75-.75h1a.75.75 0 1 1 0 1.5h-1a.75.75 0 0 1-.75-.75Z" clip-rule="evenodd"/><path fill="currentColor" fill-rule="evenodd" d="M5.247 11a.75.75 0 0 1 .75-.75h1a.75.75 0 0 1 0 1.5h-1a.75.75 0 0 1-.75-.75Zm4.003 0a.75.75 0 0 1 .75-.75h1a.75.75 0 0 1 0 1.5h-1a.75.75 0 0 1-.75-.75Zm-4.003 6.002a.75.75 0 0 1 .75-.75h1a.75.75 0 0 1 0 1.5h-1a.75.75 0 0 1-.75-.75Zm4.003 0a.75.75 0 0 1 .75-.75h1a.75.75 0 0 1 0 1.5h-1a.75.75 0 0 1-.75-.75Z" clip-rule="evenodd"/><path fill="currentColor" fill-rule="evenodd" d="M5.247 17.002a.75.75 0 0 1 .75-.75h1a.75.75 0 0 1 0 1.5h-1a.75.75 0 0 1-.75-.75Zm4.003 0a.75.75 0 0 1 .75-.75h1a.75.75 0 0 1 0 1.5h-1a.75.75 0 0 1-.75-.75ZM2.246 7.998a.75.75 0 0 1 .75-.75h15.007a.75.75 0 0 1 0 1.5H2.996a.75.75 0 0 1-.75-.75Z" clip-rule="evenodd"/><path fill="currentColor" fill-rule="evenodd" d="M4.997 3.746c-.69 0-1.25.56-1.25 1.251v13.006c0 .69.56 1.25 1.25 1.25H11a.75.75 0 1 1 0 1.5H4.997a2.75 2.75 0 0 1-2.75-2.75V4.997a2.75 2.75 0 0 1 2.75-2.75h11.005a2.75 2.75 0 0 1 2.75 2.75V11a.75.75 0 1 1-1.5 0V4.997c0-.69-.56-1.25-1.25-1.25H4.997Z" clip-rule="evenodd"/><path fill="currentColor" fill-rule="evenodd" d="M5.247 11a.75.75 0 0 1 .75-.75h1a.75.75 0 0 1 0 1.5h-1a.75.75 0 0 1-.75-.75Zm4.003 0a.75.75 0 0 1 .75-.75h1a.75.75 0 0 1 0 1.5h-1a.75.75 0 0 1-.75-.75Zm4 0a.75.75 0 0 1 .75-.75h1.001a.75.75 0 0 1 0 1.5h-1a.75.75 0 0 1-.75-.75Zm1.498 2.214c.743-.296 1.717-.463 2.754-.463s2.011.166 2.753.463c.37.148.719.342.988.597.27.256.51.624.51 1.09 0 .466-.24.834-.51 1.09-.269.254-.617.449-.986.596-.743.297-1.716.464-2.754.464s-2.012-.167-2.754-.463c-.37-.148-.718-.343-.987-.597-.26-.245-.49-.593-.509-1.031a.745.745 0 0 1-.002-.06c0-.466.24-.834.51-1.09.27-.253.618-.448.987-.596Zm.044 1.687c.086-.081.25-.188.514-.294.524-.21 1.3-.356 2.196-.356.895 0 1.672.146 2.197.356.264.106.428.213.513.293-.085.081-.248.189-.513.295-.524.21-1.3.356-2.196.356-.896 0-1.672-.146-2.197-.356-.265-.106-.429-.213-.514-.294Z" clip-rule="evenodd"/></svg>