<svg xmlns="http://www.w3.org/2000/svg" width="24" height="24" fill="none" viewBox="0 0 24 24"><path fill="currentColor" fill-rule="evenodd" d="M13.26 20.753H4.996a2.75 2.75 0 0 1-2.75-2.75V8.748h16.506v4.087a9.14 9.14 0 0 0-1.251-.084c-1.038 0-2.011.167-2.754.463-.369.148-.718.343-.987.597-.27.255-.51.624-.51 1.09v5.704c0 .05.003.1.008.148ZM2.245 4.997v2.251h16.507V4.997a2.75 2.75 0 0 0-2.751-2.75H4.997a2.75 2.75 0 0 0-2.75 2.75ZM14 10.25a.75.75 0 1 0 0 1.5h1a.75.75 0 0 0 0-1.5h-1ZM5.247 11a.75.75 0 0 1 .75-.75h1a.75.75 0 1 1 0 1.5h-1a.75.75 0 0 1-.75-.75Zm4.002 0a.75.75 0 0 1 .75-.75h1a.75.75 0 1 1 0 1.5h-1a.75.75 0 0 1-.75-.75Zm-3.252 2.25a.75.75 0 0 0 0 1.5h1a.75.75 0 0 0 0-1.5h-1ZM9.25 14a.75.75 0 0 1 .75-.75h1a.75.75 0 0 1 0 1.5h-1a.75.75 0 0 1-.75-.75Zm-3.252 2.252a.75.75 0 1 0 0 1.5h1a.75.75 0 0 0 0-1.5h-1Zm3.252.75a.75.75 0 0 1 .75-.75h1a.75.75 0 1 1 0 1.5h-1a.75.75 0 0 1-.75-.75Zm11.004-.413c-.742.296-1.714.462-2.75.462-1.037 0-2.01-.166-2.752-.463v1.12a.4.4 0 0 0 .041.044c.086.081.25.188.514.294.525.21 1.301.357 2.197.357.895 0 1.672-.147 2.197-.357.264-.106.428-.213.513-.294a.437.437 0 0 0 .04-.041v-1.122Zm-4.947-1.982c-.265.106-.428.213-.514.294.085.08.25.188.514.294.525.21 1.301.356 2.197.356.895 0 1.672-.146 2.196-.356.264-.106.428-.214.513-.295-.085-.08-.249-.187-.514-.293-.524-.21-1.3-.356-2.196-.356-.895 0-1.672.146-2.196.356Zm-.555 5.953v-1.12c.742.296 1.715.463 2.752.463 1.036 0 2.008-.167 2.75-.462v1.12a.407.407 0 0 1-.041.043c-.085.08-.25.188-.514.294-.524.21-1.3.356-2.196.356-.896 0-1.672-.146-2.197-.356-.264-.106-.428-.213-.513-.294a.418.418 0 0 1-.041-.044Z" clip-rule="evenodd"/></svg>