<svg xmlns="http://www.w3.org/2000/svg" width="24" height="24" fill="none" viewBox="0 0 24 24"><path fill="currentColor" fill-rule="evenodd" d="M7 3.75c-.69 0-1.25.56-1.25 1.25v4a.75.75 0 0 1-1.5 0V5A2.75 2.75 0 0 1 7 2.25h12A2.75 2.75 0 0 1 21.75 5v13A2.75 2.75 0 0 1 19 20.75h-4a.75.75 0 0 1 0-1.5h4c.69 0 1.25-.56 1.25-1.25V5c0-.69-.56-1.25-1.25-1.25H7Z" clip-rule="evenodd"/><path fill="currentColor" fill-rule="evenodd" d="M14.25 7a.75.75 0 0 1 .75-.75h2a.75.75 0 0 1 .75.75v2a.75.75 0 0 1-1.5 0V7.75H15a.75.75 0 0 1-.75-.75Zm-3.336.532a.75.75 0 0 1 1.055-.118l2.5 2a.75.75 0 1 1-.938 1.172l-2.5-2a.75.75 0 0 1-.117-1.054Z" clip-rule="evenodd"/><path fill="currentColor" fill-rule="evenodd" d="M12.03 7.47a.75.75 0 0 1 0 1.06l-1.5 1.5a.75.75 0 1 1-1.06-1.06l1.5-1.5a.75.75 0 0 1 1.06 0Zm5.5-1a.75.75 0 0 1 0 1.06l-2.998 3a.75.75 0 0 1-1.06-1.06l2.998-3a.75.75 0 0 1 1.06 0ZM14.25 13a.75.75 0 0 1 .75-.75h2a.75.75 0 0 1 0 1.5h-2a.75.75 0 0 1-.75-.75Zm0 3a.75.75 0 0 1 .75-.75h2a.75.75 0 0 1 0 1.5h-2a.75.75 0 0 1-.75-.75Zm-13-1A3.75 3.75 0 0 1 5 11.25h4A3.75 3.75 0 0 1 12.75 15v4A3.75 3.75 0 0 1 9 22.75H5A3.75 3.75 0 0 1 1.25 19v-4ZM5 12.75A2.25 2.25 0 0 0 2.75 15v4A2.25 2.25 0 0 0 5 21.25h4A2.25 2.25 0 0 0 11.25 19v-4A2.25 2.25 0 0 0 9 12.75H5Z" clip-rule="evenodd"/><path fill="currentColor" fill-rule="evenodd" d="M9.098 15.686a.75.75 0 0 1 0 1.06l-1.999 2a.75.75 0 0 1-1.06.001l-1.201-1.2a.75.75 0 1 1 1.06-1.06l.67.67 1.47-1.47a.75.75 0 0 1 1.06 0Z" clip-rule="evenodd"/></svg>