<svg xmlns="http://www.w3.org/2000/svg" width="24" height="24" fill="none" viewBox="0 0 24 24"><path fill="currentColor" fill-rule="evenodd" d="M5 9.75A.75.75 0 0 1 4.25 9V5A2.75 2.75 0 0 1 7 2.25h12A2.75 2.75 0 0 1 21.75 5v13A2.75 2.75 0 0 1 19 20.75h-4a.75.75 0 0 1-.75-.75v-3.25H17a.75.75 0 0 0 0-1.5h-2.75V15c0-.521-.076-1.025-.217-1.5h2.717a.75.75 0 0 0 0-1.5h-3a.747.747 0 0 0-.373.1 5.262 5.262 0 0 0-2.806-2.11l.985-.985 1.976 1.58a.748.748 0 0 0 1-.055l1.718-1.719V9a.75.75 0 0 0 1.5 0V7a.748.748 0 0 0-.215-.525l-.011-.012A.748.748 0 0 0 17 6.25h-2a.75.75 0 0 0 0 1.5h.19l-1.245 1.246-1.97-1.576a.744.744 0 0 0-.516-.169.748.748 0 0 0-.496.225L8.69 9.75H5Z" clip-rule="evenodd"/><path fill="currentColor" fill-rule="evenodd" d="M5 11.25A3.75 3.75 0 0 0 1.25 15v4A3.75 3.75 0 0 0 5 22.75h4A3.75 3.75 0 0 0 12.75 19v-4A3.75 3.75 0 0 0 9 11.25H5Zm4.098 5.497a.75.75 0 0 0-1.06-1.06l-1.47 1.47-.67-.67a.75.75 0 0 0-1.06 1.06l1.2 1.2a.75.75 0 0 0 1.061 0l2-2Z" clip-rule="evenodd"/></svg>