<svg xmlns="http://www.w3.org/2000/svg" width="24" height="24" fill="none" viewBox="0 0 24 24"><path fill="currentColor" fill-rule="evenodd" d="M10.97 3.75a7.22 7.22 0 1 0 0 14.44 7.22 7.22 0 1 0 0-14.44Zm-9.22 7.22a9.22 9.22 0 0 1 9.22-9.22 9.22 9.22 0 0 1 9.22 9.22 9.22 9.22 0 0 1-9.22 9.22 9.22 9.22 0 0 1-9.22-9.22Z" clip-rule="evenodd"/><path fill="currentColor" fill-rule="evenodd" d="M16.433 16.433a1 1 0 0 1 1.414 0l4.11 4.11a1 1 0 1 1-1.414 1.414l-4.11-4.11a1 1 0 0 1 0-1.414Z" clip-rule="evenodd"/></svg>