<svg xmlns="http://www.w3.org/2000/svg" width="24" height="24" fill="none" viewBox="0 0 24 24"><path fill="currentColor" fill-rule="evenodd" d="M8.962 3.664a1.647 1.647 0 0 1 1.63-1.414h2.817c.818 0 1.514.602 1.63 1.414l.216 1.512c.004.026.026.078.106.119.264.132.517.28.759.44.073.049.13.043.157.032l1.42-.57a1.648 1.648 0 0 1 2.04.706l1.411 2.441a1.648 1.648 0 0 1-.41 2.122l-1.262.987a6.48 6.48 0 0 1 0 1.094l1.26.986c.647.505.823 1.412.412 2.123l-1.412 2.442a1.65 1.65 0 0 1-2.04.705l-1.424-.571c-.03-.012-.084-.017-.151.028a7.62 7.62 0 0 1-.76.444c-.081.041-.102.092-.106.12l-.217 1.512a1.647 1.647 0 0 1-1.63 1.414h-2.817a1.647 1.647 0 0 1-1.63-1.414l-.217-1.512c-.004-.028-.025-.079-.106-.12a7.625 7.625 0 0 1-.76-.444c-.067-.045-.122-.04-.151-.028l-1.423.571a1.647 1.647 0 0 1-2.04-.705l-1.412-2.442a1.648 1.648 0 0 1 .41-2.122l1.262-.987A6.7 6.7 0 0 1 4.5 12c0-.186.01-.37.024-.547l-1.26-.986a1.648 1.648 0 0 1-.412-2.122l1.411-2.442a1.648 1.648 0 0 1 2.04-.706h.002l1.42.571c.03.012.086.017.156-.029a7.81 7.81 0 0 1 .756-.441c.081-.042.103-.095.107-.12l.218-1.514ZM9.56 9.56a3.45 3.45 0 1 1 4.88 4.88 3.45 3.45 0 0 1-4.88-4.88Z" clip-rule="evenodd"/></svg>