<svg xmlns="http://www.w3.org/2000/svg" width="24" height="24" fill="none" viewBox="0 0 24 24"><path fill="currentColor" fill-rule="evenodd" d="M10.592 2.25c-.818 0-1.514.602-1.63 1.414l-.218 1.513c-.004.026-.026.08-.107.12a7.81 7.81 0 0 0-.756.442c-.07.046-.126.04-.155.03l-1.421-.572h-.002a1.648 1.648 0 0 0-2.04.706L2.852 8.345a1.648 1.648 0 0 0 .411 2.122l1.26.986A6.7 6.7 0 0 0 4.5 12c0 .186.01.37.024.547l-1.262.987a1.648 1.648 0 0 0-.41 2.122l1.411 2.442a1.649 1.649 0 0 0 2.041.705l1.423-.571c.03-.012.084-.017.151.028.243.161.496.31.76.444.08.041.102.092.106.12l.216 1.512a1.647 1.647 0 0 0 1.631 1.414h2.817c.818 0 1.514-.602 1.63-1.413l.217-1.514c.004-.027.025-.078.106-.12a7.62 7.62 0 0 0 .76-.443c.067-.045.122-.04.151-.028l1.424.571a1.65 1.65 0 0 0 2.04-.705l1.412-2.442a1.648 1.648 0 0 0-.411-2.123l-1.26-.986a6.727 6.727 0 0 0 0-1.094l1.26-.987c.646-.505.823-1.41.411-2.122l-1.411-2.441a1.648 1.648 0 0 0-2.04-.706l-1.42.57c-.027.01-.084.017-.157-.031a7.351 7.351 0 0 0-.759-.441c-.08-.04-.102-.093-.106-.12l-.216-1.511a1.647 1.647 0 0 0-1.63-1.414h-2.817Zm0 1.5a.147.147 0 0 0-.146.126l-.218 1.515a1.67 1.67 0 0 1-.91 1.243 6.321 6.321 0 0 0-.612.358l-.002.001a1.667 1.667 0 0 1-1.538.167l-1.42-.57a.148.148 0 0 0-.183.061L4.15 9.095a.148.148 0 0 0 .037.19l1.588 1.242a.75.75 0 0 1 .282.684A6.403 6.403 0 0 0 6 12c0 .253.023.516.057.789a.75.75 0 0 1-.282.684l-1.587 1.241a.148.148 0 0 0-.038.19l1.412 2.444a.149.149 0 0 0 .184.063l1.421-.57a1.662 1.662 0 0 1 1.54.169c.198.13.401.25.61.356.458.233.83.672.911 1.245l.217 1.512c.01.072.073.127.146.127h2.817a.147.147 0 0 0 .146-.126l.216-1.512a1.667 1.667 0 0 1 .918-1.247c.207-.104.408-.222.604-.351a1.666 1.666 0 0 1 1.545-.172l1.417.569a.15.15 0 0 0 .184-.064l1.412-2.443a.148.148 0 0 0-.037-.19l-1.588-1.241a.75.75 0 0 1-.282-.684A6.4 6.4 0 0 0 18 12a6.4 6.4 0 0 0-.057-.789.75.75 0 0 1 .282-.684l1.587-1.241a.148.148 0 0 0 .038-.19L18.437 6.65a.148.148 0 0 0-.184-.062l-1.418.57a1.669 1.669 0 0 1-1.543-.172 5.854 5.854 0 0 0-.603-.352 1.668 1.668 0 0 1-.918-1.247l-.216-1.512a.147.147 0 0 0-.146-.126h-2.817Z" clip-rule="evenodd"/><path fill="currentColor" fill-rule="evenodd" d="M13.379 10.621a1.95 1.95 0 1 0-2.758 2.758 1.95 1.95 0 0 0 2.758-2.758Zm1.06-1.06A3.45 3.45 0 1 0 9.56 14.44a3.45 3.45 0 0 0 4.88-4.88Z" clip-rule="evenodd"/></svg>