<svg xmlns="http://www.w3.org/2000/svg" width="24" height="24" fill="none" viewBox="0 0 24 24"><path fill="currentColor" fill-rule="evenodd" d="M9.083 9.584a3.417 3.417 0 1 0-4.832 4.832 3.417 3.417 0 0 0 4.832-4.832ZM19.75 4.25a3.417 3.417 0 1 0-4.833 4.833 3.417 3.417 0 0 0 4.832-4.832Zm0 10.667a3.417 3.417 0 1 0-4.833 4.832 3.417 3.417 0 0 0 4.832-4.832Z" clip-rule="evenodd"/><path fill="currentColor" fill-rule="evenodd" d="M15.63 7.515a.75.75 0 0 1-.335 1.006l-5.92 2.96a.75.75 0 1 1-.67-1.342l5.92-2.96a.75.75 0 0 1 1.006.336Zm-7.26 5.34a.75.75 0 0 1 1.005-.336l5.92 2.96a.75.75 0 1 1-.67 1.342l-5.92-2.96a.75.75 0 0 1-.336-1.006Z" clip-rule="evenodd"/></svg>