<svg xmlns="http://www.w3.org/2000/svg" width="24" height="24" fill="none" viewBox="0 0 24 24"><path fill="currentColor" fill-rule="evenodd" d="M8.023 10.645a1.917 1.917 0 1 0-2.712 2.71 1.917 1.917 0 0 0 2.712-2.71Zm1.06-1.061a3.417 3.417 0 1 0-4.832 4.832 3.417 3.417 0 0 0 4.832-4.832Zm9.606-4.273a1.917 1.917 0 1 0-2.712 2.711 1.917 1.917 0 0 0 2.712-2.71Zm1.06-1.06a3.417 3.417 0 1 0-4.832 4.832 3.417 3.417 0 0 0 4.832-4.832Zm-1.06 11.726a1.917 1.917 0 1 0-2.712 2.711 1.917 1.917 0 0 0 2.712-2.71Zm1.06-1.06a3.417 3.417 0 1 0-4.832 4.832 3.417 3.417 0 0 0 4.832-4.832Z" clip-rule="evenodd"/><path fill="currentColor" fill-rule="evenodd" d="M15.63 7.515a.75.75 0 0 1-.335 1.006l-5.92 2.96a.75.75 0 1 1-.67-1.342l5.92-2.96a.75.75 0 0 1 1.006.336Zm-7.26 5.34a.75.75 0 0 1 1.005-.336l5.92 2.96a.75.75 0 1 1-.67 1.342l-5.92-2.96a.75.75 0 0 1-.336-1.006Z" clip-rule="evenodd"/></svg>