<svg xmlns="http://www.w3.org/2000/svg" width="24" height="24" fill="none" viewBox="0 0 24 24"><path fill="currentColor" fill-rule="evenodd" d="M12 3.5a.85.85 0 1 0 0 1.7.85.85 0 0 0 0-1.7Zm-2.35.85a2.35 2.35 0 1 1 4.7 0 2.35 2.35 0 0 1-4.7 0Z" clip-rule="evenodd"/><path fill="currentColor" fill-rule="evenodd" d="M10.981 4.87A.75.75 0 0 1 11 5.932l-5.65 5.85a.75.75 0 0 1-1.078-1.042l5.65-5.85a.75.75 0 0 1 1.06-.018Zm1.958 0a.75.75 0 0 1 1.06.019l5.65 5.85a.75.75 0 1 1-1.079 1.042l-5.65-5.85a.75.75 0 0 1 .019-1.06Z" clip-rule="evenodd"/><path fill="currentColor" fill-rule="evenodd" d="m20.427 18.972.001-.019.497-6.943h.325a.75.75 0 0 0 0-1.5H2.75a.75.75 0 0 0 0 1.5h.24l.593 6.954v.008C3.738 20.552 4.856 22 6.44 22h11.13c1.585 0 2.703-1.447 2.857-3.028ZM7.83 14.44a.75.75 0 0 1 .75.75v2.13a.75.75 0 0 1-1.5 0v-2.13a.75.75 0 0 1 .75-.75Zm4.11 0a.75.75 0 0 1 .75.75v2.13a.75.75 0 0 1-1.5 0v-2.13a.75.75 0 0 1 .75-.75Zm4.86.75a.75.75 0 0 0-1.5 0v2.13a.75.75 0 0 0 1.5 0v-2.13Z" clip-rule="evenodd"/></svg>