<svg xmlns="http://www.w3.org/2000/svg" width="24" height="24" fill="none" viewBox="0 0 24 24"><path fill="currentColor" fill-rule="evenodd" d="M5.291 6.528a.75.75 0 0 1 .583-.278H18.5a1.75 1.75 0 0 1 1.698 2.175l-1.348 5.392a2.75 2.75 0 0 1-2.394 2.07l-6.816.681a2.751 2.751 0 0 1-2.965-2.167L5.14 7.155a.75.75 0 0 1 .151-.627ZM6.8 7.75l1.343 6.34a1.25 1.25 0 0 0 1.347.986l6.816-.682a1.25 1.25 0 0 0 1.088-.94c0-.001 0 0 0 0l1.348-5.393a.25.25 0 0 0-.242-.311H6.8Z" clip-rule="evenodd"/><path fill="currentColor" fill-rule="evenodd" d="M2.75 4a.75.75 0 0 1 .75-.75h1.724a.75.75 0 0 1 .733.591l.65 3a.75.75 0 1 1-1.466.318L4.619 4.75H3.5A.75.75 0 0 1 2.75 4Z" clip-rule="evenodd"/><path fill="currentColor" d="M9.887 19.566a1.2 1.2 0 1 1-2.4 0 1.2 1.2 0 0 1 2.4 0Zm8.415 0a1.2 1.2 0 1 1-2.4 0 1.2 1.2 0 0 1 2.4 0Z"/></svg>