<svg xmlns="http://www.w3.org/2000/svg" width="24" height="24" fill="none" viewBox="0 0 24 24"><path fill="currentColor" fill-rule="evenodd" d="M4.22 10.14a.75.75 0 0 1 .75.75v10a.75.75 0 0 1-1.5 0v-10a.75.75 0 0 1 .75-.75Zm15.56 0a.75.75 0 0 1 .75.75v10a.75.75 0 0 1-1.5 0v-10a.75.75 0 0 1 .75-.75ZM9.028 16.445a2.972 2.972 0 0 1 5.944 0v4.444a.75.75 0 0 1-1.5 0v-4.444a1.472 1.472 0 0 0-2.944 0v4.444a.75.75 0 0 1-1.5 0v-4.444Z" clip-rule="evenodd"/><path fill="currentColor" fill-rule="evenodd" d="M1.25 20.89a.75.75 0 0 1 .75-.75h20a.75.75 0 1 1 0 1.5H2a.75.75 0 0 1-.75-.75Zm13.318-9.251c.986 0 1.93-.402 2.557-1.07.63.67 1.586 1.07 2.575 1.07h.005c2.188-.015 3.751-2.226 2.733-4.232L20.722 4.03c-.526-1.036-1.616-1.669-2.784-1.669H6.062c-1.168 0-2.258.634-2.784 1.67L1.563 7.406c-1.018 2.006.546 4.216 2.733 4.232H4.3c.99 0 1.947-.4 2.577-1.072.626.67 1.571 1.072 2.558 1.072.991 0 1.94-.405 2.566-1.08.627.675 1.575 1.08 2.566 1.08ZM6.062 3.861c-.636 0-1.19.344-1.446.849L2.9 8.087c-.453.892.196 2.042 1.403 2.052.836 0 1.816-.521 1.816-1.461a.75.75 0 0 1 1.5 0c0 .706.705 1.461 1.816 1.461 1.111 0 1.816-.755 1.816-1.461a.75.75 0 0 1 1.5 0c0 .706.704 1.461 1.816 1.461s1.816-.755 1.816-1.461a.75.75 0 0 1 1.5 0c0 .94.975 1.46 1.813 1.461 1.207-.01 1.856-1.16 1.403-2.052L19.384 4.71c-.256-.504-.81-.849-1.446-.849H6.062Z" clip-rule="evenodd"/></svg>