<svg xmlns="http://www.w3.org/2000/svg" width="24" height="24" fill="none" viewBox="0 0 24 24"><path fill="currentColor" fill-rule="evenodd" d="M12 3.5a.85.85 0 1 0 0 1.7.85.85 0 0 0 0-1.7Zm-2.35.85a2.35 2.35 0 1 1 4.7 0 2.35 2.35 0 0 1-4.7 0Z" clip-rule="evenodd"/><path fill="currentColor" fill-rule="evenodd" d="M10.981 4.87A.75.75 0 0 1 11 5.932l-5.65 5.85a.75.75 0 0 1-1.078-1.042l5.65-5.85a.75.75 0 0 1 1.06-.018Zm1.958 0a.75.75 0 0 1 1.06.019l5.65 5.85a.75.75 0 1 1-1.079 1.042l-5.65-5.85a.75.75 0 0 1 .019-1.06Z" clip-rule="evenodd"/><path fill="currentColor" fill-rule="evenodd" d="M3.616 10.523a.75.75 0 0 1 .811.683l.65 7.626c.108 1.097.81 1.668 1.363 1.668h11.13c.553 0 1.253-.57 1.363-1.664l.529-7.4a.75.75 0 1 1 1.496.107l-.53 7.41-.002.02C20.274 20.552 19.157 22 17.57 22H6.44c-1.585 0-2.703-1.447-2.857-3.028v-.008l-.65-7.63a.75.75 0 0 1 .683-.811Z" clip-rule="evenodd"/><path fill="currentColor" fill-rule="evenodd" d="M11.94 14.44a.75.75 0 0 1 .75.75v2.13a.75.75 0 1 1-1.5 0v-2.13a.75.75 0 0 1 .75-.75Zm-4.11 0a.75.75 0 0 1 .75.75v2.13a.75.75 0 1 1-1.5 0v-2.13a.75.75 0 0 1 .75-.75Zm8.22 0a.75.75 0 0 1 .75.75v2.13a.75.75 0 1 1-1.5 0v-2.13a.75.75 0 0 1 .75-.75ZM2 11.26a.75.75 0 0 1 .75-.75h18.5a.75.75 0 0 1 0 1.5H2.75a.75.75 0 0 1-.75-.75Z" clip-rule="evenodd"/></svg>