<svg xmlns="http://www.w3.org/2000/svg" width="24" height="24" fill="none" viewBox="0 0 24 24"><path fill="currentColor" fill-rule="evenodd" d="M12 4.25c-1.963 0-3.868.849-5.5 2.11-1.637 1.265-3.05 2.982-4.042 4.816a1.738 1.738 0 0 0 0 1.648c.992 1.834 2.404 3.55 4.041 4.815C8.132 18.901 10.037 19.75 12 19.75c1.963 0 3.868-.849 5.5-2.11 1.637-1.265 3.05-2.982 4.042-4.816a1.738 1.738 0 0 0 0-1.648c-.992-1.834-2.405-3.55-4.041-4.815C15.868 5.099 13.963 4.25 12 4.25ZM9.374 9.374a3.714 3.714 0 1 1 5.252 5.252 3.714 3.714 0 0 1-5.252-5.252Z" clip-rule="evenodd"/></svg>