<svg xmlns="http://www.w3.org/2000/svg" width="24" height="24" fill="none" viewBox="0 0 24 24"><path fill="currentColor" fill-rule="evenodd" d="M7.91 18.849a1.416 1.416 0 0 0 2.343.604l.522-.508-2.097-1.549a1.593 1.593 0 0 1-.124-2.465l1.497-1.353 2.09-1.89 1.46-1.318a.75.75 0 1 1 1.005 1.114l-1.46 1.318-2.092 1.89c-.623.564-1.2 1.087-1.495 1.352a.093.093 0 0 0 .01.145l5.378 3.973-.002.003.24.178a1.655 1.655 0 0 0 2.602-.987l2.64-12.447c.253-1.186-.912-2.174-2.04-1.74L2.873 11.153c-1.122.433-1.064 2.034.079 2.391l3.699 1.154 1.26 4.151Z" clip-rule="evenodd"/></svg>