<svg xmlns="http://www.w3.org/2000/svg" width="24" height="24" fill="none" viewBox="0 0 24 24"><path fill="currentColor" fill-rule="evenodd" d="M7.034 13.383a.75.75 0 0 1 .936.5l1.336 4.399 1.966-1.913a.75.75 0 1 1 1.046 1.075l-2.065 2.009a1.416 1.416 0 0 1-2.343-.604l-1.376-4.53a.75.75 0 0 1 .5-.936Z" clip-rule="evenodd"/><path fill="currentColor" d="M17.787 19.356a1.655 1.655 0 0 1-2.602.987l-5.377-3.972a1.593 1.593 0 0 1-.124-2.466l2.457-2.217 1.46-1.318a.75.75 0 1 1 1.005 1.114l-1.46 1.318-2.457 2.217a.093.093 0 0 0 .01.145l5.378 3.973c.09.066.219.018.242-.093L18.96 6.597c.005-.02-.013-.036-.033-.028l-14.89 5.743 3.437 1.072a.75.75 0 0 1-.446 1.432L2.95 13.544c-1.143-.357-1.2-1.958-.079-2.39l15.516-5.985c1.127-.434 2.291.554 2.04 1.74l-2.641 12.447Z"/></svg>