<svg xmlns="http://www.w3.org/2000/svg" width="24" height="24" fill="none" viewBox="0 0 24 24"><path fill="currentColor" fill-rule="evenodd" d="M7.496 3.75A3.745 3.745 0 0 0 3.75 7.496v9.008a3.745 3.745 0 0 0 3.746 3.746h9.008a3.745 3.745 0 0 0 3.746-3.745V7.496a3.745 3.745 0 0 0-3.745-3.746H7.496Zm0-1.5h9.009a5.245 5.245 0 0 1 5.245 5.246v9.009a5.245 5.245 0 0 1-5.246 5.245H7.496a5.245 5.245 0 0 1-5.246-5.246V7.496A5.245 5.245 0 0 1 7.496 2.25Z" clip-rule="evenodd"/><path fill="currentColor" fill-rule="evenodd" d="M14.015 9.985a2.85 2.85 0 1 0-4.03 4.03 2.85 2.85 0 0 0 4.03-4.03Zm1.06-1.06a4.35 4.35 0 1 0-6.15 6.15 4.35 4.35 0 0 0 6.15-6.15Z" clip-rule="evenodd"/><circle cx="16.95" cy="7.05" r="1.1" fill="currentColor"/></svg>