<svg xmlns="http://www.w3.org/2000/svg" width="24" height="24" fill="none" viewBox="0 0 24 24"><path fill="currentColor" fill-rule="evenodd" d="M16.504 2.25H7.5A5.25 5.25 0 0 0 2.25 7.5v9.004a5.246 5.246 0 0 0 5.246 5.246h4.654v-8.1H11.1a.75.75 0 0 1 0-1.5h1.05v-1.095a3.405 3.405 0 0 1 3.405-3.405h.945a.75.75 0 0 1 0 1.5h-.945a1.905 1.905 0 0 0-1.905 1.905v1.095h2.85a.75.75 0 0 1 0 1.5h-2.85v8.1h2.854a5.246 5.246 0 0 0 5.246-5.245V7.496a5.246 5.246 0 0 0-5.246-5.246Z" clip-rule="evenodd"/></svg>