<svg xmlns="http://www.w3.org/2000/svg" width="24" height="24" fill="none" viewBox="0 0 24 24"><path fill="currentColor" fill-rule="evenodd" d="M4 4.25a.25.25 0 0 0-.25.25v2.532a.25.25 0 0 0 .09.192l6.64 5.533a.75.75 0 0 1 .27.576v5.953l2.362-1.18a.25.25 0 0 0 .138-.224v-4.549a.75.75 0 0 1 .27-.576l6.64-5.533a.25.25 0 0 0 .09-.192V4.5a.25.25 0 0 0-.25-.25H4Zm-1.75.25c0-.966.784-1.75 1.75-1.75h16c.966 0 1.75.784 1.75 1.75v2.532a1.75 1.75 0 0 1-.63 1.344l-6.37 5.308v4.198c0 .663-.374 1.269-.968 1.565l-2.724 1.362A1.25 1.25 0 0 1 9.25 19.69v-6.007L2.88 8.376a1.75 1.75 0 0 1-.63-1.344V4.5Z" clip-rule="evenodd"/><path fill="currentColor" fill-rule="evenodd" d="M2.37 7.5a.75.75 0 0 1 .75-.75h17.76a.75.75 0 0 1 0 1.5H3.12a.75.75 0 0 1-.75-.75Z" clip-rule="evenodd"/></svg>