<svg xmlns="http://www.w3.org/2000/svg" width="24" height="24" fill="none" viewBox="0 0 24 24"><path fill="currentColor" fill-rule="evenodd" d="M4.444 15.584a.194.194 0 0 0-.194.194v3.778c0 .107.087.194.194.194h4.723a.75.75 0 0 1 0 1.5H4.444c-.937 0-1.694-.76-1.694-1.694v-3.778c0-.937.76-1.694 1.694-1.694h4.722a.75.75 0 0 1 0 1.5H4.444Zm9.639-11.14c0-.935.759-1.694 1.694-1.694h3.778c.935 0 1.694.757 1.694 1.694v15.112c0 .935-.757 1.694-1.694 1.694h-4.722a.75.75 0 0 1-.75-.75V4.444Zm1.5 0V19.75h3.972a.194.194 0 0 0 .194-.194V4.444a.194.194 0 0 0-.194-.194h-3.778a.194.194 0 0 0-.194.194Z" clip-rule="evenodd"/><path fill="currentColor" fill-rule="evenodd" d="M10.11 9.917a.194.194 0 0 0-.194.194v9.639h4.917a.75.75 0 0 1 0 1.5H9.166a.75.75 0 0 1-.75-.75V10.111c0-.937.76-1.694 1.694-1.694h4.722a.75.75 0 0 1 0 1.5H10.11Z" clip-rule="evenodd"/></svg>