<svg xmlns="http://www.w3.org/2000/svg" width="24" height="24" fill="none" viewBox="0 0 24 24"><path fill="currentColor" fill-rule="evenodd" d="M7.233 7.229a1.139 1.139 0 1 1 1.61 1.61 1.139 1.139 0 0 1-1.61-1.61Z" clip-rule="evenodd"/><path fill="currentColor" fill-rule="evenodd" d="M12.04 3.049a2.733 2.733 0 0 0-1.954-.799l-2.848.025a2.729 2.729 0 0 0-1.908.8l-2.28 2.28a2.732 2.732 0 0 0-.8 1.932v2.812c0 .725.288 1.42.8 1.931l8.91 8.914a2.75 2.75 0 0 0 3.891 0l5.094-5.097a2.75 2.75 0 0 0 0-3.89L12.041 3.05v-.001ZM10.982 4.11a1.233 1.233 0 0 0-.88-.361l-2.85.025a1.23 1.23 0 0 0-.86.36L4.11 6.416c-.23.23-.361.544-.361.871v2.812c0 .327.13.64.36.87l8.911 8.915a1.25 1.25 0 0 0 1.77 0l5.093-5.097a1.251 1.251 0 0 0 0-1.769L10.98 4.111Z" clip-rule="evenodd"/></svg>