<svg xmlns="http://www.w3.org/2000/svg" width="24" height="24" fill="none" viewBox="0 0 24 24"><path fill="currentColor" fill-rule="evenodd" d="M20.753 6.998a2.75 2.75 0 0 0-2.75-2.75H16V6.5H8V4.247H5.997a2.75 2.75 0 0 0-2.75 2.75v12.006a2.75 2.75 0 0 0 2.75 2.75h12.005a2.75 2.75 0 0 0 2.751-2.75V6.998ZM7.112 12.017a.874.874 0 1 1 1.748-.013.874.874 0 0 1-1.748.013Zm4-.756a.75.75 0 1 0 0 1.5h5a.75.75 0 1 0 0-1.5h-5Zm0 4a.75.75 0 1 0 0 1.5h5a.75.75 0 1 0 0-1.5h-5Zm-3.126-.125a.874.874 0 1 0 0 1.749.874.874 0 0 0 0-1.749Z" clip-rule="evenodd"/><path fill="currentColor" fill-rule="evenodd" d="M7.248 3.996c0-.966.784-1.75 1.75-1.75h6.004c.966 0 1.75.784 1.75 1.75v2.002a1.75 1.75 0 0 1-1.75 1.75H8.998a1.75 1.75 0 0 1-1.75-1.75V3.996Zm1.75-.25a.25.25 0 0 0-.25.25v2.002c0 .138.112.25.25.25h6.004a.25.25 0 0 0 .25-.25V3.996a.25.25 0 0 0-.25-.25H8.998Z" clip-rule="evenodd"/></svg>