<svg xmlns="http://www.w3.org/2000/svg" width="24" height="24" fill="none" viewBox="0 0 24 24"><path fill="currentColor" fill-rule="evenodd" d="M7.248 3.996c0-.966.784-1.75 1.75-1.75h6.004c.966 0 1.75.784 1.75 1.75v2.002a1.75 1.75 0 0 1-1.75 1.75H8.998a1.75 1.75 0 0 1-1.75-1.75V3.996Zm1.75-.25a.25.25 0 0 0-.25.25v2.002c0 .138.112.25.25.25h6.004a.25.25 0 0 0 .25-.25V3.996a.25.25 0 0 0-.25-.25H8.998Z" clip-rule="evenodd"/><path fill="currentColor" fill-rule="evenodd" d="M5.997 5.747c-.69 0-1.25.56-1.25 1.251v12.005c0 .69.56 1.25 1.25 1.25h12.005a1.25 1.25 0 0 0 1.251-1.25V6.998c0-.69-.56-1.25-1.25-1.25h-2.001a.75.75 0 0 1 0-1.5h2a2.75 2.75 0 0 1 2.751 2.75v12.005a2.75 2.75 0 0 1-2.75 2.75H5.996a2.75 2.75 0 0 1-2.75-2.75V6.998a2.75 2.75 0 0 1 2.75-2.75h2.001a.75.75 0 0 1 0 1.5h-2Z" clip-rule="evenodd"/><path fill="currentColor" fill-rule="evenodd" d="M10.362 12.011a.75.75 0 0 1 .75-.75h5a.75.75 0 0 1 0 1.5h-5a.75.75 0 0 1-.75-.75Zm0 4a.75.75 0 0 1 .75-.75h5a.75.75 0 0 1 0 1.5h-5a.75.75 0 0 1-.75-.75Zm-3.25-3.994a.874.874 0 1 1 1.748-.013.874.874 0 0 1-1.748.013Zm0 4a.874.874 0 1 1 1.748-.013.874.874 0 0 1-1.748.013Z" clip-rule="evenodd"/></svg>