<svg xmlns="http://www.w3.org/2000/svg" width="24" height="24" fill="none" viewBox="0 0 24 24"><path fill="currentColor" fill-rule="evenodd" d="M17.834 6.166A8.25 8.25 0 1 0 6.166 17.833 8.25 8.25 0 0 0 17.834 6.167Zm1.06-1.06c3.808 3.807 3.808 9.98 0 13.788-3.807 3.808-9.98 3.808-13.788 0-3.808-3.807-3.808-9.98 0-13.788 3.807-3.808 9.98-3.808 13.788 0Z" clip-rule="evenodd"/><path fill="currentColor" fill-rule="evenodd" d="M11.719 5.986a.75.75 0 0 1 .75.75v5.902l4.556 2.718a.75.75 0 1 1-.768 1.288l-4.922-2.936a.75.75 0 0 1-.366-.644V6.736a.75.75 0 0 1 .75-.75Z" clip-rule="evenodd"/></svg>