<svg xmlns="http://www.w3.org/2000/svg" width="24" height="24" fill="none" viewBox="0 0 24 24"><path fill="currentColor" fill-rule="evenodd" d="M12.125 4.25c-3.152 0-5.793 2.167-6.535 5.086-2.49.406-4.4 2.552-4.4 5.164 0 2.9 2.35 5.25 5.25 5.25h3.438A2.246 2.246 0 0 1 9.75 19v-2.752a2.25 2.25 0 0 1-1.508-3.84l2.167-2.166a2.25 2.25 0 0 1 3.182 0l2.167 2.167a2.25 2.25 0 0 1-1.508 3.84V19c0 .263-.045.515-.128.75h4.438a4.256 4.256 0 0 0 4.25-4.25 4.257 4.257 0 0 0-3.935-4.238V11a6.755 6.755 0 0 0-6.75-6.75Zm-.122 15.5a.75.75 0 0 0 .747-.75v-5.356l.887.886a.749.749 0 0 0 1.06 0 .75.75 0 0 0 0-1.06l-2.167-2.167a.748.748 0 0 0-1.06 0L9.303 13.47a.75.75 0 1 0 1.06 1.06l.887-.886V19a.75.75 0 0 0 .746.75h.007Z" clip-rule="evenodd"/></svg>