<svg xmlns="http://www.w3.org/2000/svg" width="24" height="24" fill="none" viewBox="0 0 24 24"><path fill="currentColor" fill-rule="evenodd" d="M21.322 8.992a2.773 2.773 0 1 0-3.921 3.922 2.773 2.773 0 0 0 3.922-3.92v-.002Zm-6.589-3.61a3.865 3.865 0 1 0-5.466 5.466 3.865 3.865 0 0 0 5.466-5.466Zm-8.135 3.61a2.773 2.773 0 1 0-3.922 3.922A2.773 2.773 0 0 0 6.6 8.994l-.001-.002ZM19.46 19.75H23a.75.75 0 0 0 .75-.75v-1.096a3.25 3.25 0 0 0-3.25-3.25h-.801a.75.75 0 0 0-.633.347 5.73 5.73 0 0 1 .523 2.398V19c0 .263-.045.515-.128.75ZM4.933 15a5.729 5.729 0 0 0-.523 2.4V19c0 .263.045.515.128.75H1A.75.75 0 0 1 .25 19v-1.096a3.25 3.25 0 0 1 3.25-3.25h.801a.75.75 0 0 1 .632.346Z" clip-rule="evenodd"/><path fill="currentColor" d="M5.91 17.399a4.25 4.25 0 0 1 4.25-4.25h3.679a4.25 4.25 0 0 1 4.25 4.25V19a.75.75 0 0 1-.75.75H6.659a.75.75 0 0 1-.75-.75v-1.601Z"/></svg>