<svg xmlns="http://www.w3.org/2000/svg" width="24" height="24" fill="none" viewBox="0 0 24 24"><path fill="currentColor" fill-rule="evenodd" d="M13.405 15.136a.75.75 0 0 0-.655-.384H8.498a5.252 5.252 0 0 0-5.251 5.251c0 .415.335.75.75.75H12.5a.996.996 0 0 0 .668-.256 4.976 4.976 0 0 1-.666-2.494c0-1.067.334-2.055.903-2.867ZM7 8.002a5.002 5.002 0 1 1 10.004 0A5.002 5.002 0 0 1 7 8.002Zm12.801 7.701a.75.75 0 0 1 0 1.061l-3.537 3.538a.75.75 0 1 1-1.06-1.061l3.537-3.538a.75.75 0 0 1 1.06 0Z" clip-rule="evenodd"/><path fill="currentColor" fill-rule="evenodd" d="M15.203 15.703a.75.75 0 0 1 1.06 0l3.538 3.538a.75.75 0 0 1-1.06 1.06l-3.538-3.537a.75.75 0 0 1 0-1.06Z" clip-rule="evenodd"/></svg>