<svg xmlns="http://www.w3.org/2000/svg" width="24" height="24" fill="none" viewBox="0 0 24 24"><path fill="currentColor" fill-rule="evenodd" d="M20.262 10.054a1.273 1.273 0 1 0-1.8 1.8 1.273 1.273 0 0 0 1.8-1.8Zm1.06-1.062a2.773 2.773 0 1 0-3.921 3.922 2.773 2.773 0 0 0 3.922-3.92v-.002Zm-7.65-2.549a2.365 2.365 0 1 0-3.344 3.344 2.365 2.365 0 0 0 3.344-3.344Zm1.06-1.061a3.865 3.865 0 1 0-5.465 5.466 3.865 3.865 0 0 0 5.466-5.466Zm-9.194 4.672a1.273 1.273 0 1 0-1.8 1.8 1.273 1.273 0 0 0 1.8-1.8Zm1.06-1.062a2.773 2.773 0 1 0-3.922 3.922A2.773 2.773 0 0 0 6.6 8.994l-.001-.002Zm12.351 6.412a.75.75 0 0 1 .75-.75h.801a3.25 3.25 0 0 1 3.25 3.25V19a.75.75 0 0 1-1.5 0v-1.096a1.75 1.75 0 0 0-1.75-1.75h-.801a.75.75 0 0 1-.75-.75Zm-15.449.75a1.75 1.75 0 0 0-1.75 1.75V19a.75.75 0 0 1-1.5 0v-1.096a3.25 3.25 0 0 1 3.25-3.25h.801a.75.75 0 1 1 0 1.5H3.5Zm2.41 1.245a4.25 4.25 0 0 1 4.25-4.25h3.679a4.25 4.25 0 0 1 4.25 4.25V19a.75.75 0 1 1-1.5 0v-1.601a2.75 2.75 0 0 0-2.75-2.75h-3.68a2.75 2.75 0 0 0-2.75 2.75V19a.75.75 0 1 1-1.5 0v-1.601Z" clip-rule="evenodd"/></svg>