<svg xmlns="http://www.w3.org/2000/svg" width="24" height="24" fill="none" viewBox="0 0 24 24"><path fill="currentColor" fill-rule="evenodd" d="M7.998 5.767a2.741 2.741 0 1 0 0 5.483 2.741 2.741 0 0 0 0-5.483ZM3.757 8.51a4.241 4.241 0 1 1 8.483 0 4.241 4.241 0 0 1-8.483 0Zm13.245-.762a1.751 1.751 0 1 0 0 3.502 1.751 1.751 0 0 0 0-3.502Zm-3.251 1.751a3.251 3.251 0 1 1 6.502 0 3.251 3.251 0 0 1-6.502 0ZM5.98 15.751a3.234 3.234 0 0 0-3.234 3.235v1.017a.75.75 0 0 1-1.5 0v-1.017A4.734 4.734 0 0 1 5.98 14.25h4.035a4.734 4.734 0 0 1 4.735 4.735v1.017a.75.75 0 1 1-1.5 0v-1.017a3.234 3.234 0 0 0-3.235-3.235H5.981Z" clip-rule="evenodd"/><path fill="currentColor" d="M17.002 14.251h1.103a4.734 4.734 0 0 1 4.734 4.735v1.017a.75.75 0 0 1-1.5 0v-1.017a3.234 3.234 0 0 0-3.234-3.235h-2.207c-.176 0-.35.014-.517.041a6.517 6.517 0 0 0-1.021-1.285c.482-.166 1-.256 1.538-.256h1.104Z"/></svg>