<svg xmlns="http://www.w3.org/2000/svg" width="24" height="24" fill="none" viewBox="0 0 24 24"><path fill="currentColor" fill-rule="evenodd" d="M12 4.747a3.502 3.502 0 1 0 0 7.003 3.502 3.502 0 0 0 0-7.003ZM6.998 8.248a5.002 5.002 0 1 1 10.004 0 5.002 5.002 0 0 1-10.004 0Zm1.501 8.004a3.752 3.752 0 0 0-3.752 3.751.75.75 0 1 1-1.5 0c0-2.9 2.351-5.252 5.252-5.252h4.251a.75.75 0 0 1 0 1.5H8.499Zm11.302-.549a.75.75 0 0 1 0 1.061l-3.537 3.538a.75.75 0 0 1-1.06-1.061l3.537-3.538a.75.75 0 0 1 1.06 0Z" clip-rule="evenodd"/><path fill="currentColor" fill-rule="evenodd" d="M15.203 15.703a.75.75 0 0 1 1.061 0l3.537 3.538a.75.75 0 0 1-1.06 1.06l-3.538-3.537a.75.75 0 0 1 0-1.06Z" clip-rule="evenodd"/></svg>