<svg xmlns="http://www.w3.org/2000/svg" width="24" height="24" fill="none" viewBox="0 0 24 24"><path fill="currentColor" fill-rule="evenodd" d="M3.757 8.509a4.241 4.241 0 1 1 8.483 0 4.241 4.241 0 0 1-8.483 0Zm9.994.99a3.251 3.251 0 1 1 6.502 0 3.251 3.251 0 0 1-6.502 0Z" clip-rule="evenodd"/><path fill="currentColor" d="M1.996 20.753a.75.75 0 0 1-.75-.75v-1.017A4.734 4.734 0 0 1 5.98 14.25h4.035a4.734 4.734 0 0 1 4.735 4.735v1.017a.75.75 0 0 1-.75.75H1.996Z"/><path fill="currentColor" fill-rule="evenodd" d="M16.123 20.753h5.966a.75.75 0 0 0 .75-.75v-1.017a4.734 4.734 0 0 0-4.734-4.735h-2.207c-.539 0-1.056.09-1.538.256.04.04.08.083.119.125a6.214 6.214 0 0 1 1.772 4.354v1.017c0 .263-.045.516-.128.75Z" clip-rule="evenodd"/></svg>