<svg xmlns="http://www.w3.org/2000/svg" width="24" height="24" fill="none" viewBox="0 0 24 24"><path fill="currentColor" fill-rule="evenodd" d="M11.998 4.5a3.502 3.502 0 1 0 0 7.004 3.502 3.502 0 0 0 0-7.004ZM6.996 8.002a5.002 5.002 0 1 1 10.004 0 5.002 5.002 0 0 1-10.004 0Zm1.501 8.003a3.752 3.752 0 0 0-3.752 3.752.75.75 0 0 1-1.5 0c0-2.9 2.351-5.252 5.252-5.252h4.251a.75.75 0 0 1 0 1.5H8.497Z" clip-rule="evenodd"/><path fill="currentColor" fill-rule="evenodd" d="M15.498 16.005a3.752 3.752 0 0 1 3.752 3.752.75.75 0 0 0 1.5 0c0-2.9-2.352-5.252-5.252-5.252h-4.251a.75.75 0 0 0 0 1.5h4.251Z" clip-rule="evenodd"/></svg>