<svg xmlns="http://www.w3.org/2000/svg" width="24" height="24" fill="none" viewBox="0 0 24 24"><path fill="currentColor" fill-rule="evenodd" d="m13.064 2.608 1.123.862c.052.04.117.056.179.048h.004l1.406-.186a1.747 1.747 0 0 1 1.843 1.065l.54 1.307c.026.062.075.11.136.136l1.308.54a1.748 1.748 0 0 1 1.064 1.842l-.185 1.406a.251.251 0 0 0 .049.183l.862 1.124a1.747 1.747 0 0 1 0 2.128l-.832 1.084a.368.368 0 0 0-.072.273l.178 1.355a1.747 1.747 0 0 1-1.064 1.843l-1.309.541a.245.245 0 0 0-.133.133l-.542 1.31a1.748 1.748 0 0 1-1.842 1.064l-1.408-.185a.244.244 0 0 0-.182.049l-1.123.862c-.627.483-1.5.482-2.128 0l-1.084-.831c-.077-.06-.122-.093-.22-.08l-1.408.185a1.749 1.749 0 0 1-1.842-1.064l-.542-1.309a.245.245 0 0 0-.133-.133l-1.31-.541a1.748 1.748 0 0 1-1.063-1.842l.185-1.408a.246.246 0 0 0-.049-.182l-.862-1.124a1.746 1.746 0 0 1 0-2.127l.862-1.124a.251.251 0 0 0 .049-.183l-.185-1.406a1.747 1.747 0 0 1 1.063-1.842l1.308-.54a.256.256 0 0 0 .136-.136l.54-1.307a1.748 1.748 0 0 1 1.842-1.064l1.406.185a.256.256 0 0 0 .186-.05l1.122-.861a1.746 1.746 0 0 1 2.127 0Zm-.314 4.664a.75.75 0 1 0-1.5 0v5a.75.75 0 1 0 1.5 0v-5Zm-.75 9.75a1 1 0 1 0 0-2 1 1 0 0 0 0 2Z" clip-rule="evenodd"/></svg>