<svg xmlns="http://www.w3.org/2000/svg" width="24" height="24" fill="none" viewBox="0 0 24 24"><path fill="currentColor" fill-rule="evenodd" d="M12.727 4.882a.836.836 0 0 0-1.453 0l-7.66 13.405a.837.837 0 0 0 .727 1.253H19.66a.838.838 0 0 0 .726-1.253l-7.66-13.405ZM2.312 17.543c-.891 1.558.234 3.497 2.029 3.497H19.66c1.794 0 2.919-1.939 2.029-3.497l-7.66-13.405c-.897-1.57-3.16-1.57-4.058 0l-7.66 13.405Z" clip-rule="evenodd"/><path fill="currentColor" fill-rule="evenodd" d="M12 7.499a.75.75 0 0 1 .75.75v5a.75.75 0 0 1-1.5 0v-5a.75.75 0 0 1 .75-.75Z" clip-rule="evenodd"/><path fill="currentColor" d="M13 16.999a1 1 0 1 1-2 0 1 1 0 0 1 2 0Z"/></svg>