<svg xmlns="http://www.w3.org/2000/svg" width="24" height="24" fill="none" viewBox="0 0 24 24"><path fill="currentColor" fill-rule="evenodd" d="m14.188 3.47-1.124-.862a1.746 1.746 0 0 0-2.127 0l-1.122.861a.256.256 0 0 1-.186.05l-1.406-.185a1.748 1.748 0 0 0-1.842 1.064l-.54 1.307a.256.256 0 0 1-.136.136l-1.308.54a1.747 1.747 0 0 0-1.063 1.842l.185 1.406a.251.251 0 0 1-.049.183l-.863 1.124a1.746 1.746 0 0 0 0 2.127l.863 1.124a.25.25 0 0 1 .05.182l-.186 1.408a1.748 1.748 0 0 0 1.063 1.842l1.31.541c.06.025.108.073.133.133l.542 1.31a1.749 1.749 0 0 0 1.842 1.063l1.408-.185c.098-.013.143.02.22.08l1.084.832c.627.481 1.5.482 2.128-.001l1.123-.862a.244.244 0 0 1 .182-.05l1.408.186a1.748 1.748 0 0 0 1.842-1.064l.542-1.31a.245.245 0 0 1 .133-.133l1.309-.54a1.747 1.747 0 0 0 1.064-1.844l-.178-1.355a.368.368 0 0 1 .072-.273l.832-1.084a1.747 1.747 0 0 0 0-2.128l-.862-1.124a.251.251 0 0 1-.05-.183l.186-1.406a1.748 1.748 0 0 0-1.064-1.842l-1.308-.54a.256.256 0 0 1-.136-.136l-.54-1.307a1.747 1.747 0 0 0-1.843-1.065l-1.406.185h-.004a.241.241 0 0 1-.178-.047Zm-2.038.327a.245.245 0 0 0-.299 0l-1.127.865c-.367.28-.83.404-1.289.345L8.027 4.82a.248.248 0 0 0-.26.15l-.541 1.312a1.756 1.756 0 0 1-.943.943l-1.31.54a.248.248 0 0 0-.152.261l.185 1.408a1.75 1.75 0 0 1-.345 1.29l-.864 1.125a.246.246 0 0 0 0 .299l.863 1.125c.282.367.407.832.346 1.293l-.185 1.405a.248.248 0 0 0 .15.261l1.312.543c.426.178.766.52.944.946l.54 1.307a.248.248 0 0 0 .261.15L9.382 19a1.87 1.87 0 0 1 1.385.371l1.082.83c.09.07.213.069.3.001l1.125-.863a1.746 1.746 0 0 1 1.292-.346l1.406.185a.248.248 0 0 0 .261-.15l.54-1.308c.179-.426.518-.765.944-.943l1.313-.546a.247.247 0 0 0 .15-.26l-.178-1.356c-.066-.492.068-.99.371-1.384l.83-1.083a.245.245 0 0 0 .001-.298l-.864-1.126a1.747 1.747 0 0 1-.345-1.293l.185-1.406a.248.248 0 0 0-.151-.26l-1.308-.541a1.745 1.745 0 0 1-.947-.948l-.541-1.308a.247.247 0 0 0-.26-.15l-1.403.185h-.002a1.74 1.74 0 0 1-1.292-.343h-.001l-1.125-.864Z" clip-rule="evenodd"/><path fill="currentColor" fill-rule="evenodd" d="M12 6.522a.75.75 0 0 1 .75.75v5a.75.75 0 1 1-1.5 0v-5a.75.75 0 0 1 .75-.75Z" clip-rule="evenodd"/><path fill="currentColor" d="M13 16.022a1 1 0 1 1-2 0 1 1 0 0 1 2 0Z"/></svg>