<svg width="316" height="318" viewBox="0 0 316 318" fill="none" xmlns="http://www.w3.org/2000/svg">
<g clip-path="url(#clip0_5802_102091)">
<path d="M158 318C245.261 318 316 247.424 316 160.365C316 73.3052 245.261 2.72949 158 2.72949C70.739 2.72949 0 73.3052 0 160.365C0 247.424 70.739 318 158 318Z" fill="url(#paint0_linear_5802_102091)"/>
<path opacity="0.5" fill-rule="evenodd" clip-rule="evenodd" d="M239.528 293.416C239.75 293.278 239.868 293.133 239.868 292.985C239.868 291.965 234.259 291.136 227.344 291.136C220.43 291.136 214.82 291.96 214.82 292.985C214.82 293.043 214.838 293.1 214.873 293.157C207.332 293.108 199.354 293.083 191.099 293.083C144.414 293.083 106.57 293.906 106.57 294.931C106.57 295.956 144.42 296.785 191.099 296.785C237.779 296.785 275.629 295.956 275.629 294.931C275.629 294.305 261.356 293.751 239.528 293.416Z" fill="#AA998A"/>
<path d="M315.169 180.409C297.756 172.819 275.086 169.186 260.917 174.483C247.643 179.447 249.766 189.305 236.128 193.382C214.128 199.952 198.891 177.178 166.149 178.261C137.021 179.222 126.903 197.983 104.92 193.382C91.1951 190.503 88.5979 181.865 78.8268 175.739C62.4589 165.506 31.0333 165.61 0.819572 171.466C3.47943 209.683 20.0407 245.615 47.3896 272.505C77.2339 278.009 109.722 280.952 141.367 279.777C197.021 277.721 253.333 262.848 291.65 245.142C304.205 225.572 312.239 203.46 315.169 180.409Z" fill="url(#paint1_linear_5802_102091)"/>
<path d="M203.999 97.2148H138.948C129.893 97.2148 122.552 104.539 122.552 113.574V277.48C122.552 286.515 129.893 293.839 138.948 293.839H203.999C213.054 293.839 220.395 286.515 220.395 277.48V113.574C220.395 104.539 213.054 97.2148 203.999 97.2148Z" fill="white"/>
<path d="M204.004 295.566H138.954C134.148 295.561 129.539 293.654 126.141 290.264C122.742 286.873 120.83 282.275 120.826 277.48V113.574C120.83 108.778 122.742 104.181 126.141 100.79C129.539 97.3989 134.148 95.4919 138.954 95.4873H204.01C208.817 95.4919 213.425 97.3989 216.824 100.79C220.222 104.181 222.134 108.778 222.138 113.574V277.48C222.134 282.276 220.222 286.875 216.822 290.266C213.422 293.657 208.812 295.563 204.004 295.566ZM138.954 98.9422C135.066 98.9468 131.338 100.49 128.589 103.233C125.84 105.976 124.293 109.695 124.289 113.574V277.48C124.293 281.359 125.84 285.078 128.589 287.821C131.338 290.564 135.066 292.107 138.954 292.111H204.01C207.898 292.107 211.626 290.564 214.375 287.821C217.124 285.078 218.671 281.359 218.676 277.48V113.574C218.671 109.695 217.124 105.976 214.375 103.233C211.626 100.49 207.898 98.9468 204.01 98.9422H138.954Z" fill="#EBE8E6"/>
<path d="M203.191 284.966H139.756C139.297 284.966 138.857 284.784 138.532 284.46C138.207 284.136 138.025 283.696 138.025 283.238C138.025 282.78 138.207 282.341 138.532 282.017C138.857 281.693 139.297 281.511 139.756 281.511H203.191C203.65 281.511 204.09 281.693 204.415 282.017C204.74 282.341 204.922 282.78 204.922 283.238C204.922 283.696 204.74 284.136 204.415 284.46C204.09 284.784 203.65 284.966 203.191 284.966Z" fill="#AA998A"/>
<path d="M139.531 110.534C139.532 111.167 139.345 111.787 138.993 112.315C138.641 112.842 138.14 113.253 137.553 113.496C136.966 113.739 136.321 113.803 135.698 113.68C135.075 113.556 134.502 113.251 134.053 112.803C133.604 112.355 133.298 111.784 133.175 111.163C133.051 110.541 133.115 109.897 133.359 109.312C133.602 108.726 134.015 108.226 134.543 107.875C135.072 107.524 135.693 107.337 136.328 107.338C137.178 107.338 137.992 107.675 138.593 108.274C139.194 108.873 139.531 109.686 139.531 110.534Z" fill="#AA998A"/>
<path opacity="0.1" d="M224.841 165.128C228.354 158.495 225.812 150.277 219.164 146.773C212.515 143.268 204.278 145.804 200.765 152.437C197.253 159.07 199.795 167.288 206.443 170.793C213.091 174.298 221.328 171.761 224.841 165.128Z" fill="white"/>
<path d="M211.388 238.194C210.949 240.382 213.581 240.814 214.019 243.877C214.458 246.941 213.142 247.81 213.581 249.56C214.019 251.311 216.646 251.749 217.084 256.119C217.523 260.489 215.768 260.052 216.207 262.678C216.646 265.303 219.277 265.303 219.716 267.486C220.155 269.668 220.155 272.731 221.032 275.357C221.909 277.983 224.535 281.916 225.851 281.916C227.167 281.916 230.67 274.482 229.793 272.294C228.916 270.106 227.6 269.674 227.6 267.923C227.6 266.173 229.331 261.802 228.916 258.745C228.5 255.687 224.535 254.369 224.097 252.186C223.658 250.004 224.974 244.315 221.903 241.689C218.833 239.063 211.826 236.023 211.388 238.194Z" fill="#285C5C"/>
<path d="M225.649 281.184C225.62 281.184 225.592 281.179 225.565 281.168C225.538 281.157 225.514 281.141 225.494 281.12C225.474 281.1 225.457 281.076 225.446 281.049C225.435 281.023 225.43 280.994 225.43 280.966C225.43 280.908 225.389 275.207 223.698 273.561C222.007 271.914 221.043 266.703 220.57 256.804C220.137 247.804 213.644 240.399 213.61 240.325C213.589 240.304 213.573 240.28 213.562 240.253C213.55 240.227 213.545 240.198 213.545 240.169C213.545 240.14 213.55 240.112 213.562 240.085C213.573 240.058 213.589 240.034 213.61 240.014C213.63 239.993 213.653 239.977 213.68 239.966C213.706 239.955 213.734 239.949 213.763 239.949C213.791 239.949 213.819 239.955 213.846 239.966C213.872 239.977 213.896 239.993 213.916 240.014C213.985 240.083 220.547 247.609 220.98 256.758C221.442 266.409 222.4 271.643 223.987 273.227C225.782 275.023 225.822 280.712 225.822 280.943C225.822 281.001 225.799 281.056 225.758 281.097C225.717 281.138 225.661 281.161 225.603 281.161L225.649 281.184Z" fill="white"/>
<path d="M251.499 244.827C253.052 246.376 247.996 247.015 247.558 250.073C247.119 253.13 247.119 254.449 245.364 256.194C243.61 257.938 240.984 258.382 241.423 261.002C241.861 263.622 242.738 266.253 241.423 267.56C240.107 268.867 237.042 268.873 236.165 271.061C235.287 273.249 235.726 275.869 233.972 278.057C232.217 280.246 229.591 284.616 227.398 283.741C225.205 282.865 226.521 272.8 227.398 271.073C228.275 269.345 229.129 268.009 229.129 266.702C229.129 265.395 228.691 263.201 229.568 261.013C230.445 258.825 235.264 257.956 235.703 256.643C236.142 255.33 236.58 248.34 239.206 246.589C241.832 244.839 248.873 242.224 251.499 244.827Z" fill="#285C5C"/>
<path d="M228.079 282.992C228.04 282.991 228.002 282.98 227.969 282.96C227.936 282.94 227.908 282.912 227.889 282.879C227.87 282.845 227.86 282.807 227.86 282.769C227.86 282.73 227.869 282.692 227.888 282.658C227.888 282.629 229.666 279.704 230.035 278.224C230.128 277.839 230.243 277.263 230.376 276.595C230.861 274.165 231.594 270.497 232.719 269.374C234.358 267.745 236.973 262.746 238.802 256.355C241.059 248.478 248.516 246.169 248.614 246.146C248.67 246.13 248.73 246.136 248.78 246.165C248.831 246.193 248.869 246.24 248.885 246.295C248.901 246.35 248.895 246.41 248.868 246.46C248.841 246.511 248.795 246.549 248.741 246.566C248.666 246.566 241.434 248.829 239.247 256.476C237.394 262.937 234.728 267.992 233.054 269.685C232.021 270.716 231.276 274.447 230.832 276.681C230.699 277.355 230.584 277.937 230.486 278.328C230.099 279.871 228.362 282.762 228.292 282.883C228.27 282.919 228.239 282.948 228.201 282.967C228.163 282.987 228.121 282.995 228.079 282.992Z" fill="white"/>
<path d="M227.519 249.831C222.261 250.269 224.016 266.012 224.016 266.012C225.326 279.566 227.08 285.687 228.396 286.125C229.712 286.562 232.338 266.887 232.338 262.079C232.338 262.079 232.777 249.399 227.519 249.831Z" fill="#2C424C"/>
<path d="M228.177 283.937C228.12 283.928 228.069 283.898 228.034 283.854C227.998 283.809 227.981 283.752 227.986 283.695C229.718 269.455 227.571 251.57 227.548 251.392C227.544 251.363 227.547 251.334 227.555 251.306C227.562 251.278 227.576 251.252 227.594 251.229C227.612 251.207 227.634 251.188 227.659 251.174C227.685 251.159 227.712 251.15 227.741 251.147C227.77 251.144 227.799 251.146 227.827 251.154C227.855 251.162 227.881 251.175 227.904 251.193C227.927 251.211 227.946 251.233 227.96 251.258C227.974 251.283 227.983 251.311 227.986 251.34C227.986 251.518 230.157 269.455 228.425 283.747C228.417 283.804 228.386 283.856 228.34 283.892C228.293 283.927 228.235 283.943 228.177 283.937Z" fill="white"/>
<path d="M234.71 293.887H221.372C221.176 293.901 220.982 293.846 220.822 293.731C220.663 293.616 220.549 293.449 220.501 293.259L218.567 279.44C218.55 279.296 218.564 279.149 218.608 279.011C218.651 278.872 218.723 278.744 218.82 278.636C218.916 278.527 219.035 278.44 219.167 278.38C219.3 278.32 219.443 278.289 219.589 278.288H236.494C236.639 278.29 236.782 278.321 236.914 278.382C237.046 278.442 237.165 278.529 237.261 278.638C237.357 278.746 237.429 278.874 237.473 279.012C237.517 279.15 237.531 279.296 237.515 279.44L235.582 293.259C235.533 293.449 235.42 293.616 235.26 293.731C235.101 293.846 234.906 293.901 234.71 293.887Z" fill="#AA998A"/>
<path fill-rule="evenodd" clip-rule="evenodd" d="M65.5368 51.3222H63.492C62.4947 51.3215 61.507 51.517 60.5855 51.8976C59.6639 52.2782 58.8267 52.8365 58.1217 53.5404C57.4167 54.2443 56.8579 55.08 56.4771 55.9997C56.0963 56.9193 55.901 57.9049 55.9025 58.9C55.9018 59.8945 56.0976 60.8795 56.4787 61.7985C56.8598 62.7176 57.4189 63.5526 58.1238 64.2558C58.8287 64.9591 59.6656 65.5169 60.5868 65.8971C61.5079 66.2774 62.4952 66.4727 63.492 66.4719H95.5584H95.5757C97.5891 66.4719 99.5201 65.6744 100.944 64.2545C102.369 62.8347 103.169 60.9087 103.171 58.9C103.171 57.9034 102.974 56.9166 102.591 55.9961C102.208 55.0756 101.647 54.2395 100.94 53.5356C100.233 52.8317 99.3938 52.2739 98.4703 51.8941C97.5468 51.5143 96.5573 51.32 95.5584 51.3222H88.0248C87.1079 47.1531 83.8871 43.6617 79.4465 42.6062C73.2637 41.1367 67.0574 44.9459 65.5844 51.1145C65.5679 51.1837 65.552 51.253 65.5368 51.3222Z" fill="white"/>
<path fill-rule="evenodd" clip-rule="evenodd" d="M193.354 15.8003H189.812C186.292 15.8003 182.915 17.1956 180.426 19.6793C177.937 22.163 176.538 25.5315 176.538 29.044C176.538 32.5565 177.937 35.9251 180.426 38.4087C182.915 40.8924 186.292 42.2878 189.812 42.2878H245.877C249.397 42.2878 252.774 40.8924 255.263 38.4087C257.752 35.9251 259.151 32.5565 259.151 29.044C259.151 25.5315 257.752 22.163 255.263 19.6793C252.774 17.1956 249.397 15.8003 245.877 15.8003H232.676C231.886 12.1641 230.074 8.70459 227.241 5.87822C219.384 -1.96074 206.645 -1.96069 198.788 5.87827C195.955 8.70463 194.144 12.1642 193.354 15.8003Z" fill="#EBE8E6"/>
<path d="M183.388 149.061H61.9911C61.463 149.061 60.9566 148.852 60.5832 148.48C60.2098 148.107 60 147.602 60 147.075V124.992C60.0015 124.465 60.2116 123.96 60.5845 123.587C60.9574 123.214 61.463 123.003 61.9911 123H183.388C183.65 123 183.91 123.052 184.152 123.152C184.394 123.252 184.613 123.399 184.798 123.584C184.983 123.769 185.13 123.989 185.23 124.23C185.329 124.472 185.38 124.731 185.38 124.992V147.075C185.378 147.601 185.168 148.106 184.795 148.478C184.422 148.85 183.916 149.06 183.388 149.061Z" fill="#F6F5F4"/>
<path opacity="0.5" d="M80.4483 144.006H66.5968C66.2968 144.005 66.009 143.887 65.7945 143.678C65.5813 143.463 65.4611 143.174 65.4598 142.872V129.052C65.4598 128.747 65.5814 128.454 65.7979 128.238C66.0144 128.022 66.308 127.9 66.6141 127.9H80.4656C80.7718 127.9 81.0654 128.022 81.2818 128.238C81.4983 128.454 81.6199 128.747 81.6199 129.052V142.872C81.6199 143.177 81.4983 143.47 81.2818 143.686C81.0654 143.902 80.7718 144.023 80.4656 144.023L80.4483 144.006Z" fill="#AA998A"/>
<path opacity="0.5" d="M169.323 131.574H91.847C91.3642 131.571 90.9021 131.378 90.5607 131.037C90.2193 130.697 90.0263 130.236 90.0232 129.754C90.0248 129.272 90.2173 128.81 90.559 128.469C90.9007 128.128 91.3637 127.936 91.847 127.935H169.323C169.808 127.936 170.273 128.128 170.616 128.47C170.785 128.639 170.919 128.839 171.01 129.059C171.101 129.28 171.148 129.516 171.147 129.754C171.147 129.993 171.1 130.23 171.008 130.45C170.917 130.671 170.782 130.872 170.613 131.041C170.444 131.21 170.243 131.344 170.021 131.435C169.8 131.527 169.563 131.574 169.323 131.574Z" fill="#AA998A"/>
<path opacity="0.5" d="M144.564 138.345H91.847C91.5673 138.346 91.2914 138.282 91.0402 138.159C90.7891 138.036 90.5695 137.858 90.3983 137.637C90.1564 137.317 90.0249 136.927 90.0232 136.526C90.0232 136.287 90.0704 136.051 90.1622 135.83C90.2539 135.61 90.3883 135.41 90.5578 135.241C90.7272 135.073 90.9283 134.939 91.1495 134.848C91.3707 134.758 91.6077 134.711 91.847 134.712H144.564C144.803 134.71 145.041 134.756 145.262 134.847C145.484 134.937 145.685 135.071 145.855 135.239C146.024 135.408 146.159 135.609 146.25 135.829C146.341 136.05 146.388 136.287 146.387 136.526C146.389 136.765 146.343 137.002 146.252 137.224C146.161 137.445 146.026 137.647 145.857 137.816C145.687 137.985 145.485 138.119 145.263 138.21C145.041 138.301 144.804 138.347 144.564 138.345Z" fill="#AA998A"/>
<path d="M267.388 186.061H145.991C145.463 186.061 144.957 185.852 144.583 185.48C144.21 185.107 144 184.602 144 184.075V161.992C144.002 161.465 144.212 160.96 144.584 160.587C144.957 160.214 145.463 160.003 145.991 160H267.388C267.65 160 267.91 160.052 268.152 160.152C268.394 160.252 268.613 160.399 268.798 160.584C268.983 160.769 269.13 160.989 269.23 161.23C269.329 161.472 269.38 161.731 269.38 161.992V184.075C269.378 184.601 269.168 185.106 268.795 185.478C268.422 185.85 267.916 186.06 267.388 186.061Z" fill="#F6F5F4"/>
<path opacity="0.5" d="M164.448 181.006H150.597C150.297 181.005 150.009 180.887 149.795 180.678C149.581 180.463 149.461 180.174 149.46 179.872V166.052C149.46 165.747 149.581 165.454 149.798 165.238C150.014 165.022 150.308 164.9 150.614 164.9H164.466C164.772 164.9 165.065 165.022 165.282 165.238C165.498 165.454 165.62 165.747 165.62 166.052V179.872C165.62 180.177 165.498 180.47 165.282 180.686C165.065 180.902 164.772 181.023 164.466 181.023L164.448 181.006Z" fill="#AA998A"/>
<path opacity="0.5" d="M253.323 168.574H175.847C175.364 168.571 174.902 168.378 174.561 168.037C174.219 167.697 174.026 167.236 174.023 166.754C174.025 166.272 174.217 165.81 174.559 165.469C174.901 165.128 175.364 164.936 175.847 164.935H253.323C253.808 164.936 254.273 165.128 254.616 165.47C254.785 165.639 254.919 165.839 255.01 166.059C255.101 166.28 255.148 166.516 255.147 166.754C255.147 166.993 255.1 167.23 255.008 167.45C254.917 167.671 254.782 167.872 254.613 168.041C254.444 168.21 254.243 168.344 254.021 168.435C253.8 168.527 253.563 168.574 253.323 168.574Z" fill="#AA998A"/>
<path opacity="0.5" d="M228.564 175.345H175.847C175.567 175.346 175.291 175.282 175.04 175.159C174.789 175.036 174.569 174.858 174.398 174.637C174.156 174.317 174.025 173.927 174.023 173.526C174.023 173.287 174.07 173.051 174.162 172.83C174.254 172.61 174.388 172.41 174.558 172.241C174.727 172.073 174.928 171.939 175.149 171.848C175.371 171.758 175.608 171.711 175.847 171.712H228.564C228.803 171.71 229.041 171.756 229.262 171.847C229.484 171.937 229.685 172.071 229.855 172.239C230.024 172.408 230.159 172.609 230.25 172.829C230.341 173.05 230.388 173.287 230.387 173.526C230.389 173.765 230.343 174.002 230.252 174.224C230.161 174.445 230.026 174.647 229.857 174.816C229.687 174.985 229.485 175.119 229.263 175.21C229.041 175.301 228.804 175.347 228.564 175.345Z" fill="#AA998A"/>
<path d="M290.388 107.061H168.991C168.463 107.061 167.957 106.852 167.583 106.48C167.21 106.107 167 105.602 167 105.075V82.9923C167.002 82.4654 167.212 81.9604 167.584 81.5872C167.957 81.2141 168.463 81.003 168.991 81H290.388C290.65 81 290.91 81.0516 291.152 81.1518C291.394 81.252 291.613 81.3988 291.798 81.5839C291.983 81.769 292.13 81.9887 292.23 82.2304C292.329 82.472 292.38 82.731 292.38 82.9923V105.075C292.378 105.601 292.168 106.106 291.795 106.478C291.422 106.85 290.916 107.06 290.388 107.061Z" fill="#F6F5F4"/>
<path opacity="0.5" d="M187.448 102.006H173.597C173.297 102.005 173.009 101.887 172.795 101.678C172.581 101.463 172.461 101.174 172.46 100.872V87.052C172.46 86.7466 172.581 86.4537 172.798 86.2377C173.014 86.0217 173.308 85.9004 173.614 85.9004H187.466C187.772 85.9004 188.065 86.0217 188.282 86.2377C188.498 86.4537 188.62 86.7466 188.62 87.052V100.872C188.62 101.177 188.498 101.47 188.282 101.686C188.065 101.902 187.772 102.023 187.466 102.023L187.448 102.006Z" fill="#AA998A"/>
<path opacity="0.5" d="M276.323 89.5737H198.847C198.364 89.5707 197.902 89.378 197.561 89.0374C197.219 88.6969 197.026 88.2358 197.023 87.7542C197.025 87.2721 197.217 86.8101 197.559 86.4692C197.901 86.1283 198.364 85.9361 198.847 85.9346H276.323C276.808 85.9357 277.273 86.1282 277.616 86.4701C277.785 86.6386 277.919 86.8388 278.01 87.0592C278.101 87.2796 278.148 87.5158 278.147 87.7542C278.147 87.9931 278.1 88.2297 278.008 88.4505C277.917 88.6713 277.782 88.8718 277.613 89.0408C277.444 89.2097 277.243 89.3438 277.021 89.4352C276.8 89.5267 276.563 89.5737 276.323 89.5737Z" fill="#AA998A"/>
<path opacity="0.5" d="M251.564 96.3453H198.847C198.567 96.3456 198.291 96.2819 198.04 96.1591C197.789 96.0363 197.569 95.8578 197.398 95.6371C197.156 95.3167 197.025 94.9269 197.023 94.5258C197.023 94.2871 197.07 94.0508 197.162 93.8303C197.254 93.6099 197.388 93.4097 197.558 93.2412C197.727 93.0727 197.928 92.9392 198.15 92.8483C198.371 92.7575 198.608 92.7112 198.847 92.712H251.564C251.803 92.7104 252.041 92.7563 252.262 92.8468C252.484 92.9373 252.685 93.0708 252.855 93.2394C253.024 93.4081 253.159 93.6086 253.25 93.8294C253.342 94.0502 253.388 94.2869 253.387 94.5258C253.389 94.7652 253.343 95.0024 253.252 95.2239C253.161 95.4454 253.026 95.6465 252.857 95.8158C252.687 95.9851 252.485 96.1191 252.263 96.21C252.041 96.3009 251.804 96.3469 251.564 96.3453Z" fill="#AA998A"/>
<path opacity="0.25" d="M201.823 206.548C199.133 206.657 196.47 205.968 194.171 204.567C191.872 203.165 190.04 201.116 188.907 198.677C187.774 196.238 187.39 193.52 187.805 190.865C188.22 188.211 189.415 185.739 191.238 183.764C193.061 181.789 195.43 180.398 198.047 179.768C200.663 179.137 203.409 179.296 205.937 180.223C208.466 181.15 210.662 182.804 212.25 184.976C213.838 187.148 214.745 189.74 214.856 192.425C215.005 196.025 213.716 199.534 211.272 202.182C208.828 204.831 205.429 206.401 201.823 206.548Z" fill="white"/>
<path fill-rule="evenodd" clip-rule="evenodd" d="M200.566 176.721C197.345 176.852 194.237 177.933 191.635 179.827C189.032 181.721 187.051 184.343 185.943 187.362C184.835 190.382 184.649 193.662 185.409 196.789C186.169 199.915 187.841 202.748 190.213 204.928C192.585 207.109 195.551 208.539 198.736 209.038C201.92 209.537 205.181 209.083 208.104 207.732C209.623 207.031 211.016 206.104 212.238 204.99L221.33 213.354L223.251 211.272L214.159 202.907C214.518 202.442 214.853 201.956 215.161 201.452C216.838 198.707 217.662 195.527 217.528 192.313C217.439 190.178 216.93 188.082 216.03 186.143C215.129 184.204 213.855 182.461 212.28 181.013C210.705 179.565 208.859 178.441 206.849 177.704C204.839 176.968 202.704 176.634 200.566 176.721ZM201.823 206.549C199.133 206.658 196.47 205.968 194.171 204.567C191.872 203.166 190.04 201.116 188.907 198.677C187.774 196.238 187.39 193.52 187.805 190.865C188.22 188.211 189.415 185.74 191.238 183.764C193.061 181.789 195.43 180.398 198.047 179.768C200.663 179.137 203.409 179.296 205.937 180.223C208.466 181.15 210.662 182.804 212.25 184.976C213.838 187.148 214.745 189.741 214.857 192.425C215.005 196.025 213.716 199.534 211.272 202.183C208.828 204.831 205.429 206.401 201.823 206.549ZM210.594 191.164C210.356 191.101 210.145 190.963 209.991 190.772C209.837 190.58 209.748 190.345 209.738 190.1C209.705 189.304 209.516 188.522 209.18 187.799C208.845 187.076 208.37 186.426 207.782 185.886C207.195 185.346 206.507 184.927 205.757 184.652C205.008 184.378 204.212 184.253 203.414 184.286C203.263 184.292 203.112 184.269 202.969 184.216C202.827 184.164 202.696 184.084 202.585 183.981C202.473 183.879 202.383 183.755 202.319 183.618C202.256 183.48 202.22 183.332 202.214 183.181C202.208 183.03 202.231 182.879 202.283 182.737C202.336 182.595 202.416 182.465 202.518 182.353C202.621 182.242 202.745 182.152 202.882 182.089C203.02 182.026 203.169 181.99 203.32 181.984C205.542 181.896 207.708 182.692 209.344 184.197C210.98 185.701 211.951 187.792 212.044 190.009C212.056 190.314 211.946 190.611 211.738 190.835C211.53 191.058 211.242 191.191 210.936 191.202C210.821 191.206 210.705 191.193 210.594 191.164Z" fill="#285C5C"/>
<path d="M239.348 228.025C238.758 228.664 237.939 229.043 237.07 229.079C236.202 229.116 235.355 228.807 234.715 228.22L220.129 214.799C219.96 214.645 219.823 214.458 219.727 214.25C219.631 214.042 219.577 213.817 219.569 213.588C219.56 213.358 219.598 213.13 219.679 212.915C219.76 212.7 219.883 212.504 220.041 212.337L222.127 210.075C222.282 209.907 222.469 209.771 222.677 209.675C222.885 209.579 223.11 209.525 223.339 209.517C223.568 209.508 223.796 209.545 224.01 209.626C224.225 209.706 224.421 209.828 224.587 209.985L239.173 223.405C239.809 223.994 240.184 224.811 240.217 225.677C240.25 226.543 239.937 227.388 239.348 228.025Z" fill="#2C424C"/>
</g>
<defs>
<linearGradient id="paint0_linear_5802_102091" x1="158" y1="286.682" x2="158" y2="-28.5891" gradientUnits="userSpaceOnUse">
<stop stop-color="white"/>
<stop offset="1" stop-color="#F6F5F4"/>
</linearGradient>
<linearGradient id="paint1_linear_5802_102091" x1="158" y1="274.468" x2="158" y2="184.324" gradientUnits="userSpaceOnUse">
<stop stop-color="#FEFEFD"/>
<stop offset="0.84" stop-color="#EBE8E6"/>
</linearGradient>
<clipPath id="clip0_5802_102091">
<rect width="316" height="318" fill="white"/>
</clipPath>
</defs>
</svg>
