<svg width="421" height="433" viewBox="0 0 421 433" fill="none" xmlns="http://www.w3.org/2000/svg">
<g clip-path="url(#clip0_6552_119514)">
<path d="M179.59 360.001C278.376 360.001 358.458 280.104 358.458 181.546C358.458 82.9879 278.376 3.09082 179.59 3.09082C80.8041 3.09082 0.722168 82.9879 0.722168 181.546C0.722168 280.104 80.8041 360.001 179.59 360.001Z" fill="url(#paint0_linear_6552_119514)"/>
<path d="M357.517 204.235C337.805 195.643 312.14 191.53 296.1 197.527C281.072 203.146 283.477 214.306 268.037 218.922C243.131 226.359 225.882 200.578 188.816 201.804C155.84 202.892 144.386 224.13 119.499 218.922C103.962 215.662 101.022 205.884 89.96 198.948C71.4303 187.365 35.8541 187.482 1.6499 194.112C4.66106 237.376 23.4096 278.053 54.3707 308.495C88.1567 314.727 124.935 318.058 160.76 316.728C223.765 314.401 287.514 297.563 330.892 277.518C345.106 255.363 354.2 230.331 357.517 204.235Z" fill="url(#paint1_linear_6552_119514)"/>
<path fill-rule="evenodd" clip-rule="evenodd" d="M74.9147 58.1004H72.5997C71.4706 58.0995 70.3525 58.3209 69.3092 58.7518C68.266 59.1827 67.3182 59.8146 66.5201 60.6115C65.722 61.4083 65.0893 62.3544 64.6582 63.3956C64.2272 64.4367 64.0061 65.5525 64.0078 66.6789C64.007 67.8049 64.2286 68.92 64.6601 69.9604C65.0916 71.0008 65.7244 71.9461 66.5224 72.7422C67.3204 73.5384 68.2679 74.1698 69.3108 74.6003C70.3536 75.0307 71.4712 75.2519 72.5997 75.251H108.901H108.921C111.2 75.251 113.386 74.3481 114.999 72.7407C116.611 71.1333 117.518 68.953 117.519 66.6789C117.519 65.5507 117.296 64.4336 116.863 63.3916C116.43 62.3495 115.794 61.4029 114.994 60.6061C114.193 59.8092 113.243 59.1777 112.198 58.7478C111.152 58.3178 110.032 58.0978 108.901 58.1004H100.373C99.3358 53.38 95.6894 49.4268 90.6618 48.2318C83.6624 46.5682 76.6364 50.8806 74.9689 57.8638C74.9501 57.9427 74.932 58.0215 74.9147 58.1004Z" fill="white"/>
<path fill-rule="evenodd" clip-rule="evenodd" d="M219.614 17.8866H215.605C211.619 17.8866 207.797 19.4662 204.979 22.278C202.16 25.0897 200.577 28.9032 200.577 32.8795C200.577 36.8559 202.16 40.6694 204.979 43.4811C207.797 46.2928 211.619 47.8725 215.605 47.8725H279.074C283.059 47.8725 286.882 46.2928 289.7 43.4811C292.518 40.6694 294.101 36.8559 294.101 32.8795C294.101 28.9032 292.518 25.0897 289.7 22.278C286.882 19.4662 283.059 17.8866 279.074 17.8866H264.129C263.235 13.7705 261.184 9.85423 257.977 6.65472C249.082 -2.21958 234.661 -2.21952 225.766 6.65478C222.559 9.85428 220.508 13.7705 219.614 17.8866Z" fill="#EBE8E6"/>
</g>
<path d="M275.837 100.473V226.535C275.837 234.093 269.488 240.442 261.93 240.442H53.3387C45.7811 240.442 39.4326 234.395 39.4326 226.535V100.473C39.4326 92.9158 45.7811 86.5674 53.3387 86.5674H261.93C269.488 86.5674 275.837 92.9158 275.837 100.473Z" fill="#EBE8E6"/>
<path opacity="0.3" d="M275.836 142.494V226.535C275.836 234.093 269.488 240.442 261.93 240.442H87.1968V156.4C87.1968 148.843 93.2429 142.494 101.103 142.494H275.836Z" fill="#AA998A"/>
<g filter="url(#filter0_d_6552_119514)">
<path d="M313.02 303.927H119.242C107.452 303.927 98.0801 294.555 98.0801 282.765V171.214C98.0801 159.424 107.452 150.053 119.242 150.053H313.02C324.81 150.053 334.182 159.424 334.182 171.214V282.765C334.182 294.555 324.81 303.927 313.02 303.927Z" fill="url(#paint2_linear_6552_119514)"/>
</g>
<path d="M157.937 269.162H127.102C124.381 269.162 122.265 267.046 122.265 264.325C122.265 261.604 124.381 259.488 127.102 259.488H157.937C160.658 259.488 162.774 261.604 162.774 264.325C162.774 267.046 160.658 269.162 157.937 269.162Z" fill="#EBE8E6"/>
<path d="M207.818 269.162H176.982C174.262 269.162 172.146 267.046 172.146 264.325C172.146 261.604 174.262 259.488 176.982 259.488H207.818C210.538 259.488 212.655 261.604 212.655 264.325C212.655 267.046 210.538 269.162 207.818 269.162Z" fill="#EBE8E6"/>
<path d="M257.699 269.162H226.863C224.143 269.162 222.026 267.046 222.026 264.325C222.026 261.604 224.143 259.488 226.863 259.488H257.699C260.419 259.488 262.535 261.604 262.535 264.325C262.535 267.046 260.419 269.162 257.699 269.162Z" fill="#EBE8E6"/>
<path d="M307.579 269.162H276.744C274.023 269.162 271.907 267.046 271.907 264.325C271.907 261.604 274.023 259.488 276.744 259.488H307.579C310.3 259.488 312.416 261.604 312.416 264.325C312.416 267.046 310.3 269.162 307.579 269.162Z" fill="#EBE8E6"/>
<path opacity="0.5" d="M275.838 112.264H39.7358V141.89H275.838V112.264Z" fill="#AA998A"/>
<path opacity="0.5" d="M160.223 216.864H126.365C123.946 216.864 121.83 214.747 121.83 212.329V190.563C121.83 188.144 123.946 186.028 126.365 186.028H159.921C162.339 186.028 164.455 188.144 164.455 190.563V212.329C164.758 214.747 162.642 216.864 160.223 216.864Z" fill="#AA998A"/>
<defs>
<filter id="filter0_d_6552_119514" x="12.1746" y="107.1" width="407.913" height="325.685" filterUnits="userSpaceOnUse" color-interpolation-filters="sRGB">
<feFlood flood-opacity="0" result="BackgroundImageFix"/>
<feColorMatrix in="SourceAlpha" type="matrix" values="0 0 0 0 0 0 0 0 0 0 0 0 0 0 0 0 0 0 127 0" result="hardAlpha"/>
<feOffset dy="42.9528"/>
<feGaussianBlur stdDeviation="42.9528"/>
<feColorMatrix type="matrix" values="0 0 0 0 0.666667 0 0 0 0 0.6 0 0 0 0 0.541176 0 0 0 0.25 0"/>
<feBlend mode="normal" in2="BackgroundImageFix" result="effect1_dropShadow_6552_119514"/>
<feBlend mode="normal" in="SourceGraphic" in2="effect1_dropShadow_6552_119514" result="shape"/>
</filter>
<linearGradient id="paint0_linear_6552_119514" x1="179.59" y1="324.546" x2="179.59" y2="-32.3642" gradientUnits="userSpaceOnUse">
<stop stop-color="white"/>
<stop offset="1" stop-color="#F6F5F4"/>
</linearGradient>
<linearGradient id="paint1_linear_6552_119514" x1="179.59" y1="310.718" x2="179.59" y2="208.668" gradientUnits="userSpaceOnUse">
<stop stop-color="#FEFEFD"/>
<stop offset="0.84" stop-color="#EBE8E6"/>
</linearGradient>
<linearGradient id="paint2_linear_6552_119514" x1="216.054" y1="146.493" x2="216.054" y2="305.586" gradientUnits="userSpaceOnUse">
<stop stop-color="#FDFEFF"/>
<stop offset="0.9964" stop-color="#F6F5F4"/>
</linearGradient>
<clipPath id="clip0_6552_119514">
<rect width="357.736" height="360" fill="white" transform="translate(0.723145)"/>
</clipPath>
</defs>
</svg>
