<svg width="339" height="320" viewBox="0 0 339 320" fill="none" xmlns="http://www.w3.org/2000/svg">
<path d="M166.632 320C240.136 320 299.726 260.409 299.726 186.643C299.726 112.877 240.136 53.2871 166.632 53.2871C93.1288 53.2871 33.5386 112.877 33.5386 186.643C33.5386 260.409 93.1288 320 166.632 320Z" fill="#EBE8E6"/>
<path d="M314.951 144.905C320.896 144.905 325.714 140.086 325.714 134.142C325.714 128.198 320.896 123.379 314.951 123.379C309.007 123.379 304.188 128.198 304.188 134.142C304.188 140.086 309.007 144.905 314.951 144.905Z" fill="#EBE8E6"/>
<path d="M330.702 102.642C334.761 102.642 338.052 99.3512 338.052 95.2917C338.052 91.2323 334.761 87.9414 330.702 87.9414C326.642 87.9414 323.352 91.2323 323.352 95.2917C323.352 99.3512 326.642 102.642 330.702 102.642Z" fill="#EBE8E6"/>
<path d="M24.3503 152.517C28.4098 152.517 31.7007 149.226 31.7007 145.167C31.7007 141.107 28.4098 137.816 24.3503 137.816C20.2909 137.816 17 141.107 17 145.167C17 149.226 20.2909 152.517 24.3503 152.517Z" fill="#EBE8E6"/>
<g filter="url(#filter0_d_6552_118327)">
<path d="M297.167 272.005L234.057 247.903L164.81 275.639L89.6154 247.712L32.0687 269.709C26.8895 271.622 21.5185 266.84 23.0531 261.484L58.9238 137.725C60.0747 133.708 62.9521 130.265 66.7885 128.543L124.335 101.572L164.81 130.647L204.325 105.589L268.01 133.516C272.23 135.429 275.299 139.064 276.258 143.463L306.183 264.162C307.525 269.327 302.346 273.918 297.167 272.005Z" fill="url(#paint0_linear_6552_118327)"/>
</g>
<path d="M124.335 101.762L89.6154 247.71L32.0687 269.708C26.8895 271.62 21.5185 266.838 23.0531 261.482L58.9238 137.723C60.0747 133.706 62.9521 130.263 66.7885 128.541L124.335 101.762Z" fill="#EBE8E6"/>
<path d="M296.783 272.767L233.673 248.666L203.941 106.543L267.626 134.47C271.846 136.383 274.915 140.017 275.874 144.417L305.799 265.116C307.141 270.281 301.962 274.871 296.783 272.767Z" fill="white"/>
<path d="M234.249 247.904L164.81 275.64V130.648L204.325 105.59L234.249 247.904Z" fill="#EBE8E6"/>
<path opacity="0.2" d="M102.851 214.617C102.66 214.617 102.468 214.617 102.084 214.617C101.317 214.426 100.741 214.426 99.9741 214.235C97.864 213.661 96.7131 211.748 97.0967 209.644C97.4804 207.54 99.5904 206.392 101.7 206.775C102.276 206.966 102.851 206.966 103.427 207.157C105.537 207.54 106.88 209.453 106.496 211.557C106.304 213.469 104.77 214.617 102.851 214.617ZM116.279 214.235C114.553 214.235 113.018 213.087 112.634 211.365C112.059 209.261 113.402 207.157 115.512 206.775C116.087 206.583 116.663 206.392 117.238 206.392C119.348 205.818 121.458 206.966 122.034 208.879C122.609 210.983 121.458 213.087 119.54 213.661C118.773 213.852 118.197 214.043 117.43 214.235C116.854 214.235 116.471 214.235 116.279 214.235ZM88.8484 208.879C88.0811 208.879 87.3138 208.687 86.7383 208.305C86.1629 207.922 85.5874 207.54 85.0119 207.157C83.2855 206.009 82.9019 203.523 84.0528 201.801C85.2038 200.08 87.6975 199.697 89.4239 200.845C89.9993 201.227 90.383 201.61 90.9584 201.801C92.6848 202.949 93.2603 205.244 92.1094 207.157C91.3421 208.305 90.1912 208.879 88.8484 208.879ZM130.09 207.922C128.939 207.922 127.596 207.348 126.829 206.201C125.678 204.479 126.062 201.993 127.98 200.845C128.556 200.462 128.939 200.271 129.515 199.888C131.241 198.741 133.735 199.123 134.886 200.845C136.037 202.566 135.653 205.053 133.927 206.201C133.351 206.583 132.776 206.966 132.2 207.348C131.625 207.54 130.857 207.922 130.09 207.922ZM226.769 203.331C224.85 203.331 223.124 201.801 222.932 199.697C222.74 197.593 224.467 195.68 226.577 195.68C226.96 195.68 227.536 195.68 228.111 195.489C230.221 195.106 232.14 196.445 232.523 198.549C232.907 200.654 231.564 202.566 229.454 202.949C228.687 203.14 227.919 203.14 227.152 203.331C226.96 203.331 226.96 203.331 226.769 203.331ZM77.1472 198.932C76.1881 198.932 75.0372 198.549 74.4617 197.784C74.0781 197.402 73.5026 196.828 73.119 196.254C71.5844 194.724 71.7762 192.237 73.3108 190.898C74.8454 189.559 77.3391 189.559 78.6818 191.089C79.0655 191.472 79.4491 192.046 80.0246 192.428C81.5591 193.959 81.3673 196.445 79.8328 197.784C79.0655 198.549 78.1063 198.932 77.1472 198.932ZM214.492 198.932C213.725 198.932 212.766 198.741 212.19 198.167C211.615 197.784 211.039 197.402 210.656 196.828C209.121 195.489 208.929 193.002 210.272 191.472C211.615 189.942 214.108 189.75 215.643 191.089C216.027 191.472 216.602 191.855 216.986 192.237C218.712 193.576 218.904 195.871 217.561 197.593C216.794 198.358 215.643 198.932 214.492 198.932ZM142.175 198.358C141.024 198.358 140.065 197.976 139.298 197.019C137.955 195.489 138.147 193.002 139.681 191.663C140.257 191.281 140.64 190.898 141.024 190.516C142.559 189.177 145.052 189.368 146.395 190.898C147.738 192.428 147.546 194.915 146.011 196.254C145.436 196.637 145.052 197.019 144.477 197.593C143.901 198.167 143.134 198.358 142.175 198.358ZM240.963 197.784C239.621 197.784 238.47 197.21 237.702 196.063C236.551 194.341 237.127 191.855 238.853 190.707C239.429 190.324 239.812 190.133 240.388 189.75C242.114 188.603 244.608 188.985 245.759 190.707C246.91 192.428 246.526 194.915 244.8 196.063C244.224 196.445 243.649 196.828 243.073 197.21C242.306 197.593 241.539 197.784 240.963 197.784ZM203.366 188.411C202.407 188.411 201.448 188.029 200.681 187.264C200.297 186.881 199.722 186.499 199.338 185.925C197.803 184.586 197.612 182.099 199.146 180.569C200.489 179.039 202.983 178.847 204.517 180.378C205.093 180.76 205.476 181.334 206.052 181.717C207.586 183.247 207.586 185.542 206.244 187.072C205.284 188.029 204.325 188.411 203.366 188.411ZM253.048 188.411C251.897 188.411 250.938 188.029 250.171 187.072C248.828 185.542 249.02 183.056 250.555 181.717C250.938 181.334 251.514 180.951 251.897 180.569C253.432 179.23 255.926 179.421 257.268 180.951C258.611 182.482 258.419 184.968 256.885 186.307C256.309 186.69 255.926 187.072 255.35 187.646C254.966 188.22 254.007 188.411 253.048 188.411ZM153.301 188.029C152.342 188.029 151.382 187.646 150.615 186.881C149.081 185.351 149.081 183.056 150.615 181.525L151.958 180.186C153.492 178.656 155.794 178.656 157.329 179.995C158.864 181.525 158.863 183.821 157.521 185.351L156.178 186.69C155.411 187.646 154.452 188.029 153.301 188.029ZM67.3643 187.264C66.2134 187.264 65.0624 186.69 64.2951 185.734C63.9115 185.16 63.5279 184.777 63.1442 184.203C61.8015 182.482 62.1851 180.186 63.9115 178.847C65.6379 177.508 67.9398 177.891 69.2825 179.612L70.4335 181.143C71.7762 182.864 71.3926 185.16 69.6662 186.499C68.8989 186.881 68.1316 187.264 67.3643 187.264ZM191.665 178.656C190.898 178.656 190.131 178.465 189.363 177.891C188.788 177.508 188.404 177.126 187.829 176.743C186.102 175.596 185.719 173.109 187.061 171.387C188.212 169.666 190.706 169.283 192.432 170.622C193.008 171.005 193.391 171.387 193.967 171.77C195.693 173.109 196.077 175.404 194.734 177.126C193.967 178.082 192.816 178.656 191.665 178.656ZM264.558 178.273C263.598 178.273 262.447 177.891 261.68 177.126C260.146 175.596 260.337 173.109 261.872 171.77L263.215 170.431C264.749 168.901 267.243 169.092 268.586 170.622C270.12 172.152 269.929 174.639 268.394 175.978L267.051 177.317C266.476 177.891 265.517 178.273 264.558 178.273ZM163.851 176.743C162.892 176.743 161.933 176.361 161.165 175.787C159.631 174.257 159.439 171.961 160.974 170.431C161.357 169.857 161.933 169.475 162.316 168.901C163.851 167.37 166.153 167.37 167.687 168.901C169.222 170.431 169.222 172.726 167.687 174.257C167.304 174.639 166.92 175.213 166.345 175.596C165.769 176.361 164.81 176.743 163.851 176.743ZM58.5405 174.639C57.1977 174.639 56.0468 174.065 55.2795 172.918L54.1286 171.387C52.9776 169.666 53.5531 167.179 55.2795 166.031C57.0059 164.884 59.4996 165.458 60.6505 167.179L61.6096 168.709C62.7606 170.431 62.3769 172.918 60.4587 174.065C60.0751 174.448 59.3078 174.639 58.5405 174.639ZM178.621 170.622C178.238 170.622 177.662 170.622 177.278 170.431C176.703 170.24 176.319 170.24 175.936 170.048C173.826 169.666 172.483 167.562 173.058 165.458C173.634 163.353 175.552 162.015 177.662 162.588C178.429 162.78 179.197 162.971 179.964 163.353C181.882 164.119 183.033 166.223 182.266 168.327C181.499 169.666 180.156 170.622 178.621 170.622Z" fill="#2C424C"/>
<path d="M164.809 0C199.913 0 228.303 28.3098 228.303 63.3144C228.303 91.2417 188.02 146.522 171.523 167.946C168.07 172.537 161.165 172.537 157.712 167.946C141.215 146.522 100.933 91.2417 100.933 63.3144C101.316 28.3098 129.706 0 164.809 0Z" fill="#AA998A"/>
<path d="M164.809 88.1824C178.688 88.1824 189.938 76.9635 189.938 63.1244C189.938 49.2852 178.688 38.0664 164.809 38.0664C150.931 38.0664 139.681 49.2852 139.681 63.1244C139.681 76.9635 150.931 88.1824 164.809 88.1824Z" fill="white"/>
<defs>
<filter id="filter0_d_6552_118327" x="0.786621" y="90.5723" width="327.611" height="218.067" filterUnits="userSpaceOnUse" color-interpolation-filters="sRGB">
<feFlood flood-opacity="0" result="BackgroundImageFix"/>
<feColorMatrix in="SourceAlpha" type="matrix" values="0 0 0 0 0 0 0 0 0 0 0 0 0 0 0 0 0 0 127 0" result="hardAlpha"/>
<feOffset dy="11"/>
<feGaussianBlur stdDeviation="11"/>
<feColorMatrix type="matrix" values="0 0 0 0 0.397708 0 0 0 0 0.47749 0 0 0 0 0.575 0 0 0 0.27 0"/>
<feBlend mode="normal" in2="BackgroundImageFix" result="effect1_dropShadow_6552_118327"/>
<feBlend mode="normal" in="SourceGraphic" in2="effect1_dropShadow_6552_118327" result="shape"/>
</filter>
<linearGradient id="paint0_linear_6552_118327" x1="164.5" y1="97.5459" x2="164.5" y2="277.516" gradientUnits="userSpaceOnUse">
<stop stop-color="#FDFEFF"/>
<stop offset="0.9964" stop-color="#EBE8E6"/>
</linearGradient>
</defs>
</svg>
