<svg width="177" height="145" viewBox="0 0 177 145" fill="none" xmlns="http://www.w3.org/2000/svg">
<path d="M88.5014 136.6C126.147 136.6 156.667 106.08 156.667 68.3C156.667 30.5199 126.147 0 88.5014 0C50.8557 0 20.3358 30.5199 20.3358 68.3C20.3358 106.08 50.8557 136.6 88.5014 136.6Z" fill="#EBE8E6"/>
<path d="M164.465 40.2006C167.509 40.2006 169.977 37.7326 169.977 34.6882C169.977 31.6438 167.509 29.1758 164.465 29.1758C161.42 29.1758 158.953 31.6438 158.953 34.6882C158.953 37.7326 161.42 40.2006 164.465 40.2006Z" fill="#EBE8E6"/>
<path d="M172.532 18.554C174.611 18.554 176.296 16.8686 176.296 14.7895C176.296 12.7104 174.611 11.0249 172.532 11.0249C170.453 11.0249 168.767 12.7104 168.767 14.7895C168.767 16.8686 170.453 18.554 172.532 18.554Z" fill="#EBE8E6"/>
<path d="M15.7646 44.0994C17.8437 44.0994 19.5291 42.414 19.5291 40.3349C19.5291 38.2558 17.8437 36.5703 15.7646 36.5703C13.6855 36.5703 12 38.2558 12 40.3349C12 42.414 13.6855 44.0994 15.7646 44.0994Z" fill="#EBE8E6"/>
<path d="M22.7559 125.978C26.6171 125.978 29.7472 122.848 29.7472 118.987C29.7472 115.126 26.6171 111.996 22.7559 111.996C18.8947 111.996 15.7645 115.126 15.7645 118.987C15.7645 122.848 18.8947 125.978 22.7559 125.978Z" fill="#EBE8E6"/>
<g filter="url(#filter0_d_6552_117616)">
<path d="M142.706 111.417H34.5654C27.9858 111.417 22.7559 106.187 22.7559 99.6076V37.3549C22.7559 30.7753 27.9858 25.5454 34.5654 25.5454H142.706C149.286 25.5454 154.516 30.7753 154.516 37.3549V99.6076C154.516 106.187 149.286 111.417 142.706 111.417Z" fill="url(#paint0_linear_6552_117616)"/>
</g>
<path d="M56.1598 92.0158H38.9517C37.4334 92.0158 36.2524 90.8348 36.2524 89.3165C36.2524 87.7981 37.4334 86.6172 38.9517 86.6172H56.1598C57.6782 86.6172 58.8591 87.7981 58.8591 89.3165C58.8591 90.8348 57.6782 92.0158 56.1598 92.0158Z" fill="#EBE8E6"/>
<path d="M83.9964 92.0158H66.7883C65.27 92.0158 64.089 90.8348 64.089 89.3165C64.089 87.7981 65.27 86.6172 66.7883 86.6172H83.9964C85.5148 86.6172 86.6957 87.7981 86.6957 89.3165C86.6957 90.8348 85.5148 92.0158 83.9964 92.0158Z" fill="#EBE8E6"/>
<path d="M111.833 92.0158H94.6249C93.1065 92.0158 91.9256 90.8348 91.9256 89.3165C91.9256 87.7981 93.1065 86.6172 94.6249 86.6172H111.833C113.351 86.6172 114.532 87.7981 114.532 89.3165C114.532 90.8348 113.351 92.0158 111.833 92.0158Z" fill="#EBE8E6"/>
<path d="M139.67 92.0158H122.462C120.943 92.0158 119.762 90.8348 119.762 89.3165C119.762 87.7981 120.943 86.6172 122.462 86.6172H139.67C141.188 86.6172 142.369 87.7981 142.369 89.3165C142.369 90.8348 141.188 92.0158 139.67 92.0158Z" fill="#EBE8E6"/>
<path d="M57.6782 62.8297H38.7831C37.4334 62.8297 36.2525 61.6487 36.2525 60.2991V48.1522C36.2525 46.8025 37.4334 45.6216 38.7831 45.6216H57.5095C58.8592 45.6216 60.0401 46.8025 60.0401 48.1522V60.2991C60.2088 61.6487 59.0279 62.8297 57.6782 62.8297Z" fill="#EBE8E6"/>
<path d="M164.886 112.457C164.348 114.742 163.542 117.162 162.601 119.179C160.046 124.154 156.013 128.053 151.038 130.607C145.929 133.162 139.879 134.237 133.829 132.893C119.577 129.935 110.435 115.952 113.392 101.701C116.35 87.4492 130.198 78.1722 144.45 81.2646C149.559 82.3402 153.996 84.8947 157.76 88.3903C164.08 94.7094 166.769 103.852 164.886 112.457Z" fill="#617179"/>
<path d="M147.542 104.793H141.492V98.7427C141.492 97.5326 140.551 96.457 139.206 96.457C137.996 96.457 136.921 97.3982 136.921 98.7427V104.793H130.871C129.661 104.793 128.585 105.734 128.585 107.078C128.585 108.423 129.526 109.364 130.871 109.364H136.921V115.414C136.921 116.624 137.862 117.7 139.206 117.7C140.416 117.7 141.492 116.759 141.492 115.414V109.364H147.542C148.752 109.364 149.828 108.423 149.828 107.078C149.828 105.734 148.752 104.793 147.542 104.793Z" fill="white"/>
<defs>
<filter id="filter0_d_6552_117616" x="0.75592" y="14.5454" width="175.76" height="129.872" filterUnits="userSpaceOnUse" color-interpolation-filters="sRGB">
<feFlood flood-opacity="0" result="BackgroundImageFix"/>
<feColorMatrix in="SourceAlpha" type="matrix" values="0 0 0 0 0 0 0 0 0 0 0 0 0 0 0 0 0 0 127 0" result="hardAlpha"/>
<feOffset dy="11"/>
<feGaussianBlur stdDeviation="11"/>
<feColorMatrix type="matrix" values="0 0 0 0 0.397708 0 0 0 0 0.47749 0 0 0 0 0.575 0 0 0 0.27 0"/>
<feBlend mode="normal" in2="BackgroundImageFix" result="effect1_dropShadow_6552_117616"/>
<feBlend mode="normal" in="SourceGraphic" in2="effect1_dropShadow_6552_117616" result="shape"/>
</filter>
<linearGradient id="paint0_linear_6552_117616" x1="88.5929" y1="23.5591" x2="88.5929" y2="112.343" gradientUnits="userSpaceOnUse">
<stop stop-color="#FDFEFF"/>
<stop offset="0.9964" stop-color="#F6F5F4"/>
</linearGradient>
</defs>
</svg>
