<svg width="468" height="400" viewBox="0 0 468 400" fill="none" xmlns="http://www.w3.org/2000/svg">
<path d="M233.022 397.508C341.758 397.508 429.907 309.563 429.907 201.078C429.907 92.5923 341.758 4.64746 233.022 4.64746C124.285 4.64746 36.1371 92.5923 36.1371 201.078C36.1371 309.563 124.285 397.508 233.022 397.508Z" fill="url(#paint0_linear_6579_117466)"/>
<path opacity="0.5" fill-rule="evenodd" clip-rule="evenodd" d="M312.799 362.337C313.16 361.824 313.351 361.289 313.351 360.739C313.351 356.965 304.254 353.895 293.042 353.895C281.83 353.895 272.733 356.943 272.733 360.739C272.733 360.954 272.762 361.166 272.82 361.376C260.591 361.197 247.653 361.101 234.268 361.101C158.563 361.101 97.1963 364.15 97.1963 367.945C97.1963 371.74 158.572 374.81 234.268 374.81C309.963 374.81 371.34 371.74 371.34 367.945C371.34 365.628 348.195 363.575 312.799 362.337Z" fill="#AA998A"/>
<path d="M428.871 226.055C407.173 216.598 378.923 212.07 361.267 218.671C344.726 224.856 347.373 237.14 330.378 242.22C302.963 250.407 283.976 222.029 243.177 223.378C206.879 224.576 194.272 247.954 166.878 242.22C149.776 238.633 146.539 227.87 134.364 220.235C113.967 207.485 74.8078 207.614 37.1584 214.911C40.4728 262.534 61.1099 307.308 95.1895 340.816C132.379 347.675 172.862 351.342 212.295 349.878C281.646 347.317 351.817 328.783 399.564 306.719C415.209 282.333 425.22 254.779 428.871 226.055Z" fill="url(#paint1_linear_6579_117466)"/>
<path fill-rule="evenodd" clip-rule="evenodd" d="M117.803 65.1992H115.255C114.012 65.1982 112.781 65.4419 111.633 65.9162C110.485 66.3905 109.441 67.0861 108.563 67.9632C107.684 68.8403 106.988 69.8817 106.513 71.0277C106.039 72.1737 105.796 73.4019 105.798 74.6418C105.797 75.8812 106.041 77.1086 106.516 78.2538C106.99 79.3989 107.687 80.4395 108.565 81.3158C109.444 82.1922 110.487 82.8872 111.635 83.361C112.782 83.8349 114.013 84.0783 115.255 84.0773H155.213H155.234C157.743 84.0773 160.15 83.0834 161.924 81.3142C163.699 79.5449 164.697 77.1449 164.699 74.6418C164.699 73.4 164.453 72.1703 163.977 71.0233C163.5 69.8763 162.8 68.8344 161.919 67.9573C161.038 67.0801 159.992 66.385 158.841 65.9117C157.691 65.4385 156.458 65.1963 155.213 65.1992H145.825C144.683 60.0039 140.669 55.6533 135.136 54.3381C127.431 52.5069 119.698 57.2536 117.862 64.9403C117.842 65.0266 117.822 65.1129 117.803 65.1992Z" fill="white"/>
<path fill-rule="evenodd" clip-rule="evenodd" d="M277.076 20.9351H272.663C268.276 20.9351 264.069 22.6739 260.967 25.7688C257.865 28.8637 256.122 33.0613 256.122 37.4382C256.122 41.8151 257.865 46.0128 260.967 49.1077C264.069 52.2026 268.276 53.9414 272.663 53.9414H342.525C346.912 53.9414 351.12 52.2026 354.222 49.1077C357.324 46.0128 359.067 41.8151 359.067 37.4382C359.067 33.0613 357.324 28.8637 354.222 25.7688C351.12 22.6739 346.912 20.9351 342.525 20.9351H326.076C325.091 16.4041 322.834 12.0932 319.304 8.57123C309.513 -1.19696 293.639 -1.1969 283.848 8.57129C280.318 12.0932 278.061 16.4042 277.076 20.9351Z" fill="#EBE8E6"/>
<path d="M195.283 177.909V155.126C195.283 132.344 213.454 113.63 236.508 113.63C259.019 113.63 277.733 132.073 277.733 155.126V177.909" stroke="#617179" stroke-width="4" stroke-miterlimit="10" stroke-linecap="round" stroke-linejoin="round"/>
<path d="M356.929 134.785H125.851V366.406H356.929V134.785Z" fill="white"/>
<path d="M357.472 134.785H190.129V366.406H357.2V134.785H357.472Z" fill="#EBE8E6"/>
<path d="M157.854 134.785H125.851V366.406H157.854V134.785Z" fill="url(#paint2_linear_6579_117466)"/>
<path d="M190.129 366.406H125.851V365.864L158.397 333.589L190.129 366.406Z" fill="#EBE8E6"/>
<path d="M230.541 186.317C235.152 186.317 238.949 182.519 238.949 177.909C238.949 173.298 235.152 169.501 230.541 169.501C225.93 169.501 222.133 173.298 222.133 177.909C222.133 182.519 225.93 186.317 230.541 186.317Z" fill="#2C424C" fill-opacity="0.5"/>
<path d="M312.992 186.317C317.602 186.317 321.399 182.519 321.399 177.909C321.399 173.298 317.602 169.501 312.992 169.501C308.381 169.501 304.584 173.298 304.584 177.909C304.855 182.519 308.381 186.317 312.992 186.317Z" fill="#2C424C" fill-opacity="0.5"/>
<path d="M230.541 177.909V155.126C230.541 132.344 248.713 113.63 271.766 113.63C294.277 113.63 312.992 132.073 312.992 155.126V177.909" stroke="#617179" stroke-width="4" stroke-miterlimit="10" stroke-linecap="round" stroke-linejoin="round"/>
<path d="M339.283 104.299C345.14 100.545 352.049 98.4424 359.407 98.4424C379.531 98.4424 395.901 114.662 395.901 134.786C395.901 154.91 379.531 171.129 359.407 171.129C339.283 171.129 322.914 154.91 322.914 134.786C322.613 122.021 329.221 110.907 339.283 104.299Z" fill="#AA998A"/>
<path d="M359.402 151.059C352.072 151.059 345.841 144.477 345.841 134.603C345.841 124.729 352.072 118.513 359.402 118.513C366.733 118.513 372.963 124.729 372.963 134.603C372.963 144.477 366.733 151.059 359.402 151.059ZM359.402 143.38C361.968 143.38 364.534 140.82 364.534 134.603C364.9 128.752 361.968 125.826 359.402 125.826C356.837 125.826 354.271 128.752 354.271 134.603C354.271 140.82 356.837 143.38 359.402 143.38Z" fill="white"/>
<path d="M245.664 252.222C236.347 252.222 228.521 246.261 225.54 237.692C224.795 235.83 225.913 233.967 227.776 233.222C229.639 232.477 231.503 233.594 232.248 235.457C234.111 241.045 239.701 245.143 245.664 245.143C251.627 245.143 257.217 241.418 259.08 235.457C259.825 233.594 261.689 232.477 263.552 233.222C265.415 233.967 266.533 235.83 265.788 237.692C262.807 246.634 254.981 252.222 245.664 252.222Z" fill="#617179"/>
<path d="M301.937 252.222C292.62 252.222 284.794 246.261 281.813 237.692C281.068 235.83 282.186 233.967 284.049 233.222C285.912 232.477 287.776 233.594 288.521 235.457C290.384 241.045 295.974 245.143 301.937 245.143C307.9 245.143 313.49 241.418 315.353 235.457C316.098 233.594 317.962 232.477 319.825 233.222C321.688 233.967 322.806 235.83 322.061 237.692C319.08 246.634 311.254 252.222 301.937 252.222Z" fill="#617179"/>
<path d="M273.987 297.838C278.721 297.838 282.558 294.001 282.558 289.269C282.558 284.537 278.721 280.7 273.987 280.7C269.253 280.7 265.416 284.537 265.416 289.269C265.416 294.001 269.253 297.838 273.987 297.838Z" fill="#617179"/>
<defs>
<linearGradient id="paint0_linear_6579_117466" x1="233.022" y1="358.482" x2="233.022" y2="-34.3789" gradientUnits="userSpaceOnUse">
<stop stop-color="white"/>
<stop offset="1" stop-color="#F6F5F4"/>
</linearGradient>
<linearGradient id="paint1_linear_6579_117466" x1="233.022" y1="343.263" x2="233.022" y2="230.934" gradientUnits="userSpaceOnUse">
<stop stop-color="#FEFEFD"/>
<stop offset="0.84" stop-color="#EBE8E6"/>
</linearGradient>
<linearGradient id="paint2_linear_6579_117466" x1="141.782" y1="140.949" x2="141.782" y2="626.3" gradientUnits="userSpaceOnUse">
<stop offset="0.00289017" stop-color="#EBE8E6"/>
<stop offset="1" stop-color="#AA998A"/>
</linearGradient>
</defs>
</svg>
